999
dxfrw 0.6.3
  0
SECTION
  2
HEADER
  9
$ACADVER
  1
AC1021
  9
$DWGCODEPAGE
  3
ANSI_1252
  9
$INSBASE
 10
0
 20
0
 30
0
  9
$EXTMIN
 10
10000000000
 20
10000000000
 30
0
  9
$EXTMAX
 10
-10000000000
 20
-10000000000
 30
0
  9
$LIMMIN
 10
0
 20
0
  9
$LIMMAX
 10
420
 20
297
  9
$ORTHOMODE
 70
    0
  9
$REGENMODE
 70
    1
  9
$FILLMODE
 70
    1
  9
$QTEXTMODE
 70
    0
  9
$MIRRTEXT
 70
    0
  9
$LTSCALE
 40
1
  9
$ATTMODE
 70
    1
  9
$TEXTSIZE
 40
2.5
  9
$TRACEWID
 40
1
  9
$TEXTSTYLE
  7
STANDARD
  9
$CLAYER
  8
0
  9
$CELTYPE
  6
BYLAYER
  9
$CECOLOR
 62
  256
  9
$CELTSCALE
 40
1
  9
$DISPSILH
 70
    0
  9
$DIMSCALE
 40
1
  9
$DIMASZ
 40
2.5
  9
$DIMEXO
 40
0.625
  9
$DIMDLI
 40
3.75
  9
$DIMRND
 40
0
  9
$DIMDLE
 40
0
  9
$DIMEXE
 40
1.25
  9
$DIMTP
 40
0
  9
$DIMTM
 40
0
  9
$DIMTXT
 40
2.5
  9
$DIMCEN
 40
2.5
  9
$DIMTSZ
 40
0
  9
$DIMTOL
 70
    0
  9
$DIMLIM
 70
    0
  9
$DIMTIH
 70
    0
  9
$DIMTOH
 70
    0
  9
$DIMSE1
 70
    0
  9
$DIMSE2
 70
    0
  9
$DIMTAD
 70
    1
  9
$DIMZIN
 70
    8
  9
$DIMBLK
  1

  9
$DIMASO
 70
    1
  9
$DIMSHO
 70
    1
  9
$DIMPOST
  1

  9
$DIMAPOST
  1

  9
$DIMALT
 70
    0
  9
$DIMALTD
 70
    3
  9
$DIMALTF
 40
0.03937007874016
  9
$DIMLFAC
 40
1
  9
$DIMTOFL
 70
    1
  9
$DIMTVP
 40
0
  9
$DIMTIX
 70
    0
  9
$DIMSOXD
 70
    0
  9
$DIMSAH
 70
    0
  9
$DIMBLK1
  1

  9
$DIMBLK2
  1

  9
$DIMSTYLE
  2
Standard
  9
$DIMCLRD
 70
    0
  9
$DIMCLRE
 70
    0
  9
$DIMCLRT
 70
    0
  9
$DIMTFAC
 40
1
  9
$DIMGAP
 40
0.625
  9
$DIMJUST
 70
    0
  9
$DIMSD1
 70
    0
  9
$DIMSD2
 70
    0
  9
$DIMTOLJ
 70
    0
  9
$DIMTZIN
 70
    8
  9
$DIMALTZ
 70
    0
  9
$DIMALTTZ
 70
    0
  9
$DIMUPT
 70
    0
  9
$DIMDEC
 70
    2
  9
$DIMTDEC
 70
    2
  9
$DIMALTU
 70
    2
  9
$DIMALTTD
 70
    3
  9
$DIMTXSTY
  7
STANDARD
  9
$DIMAUNIT
 70
    0
  9
$DIMADEC
 70
    0
  9
$DIMALTRND
 40
0
  9
$DIMAZIN
 70
    0
  9
$DIMDSEP
 70
   44
  9
$DIMATFIT
 70
    3
  9
$DIMFRAC
 70
    0
  9
$DIMLDRBLK
  1
STANDARD
  9
$DIMLUNIT
 70
    2
  9
$DIMLWD
 70
   -2
  9
$DIMLWE
 70
   -2
  9
$DIMTMOVE
 70
    0
  9
$DIMFXL
 40
1
  9
$DIMFXLON
 70
    0
  9
$DIMJOGANG
 40
0.7854
  9
$DIMTFILL
 70
    0
  9
$DIMTFILLCLR
 70
    0
  9
$DIMARCSYM
 70
    0
  9
$DIMLTYPE
  6

  9
$DIMLTEX1
  6

  9
$DIMLTEX2
  6

  9
$LUNITS
 70
    2
  9
$LUPREC
 70
    4
  9
$SKETCHINC
 40
1
  9
$FILLETRAD
 40
10
  9
$AUNITS
 70
    0
  9
$AUPREC
 70
    0
  9
$MENU
  1
.
  9
$ELEVATION
 40
0
  9
$PELEVATION
 40
0
  9
$THICKNESS
 40
0
  9
$LIMCHECK
 70
    0
  9
$CHAMFERA
 40
0
  9
$CHAMFERB
 40
0
  9
$CHAMFERC
 40
0
  9
$CHAMFERD
 40
0
  9
$SKPOLY
 70
    0
  9
$USRTIMER
 70
    1
  9
$ANGBASE
 50
0
  9
$ANGDIR
 70
    0
  9
$PDMODE
 70
    0
  9
$PDSIZE
 40
0
  9
$PLINEWID
 40
0
  9
$SPLFRAME
 70
    0
  9
$SPLINETYPE
 70
    6
  9
$SPLINESEGS
 70
    8
  9
$HANDSEED
  5
20000
  9
$SURFTAB1
 70
    6
  9
$SURFTAB2
 70
    6
  9
$SURFTYPE
 70
    6
  9
$SURFU
 70
    6
  9
$SURFV
 70
    6
  9
$UCSBASE
  2

  9
$UCSNAME
  2

  9
$UCSORG
 10
0
 20
0
 30
0
  9
$UCSXDIR
 10
1
 20
0
 30
0
  9
$UCSYDIR
 10
0
 20
1
 30
0
  9
$UCSORTHOREF
  2

  9
$UCSORTHOVIEW
 70
    0
  9
$UCSORGTOP
 10
0
 20
0
 30
0
  9
$UCSORGBOTTOM
 10
0
 20
0
 30
0
  9
$UCSORGLEFT
 10
0
 20
0
 30
0
  9
$UCSORGRIGHT
 10
0
 20
0
 30
0
  9
$UCSORGFRONT
 10
0
 20
0
 30
0
  9
$UCSORGBACK
 10
0
 20
0
 30
0
  9
$PUCSBASE
  2

  9
$PUCSNAME
  2

  9
$PUCSORG
 10
0
 20
0
 30
0
  9
$PUCSXDIR
 10
1
 20
0
 30
0
  9
$PUCSYDIR
 10
0
 20
1
 30
0
  9
$PUCSORTHOREF
  2

  9
$PUCSORTHOVIEW
 70
    0
  9
$PUCSORGTOP
 10
0
 20
0
 30
0
  9
$PUCSORGBOTTOM
 10
0
 20
0
 30
0
  9
$PUCSORGLEFT
 10
0
 20
0
 30
0
  9
$PUCSORGRIGHT
 10
0
 20
0
 30
0
  9
$PUCSORGFRONT
 10
0
 20
0
 30
0
  9
$PUCSORGBACK
 10
0
 20
0
 30
0
  9
$USERI1
 70
    0
  9
$USERI2
 70
    0
  9
$USERI3
 70
    0
  9
$USERI4
 70
    0
  9
$USERI5
 70
    0
  9
$USERR1
 40
0
  9
$USERR2
 40
0
  9
$USERR3
 40
0
  9
$USERR4
 40
0
  9
$USERR5
 40
0
  9
$WORLDVIEW
 70
    1
  9
$SHADEDGE
 70
    3
  9
$SHADEDIF
 70
   70
  9
$TILEMODE
 70
    1
  9
$MAXACTVP
 70
   64
  9
$PINSBASE
 10
0
 20
0
 30
0
  9
$PLIMCHECK
 70
    0
  9
$PEXTMIN
 10
0
 20
0
 30
0
  9
$PEXTMAX
 10
0
 20
0
 30
0
  9
$GRIDMODE
 70
    1
  9
$SNAPSTYLE
 70
    0
  9
$PLIMMIN
 10
0
 20
0
  9
$PLIMMAX
 10
210
 20
297
  9
$UNITMODE
 70
    0
  9
$VISRETAIN
 70
    1
  9
$PLINEGEN
 70
    0
  9
$PSLTSCALE
 70
    1
  9
$TREEDEPTH
 70
 3020
  9
$CMLSTYLE
  2
Standard
  9
$CMLJUST
 70
    0
  9
$CMLSCALE
 40
20
  9
$PROXYGRAPHICS
 70
    1
  9
$MEASUREMENT
 70
    1
  9
$CELWEIGHT
370
   -1
  9
$ENDCAPS
280
    0
  9
$JOINSTYLE
280
    0
  9
$LWDISPLAY
290
    0
  9
$INSUNITS
 70
    0
  9
$HYPERLINKBASE
  1

  9
$STYLESHEET
  1

  9
$XEDIT
290
    1
  9
$CEPSNTYPE
380
    0
  9
$PSTYLEMODE
290
    1
  9
$EXTNAMES
290
    1
  9
$PSVPSCALE
 40
1
  9
$OLESTARTUP
290
    0
  9
$SORTENTS
280
  127
  9
$INDEXCTL
280
    0
  9
$HIDETEXT
280
    1
  9
$XCLIPFRAME
290
    0
  9
$HALOGAP
280
    0
  9
$OBSCOLOR
 70
  257
  9
$OBSLTYPE
280
    0
  9
$INTERSECTIONDISPLAY
280
    0
  9
$INTERSECTIONCOLOR
 70
  257
  9
$DIMASSOC
280
    1
  9
$PROJECTNAME
  1

  9
$CAMERADISPLAY
290
    0
  9
$LENSLENGTH
 40
50
  9
$CAMERAHEIGHT
 40
0
  9
$STEPSPERSEC
 40
2
  9
$STEPSIZE
 40
50
  9
$3DDWFPREC
 40
2
  9
$PSOLWIDTH
 40
5
  9
$PSOLHEIGHT
 40
80
  9
$LOFTANG1
 40
1.570796326794897
  9
$LOFTANG2
 40
1.570796326794897
  9
$LOFTMAG1
 40
0
  9
$LOFTMAG2
 40
0
  9
$LOFTPARAM
 70
    7
  9
$LOFTNORMALS
280
    1
  9
$LATITUDE
 40
1
  9
$LONGITUDE
 40
1
  9
$NORTHDIRECTION
 40
0
  9
$TIMEZONE
 70
-8000
  9
$LIGHTGLYPHDISPLAY
280
    1
  9
$TILEMODELIGHTSYNCH
280
    1
  9
$SOLIDHIST
280
    1
  9
$SHOWHIST
280
    1
  9
$DWFFRAME
280
    2
  9
$DGNFRAME
280
    0
  9
$REALWORLDSCALE
290
    1
  9
$INTERFERECOLOR
 62
    1
  9
$CSHADOW
280
    0
  9
$SHADOWPLANELOCATION
 40
0
  0
ENDSEC
  0
SECTION
  2
CLASSES
  0
ENDSEC
  0
SECTION
  2
TABLES
  0
TABLE
  2
VPORT
  5
8
330
0
100
AcDbSymbolTable
 70
    1
  0
VPORT
  5
31
330
2
100
AcDbSymbolTableRecord
100
AcDbViewportTableRecord
  2
*ACTIVE
 70
    0
 10
0
 20
0
 11
1
 21
1
 12
5469.829301543843
 22
3628.801914932424
 13
0
 23
0
 14
10
 24
10
 15
10
 25
10
 16
0
 26
0
 36
1
 17
0
 27
0
 37
0
 40
12582.88965890614
 41
1.778718258766626
 42
50
 43
0
 44
0
 50
0
 51
0
 71
    0
 72
  100
 73
    1
 74
    3
 75
    0
 76
    1
 77
    0
 78
    0
281
    0
 65
    1
110
0
120
0
130
0
111
1
121
0
131
0
112
0
122
1
132
0
 79
    0
146
0
348
10020
 60
    7
 61
    5
292
1
282
    1
141
0
142
0
 63
  250
421
3358443
  0
ENDTAB
  0
TABLE
  2
LTYPE
  5
5
330
0
100
AcDbSymbolTable
 70
    4
  0
LTYPE
  5
14
330
5
100
AcDbSymbolTableRecord
100
AcDbLinetypeTableRecord
  2
ByBlock
 70
    0
  3

 72
   65
 73
    0
 40
0
  0
LTYPE
  5
15
330
5
100
AcDbSymbolTableRecord
100
AcDbLinetypeTableRecord
  2
ByLayer
 70
    0
  3

 72
   65
 73
    0
 40
0
  0
LTYPE
  5
16
330
5
100
AcDbSymbolTableRecord
100
AcDbLinetypeTableRecord
  2
Continuous
 70
    0
  3
Solid line
 72
   65
 73
    0
 40
0
  0
LTYPE
  5
32
330
5
100
AcDbSymbolTableRecord
100
AcDbLinetypeTableRecord
  2
DOT
 70
    0
  3
Dot . . . . . . . . . . . . . . . . . . . . . .
 72
   65
 73
    2
 40
6.35
 49
0
 74
    0
 49
-6.35
 74
    0
  0
LTYPE
  5
33
330
5
100
AcDbSymbolTableRecord
100
AcDbLinetypeTableRecord
  2
DOTTINY
 70
    0
  3
Dot (.15x) .....................................
 72
   65
 73
    2
 40
0.9525
 49
0
 74
    0
 49
-0.9525
 74
    0
  0
LTYPE
  5
34
330
5
100
AcDbSymbolTableRecord
100
AcDbLinetypeTableRecord
  2
DOT2
 70
    0
  3
Dot (.5x) .....................................
 72
   65
 73
    2
 40
3.175
 49
0
 74
    0
 49
-3.175
 74
    0
  0
LTYPE
  5
35
330
5
100
AcDbSymbolTableRecord
100
AcDbLinetypeTableRecord
  2
DOTX2
 70
    0
  3
Dot (2x) .  .  .  .  .  .  .  .  .  .  .  .  .
 72
   65
 73
    2
 40
12.7
 49
0
 74
    0
 49
-12.7
 74
    0
  0
LTYPE
  5
36
330
5
100
AcDbSymbolTableRecord
100
AcDbLinetypeTableRecord
  2
DASHED
 70
    0
  3
Dashed _ _ _ _ _ _ _ _ _ _ _ _ _ _ _ _ _
 72
   65
 73
    2
 40
19.05
 49
12.7
 74
    0
 49
-6.35
 74
    0
  0
LTYPE
  5
37
330
5
100
AcDbSymbolTableRecord
100
AcDbLinetypeTableRecord
  2
DASHEDTINY
 70
    0
  3
Dashed (.15x) _ _ _ _ _ _ _ _ _ _ _ _ _ _ _ _ _
 72
   65
 73
    2
 40
2.8575
 49
1.905
 74
    0
 49
-0.9525
 74
    0
  0
LTYPE
  5
38
330
5
100
AcDbSymbolTableRecord
100
AcDbLinetypeTableRecord
  2
DASHED2
 70
    0
  3
Dashed (.5x) _ _ _ _ _ _ _ _ _ _ _ _ _ _ _ _ _
 72
   65
 73
    2
 40
9.524999999999999
 49
6.35
 74
    0
 49
-3.175
 74
    0
  0
LTYPE
  5
39
330
5
100
AcDbSymbolTableRecord
100
AcDbLinetypeTableRecord
  2
DASHEDX2
 70
    0
  3
Dashed (2x) ____  ____  ____  ____  ____  ___
 72
   65
 73
    2
 40
38.09999999999999
 49
25.4
 74
    0
 49
-12.7
 74
    0
  0
LTYPE
  5
3A
330
5
100
AcDbSymbolTableRecord
100
AcDbLinetypeTableRecord
  2
DASHDOT
 70
    0
  3
Dash dot __ . __ . __ . __ . __ . __ . __ . __
 72
   65
 73
    4
 40
25.4
 49
12.7
 74
    0
 49
-6.35
 74
    0
 49
0
 74
    0
 49
-6.35
 74
    0
  0
LTYPE
  5
3B
330
5
100
AcDbSymbolTableRecord
100
AcDbLinetypeTableRecord
  2
DASHDOTTINY
 70
    0
  3
Dash dot (.15x) _._._._._._._._._._._._._._._.
 72
   65
 73
    4
 40
3.81
 49
1.905
 74
    0
 49
-0.9525
 74
    0
 49
0
 74
    0
 49
-0.9525
 74
    0
  0
LTYPE
  5
3C
330
5
100
AcDbSymbolTableRecord
100
AcDbLinetypeTableRecord
  2
DASHDOT2
 70
    0
  3
Dash dot (.5x) _._._._._._._._._._._._._._._.
 72
   65
 73
    4
 40
12.7
 49
6.35
 74
    0
 49
-3.175
 74
    0
 49
0
 74
    0
 49
-3.175
 74
    0
  0
LTYPE
  5
3D
330
5
100
AcDbSymbolTableRecord
100
AcDbLinetypeTableRecord
  2
DASHDOTX2
 70
    0
  3
Dash dot (2x) ____  .  ____  .  ____  .  ___
 72
   65
 73
    4
 40
50.8
 49
25.4
 74
    0
 49
-12.7
 74
    0
 49
0
 74
    0
 49
-12.7
 74
    0
  0
LTYPE
  5
3E
330
5
100
AcDbSymbolTableRecord
100
AcDbLinetypeTableRecord
  2
DIVIDE
 70
    0
  3
Divide ____ . . ____ . . ____ . . ____ . . ____
 72
   65
 73
    6
 40
31.75
 49
12.7
 74
    0
 49
-6.35
 74
    0
 49
0
 74
    0
 49
-6.35
 74
    0
 49
0
 74
    0
 49
-6.35
 74
    0
  0
LTYPE
  5
3F
330
5
100
AcDbSymbolTableRecord
100
AcDbLinetypeTableRecord
  2
DIVIDETINY
 70
    0
  3
Divide (.15x) __..__..__..__..__..__..__..__.._
 72
   65
 73
    6
 40
4.7625
 49
1.905
 74
    0
 49
-0.9525
 74
    0
 49
0
 74
    0
 49
-0.9525
 74
    0
 49
0
 74
    0
 49
-0.9525
 74
    0
  0
LTYPE
  5
40
330
5
100
AcDbSymbolTableRecord
100
AcDbLinetypeTableRecord
  2
DIVIDE2
 70
    0
  3
Divide (.5x) __..__..__..__..__..__..__..__.._
 72
   65
 73
    6
 40
15.875
 49
6.35
 74
    0
 49
-3.175
 74
    0
 49
0
 74
    0
 49
-3.175
 74
    0
 49
0
 74
    0
 49
-3.175
 74
    0
  0
LTYPE
  5
41
330
5
100
AcDbSymbolTableRecord
100
AcDbLinetypeTableRecord
  2
DIVIDEX2
 70
    0
  3
Divide (2x) ________  .  .  ________  .  .  _
 72
   65
 73
    6
 40
63.5
 49
25.4
 74
    0
 49
-12.7
 74
    0
 49
0
 74
    0
 49
-12.7
 74
    0
 49
0
 74
    0
 49
-12.7
 74
    0
  0
LTYPE
  5
42
330
5
100
AcDbSymbolTableRecord
100
AcDbLinetypeTableRecord
  2
BORDER
 70
    0
  3
Border __ __ . __ __ . __ __ . __ __ . __ __ .
 72
   65
 73
    6
 40
44.45
 49
12.7
 74
    0
 49
-6.35
 74
    0
 49
12.7
 74
    0
 49
-6.35
 74
    0
 49
0
 74
    0
 49
-6.35
 74
    0
  0
LTYPE
  5
43
330
5
100
AcDbSymbolTableRecord
100
AcDbLinetypeTableRecord
  2
BORDERTINY
 70
    0
  3
Border (.15x) __.__.__.__.__.__.__.__.__.__.__.
 72
   65
 73
    6
 40
6.6675
 49
1.905
 74
    0
 49
-0.9525
 74
    0
 49
1.905
 74
    0
 49
-0.9525
 74
    0
 49
0
 74
    0
 49
-0.9525
 74
    0
  0
LTYPE
  5
44
330
5
100
AcDbSymbolTableRecord
100
AcDbLinetypeTableRecord
  2
BORDER2
 70
    0
  3
Border (.5x) __.__.__.__.__.__.__.__.__.__.__.
 72
   65
 73
    6
 40
22.225
 49
6.35
 74
    0
 49
-3.175
 74
    0
 49
6.35
 74
    0
 49
-3.175
 74
    0
 49
0
 74
    0
 49
-3.175
 74
    0
  0
LTYPE
  5
45
330
5
100
AcDbSymbolTableRecord
100
AcDbLinetypeTableRecord
  2
BORDERX2
 70
    0
  3
Border (2x) ____  ____  .  ____  ____  .  ___
 72
   65
 73
    6
 40
88.89999999999999
 49
25.4
 74
    0
 49
-12.7
 74
    0
 49
25.4
 74
    0
 49
-12.7
 74
    0
 49
0
 74
    0
 49
-12.7
 74
    0
  0
LTYPE
  5
46
330
5
100
AcDbSymbolTableRecord
100
AcDbLinetypeTableRecord
  2
CENTER
 70
    0
  3
Center ____ _ ____ _ ____ _ ____ _ ____ _ ____
 72
   65
 73
    4
 40
50.8
 49
31.75
 74
    0
 49
-6.35
 74
    0
 49
6.35
 74
    0
 49
-6.35
 74
    0
  0
LTYPE
  5
47
330
5
100
AcDbSymbolTableRecord
100
AcDbLinetypeTableRecord
  2
CENTERTINY
 70
    0
  3
Center (.15x) ___ _ ___ _ ___ _ ___ _ ___ _ ___
 72
   65
 73
    4
 40
7.619999999999999
 49
4.7625
 74
    0
 49
-0.9525
 74
    0
 49
0.9525
 74
    0
 49
-0.9525
 74
    0
  0
LTYPE
  5
48
330
5
100
AcDbSymbolTableRecord
100
AcDbLinetypeTableRecord
  2
CENTER2
 70
    0
  3
Center (.5x) ___ _ ___ _ ___ _ ___ _ ___ _ ___
 72
   65
 73
    4
 40
28.575
 49
19.05
 74
    0
 49
-3.175
 74
    0
 49
3.175
 74
    0
 49
-3.175
 74
    0
  0
LTYPE
  5
49
330
5
100
AcDbSymbolTableRecord
100
AcDbLinetypeTableRecord
  2
CENTERX2
 70
    0
  3
Center (2x) ________  __  ________  __  _____
 72
   65
 73
    4
 40
101.6
 49
63.5
 74
    0
 49
-12.7
 74
    0
 49
12.7
 74
    0
 49
-12.7
 74
    0
  0
ENDTAB
  0
TABLE
  2
LAYER
  5
2
330
0
100
AcDbSymbolTable
 70
    1
  0
LAYER
  5
10
330
2
100
AcDbSymbolTableRecord
100
AcDbLayerTableRecord
  2
0
 70
    0
 62
    7
  6
CONTINUOUS
370
   -3
390
F
  0
LAYER
  5
4A
330
2
100
AcDbSymbolTableRecord
100
AcDbLayerTableRecord
  2
DADO
 70
    0
 62
    7
  6
CONTINUOUS
370
   -3
390
F
  0
LAYER
  5
4B
330
2
100
AcDbSymbolTableRecord
100
AcDbLayerTableRecord
  2
DROP_DOOR
 70
    4
 62
    3
  6
CONTINUOUS
370
   -3
390
F
  0
LAYER
  5
4C
330
2
100
AcDbSymbolTableRecord
100
AcDbLayerTableRecord
  2
FMS_ANNOTATION
 70
    0
 62
    7
  6
CONTINUOUS
370
   -3
390
F
  0
LAYER
  5
4D
330
2
100
AcDbSymbolTableRecord
100
AcDbLayerTableRecord
  2
FMS_CONSTR
 70
    0
 62
    3
  6
CONTINUOUS
370
   -3
390
F
  0
LAYER
  5
4E
330
2
100
AcDbSymbolTableRecord
100
AcDbLayerTableRecord
  2
JUNK
 70
    0
 62
    3
  6
CONTINUOUS
370
   -3
390
F
  0
LAYER
  5
4F
330
2
100
AcDbSymbolTableRecord
100
AcDbLayerTableRecord
  2
LUR
 70
    0
 62
    3
  6
CONTINUOUS
370
   -3
390
F
  0
LAYER
  5
50
330
2
100
AcDbSymbolTableRecord
100
AcDbLayerTableRecord
  2
NEST
 70
    0
 62
    3
  6
CONTINUOUS
370
   -3
390
F
  0
LAYER
  5
51
330
2
100
AcDbSymbolTableRecord
100
AcDbLayerTableRecord
  2
OBJ
 70
    0
 62
    1
  6
CONTINUOUS
370
   -3
390
F
  0
LAYER
  5
52
330
2
100
AcDbSymbolTableRecord
100
AcDbLayerTableRecord
  2
PLATE
 70
    0
 62
    3
  6
CONTINUOUS
370
   -3
390
F
  0
LAYER
  5
53
330
2
100
AcDbSymbolTableRecord
100
AcDbLayerTableRecord
  2
SLUG_AND_UNTOOLED
 70
    0
 62
    3
  6
CONTINUOUS
370
   -3
390
F
  0
LAYER
  5
54
330
2
100
AcDbSymbolTableRecord
100
AcDbLayerTableRecord
  2
T0000
 70
    0
 62
  256
  6
CONTINUOUS
370
   -3
390
F
  0
LAYER
  5
55
330
2
100
AcDbSymbolTableRecord
100
AcDbLayerTableRecord
  2
T0000_THICK
 70
    0
 62
    3
  6
CONTINUOUS
370
   -3
390
F
  0
ENDTAB
  0
TABLE
  2
STYLE
  5
3
330
0
100
AcDbSymbolTable
 70
    3
  0
STYLE
  5
56
330
2
100
AcDbSymbolTableRecord
100
AcDbTextStyleTableRecord
  2
Standard
 70
    0
 40
0
 41
1
 50
0
 71
    0
 42
1
  3
txt
  4

  0
ENDTAB
  0
TABLE
  2
VIEW
  5
6
330
0
100
AcDbSymbolTable
 70
    0
  0
ENDTAB
  0
TABLE
  2
UCS
  5
7
330
0
100
AcDbSymbolTable
 70
    0
  0
ENDTAB
  0
TABLE
  2
APPID
  5
9
330
0
100
AcDbSymbolTable
 70
    1
  0
APPID
  5
12
330
9
100
AcDbSymbolTableRecord
100
AcDbRegAppTableRecord
  2
ACAD
 70
    0
  0
APPID
  5
57
330
9
100
AcDbSymbolTableRecord
100
AcDbRegAppTableRecord
  2
LibreCad
 70
    0
  0
ENDTAB
  0
TABLE
  2
DIMSTYLE
  5
A
330
0
100
AcDbSymbolTable
 70
    1
100
AcDbDimStyleTable
 71
    1
  0
DIMSTYLE
105
58
330
A
100
AcDbSymbolTableRecord
100
AcDbDimStyleTableRecord
  2
Standard
 70
    0
 40
1
 41
2.5
 42
0.625
 43
0.38
 44
1.25
 45
0
 46
0
 47
0
 48
0
 49
1
140
2.5
141
0.09
142
0
143
25.4
144
1
145
0
146
1
147
0.625
148
0
 71
    0
 72
    0
 73
    0
 74
    1
 75
    0
 76
    0
 77
    0
 78
    8
 79
    0
170
    0
171
    2
172
    0
173
    0
174
    0
175
    0
176
    0
177
    0
178
    0
179
    0
271
    2
272
    4
273
    2
274
    2
275
    0
276
    0
277
    2
278
   44
279
    0
280
    0
281
    0
282
    0
283
    1
284
    0
285
    0
286
    0
288
    0
289
    3
340
STANDARD
341

371
   -2
372
   -2
  0
ENDTAB
  0
TABLE
  2
BLOCK_RECORD
  5
1
330
0
100
AcDbSymbolTable
 70
    2
  0
BLOCK_RECORD
  5
1F
330
1
100
AcDbSymbolTableRecord
100
AcDbBlockTableRecord
  2
*Model_Space
 70
    0
280
    1
281
    0
  0
BLOCK_RECORD
  5
1E
330
1
100
AcDbSymbolTableRecord
100
AcDbBlockTableRecord
  2
*Paper_Space
 70
    0
280
    1
281
    0
  0
BLOCK_RECORD
  5
59
330
1
100
AcDbSymbolTableRecord
100
AcDbBlockTableRecord
  2
_OBLIQUE
 70
    0
280
    1
281
    0
  0
BLOCK_RECORD
  5
5C
330
1
100
AcDbSymbolTableRecord
100
AcDbBlockTableRecord
  2
_DOT
 70
    0
280
    1
281
    0
  0
BLOCK_RECORD
  5
5F
330
1
100
AcDbSymbolTableRecord
100
AcDbBlockTableRecord
  2
KZ2_2052_3TERMO_ELEM000001
 70
    0
280
    1
281
    0
  0
BLOCK_RECORD
  5
62
330
1
100
AcDbSymbolTableRecord
100
AcDbBlockTableRecord
  2
KZ2_2052_3TERMO_ELEM000002
 70
    0
280
    1
281
    0
  0
BLOCK_RECORD
  5
65
330
1
100
AcDbSymbolTableRecord
100
AcDbBlockTableRecord
  2
KZ2_2052_3TERMO_ELEM000003
 70
    0
280
    1
281
    0
  0
BLOCK_RECORD
  5
68
330
1
100
AcDbSymbolTableRecord
100
AcDbBlockTableRecord
  2
KZ2_2052_3TERMO_ELEM000004
 70
    0
280
    1
281
    0
  0
BLOCK_RECORD
  5
6B
330
1
100
AcDbSymbolTableRecord
100
AcDbBlockTableRecord
  2
KZ2_2052_3TERMO_ELEM000005
 70
    0
280
    1
281
    0
  0
BLOCK_RECORD
  5
6E
330
1
100
AcDbSymbolTableRecord
100
AcDbBlockTableRecord
  2
KZ2_2052_3TERMO_ELEM000006
 70
    0
280
    1
281
    0
  0
BLOCK_RECORD
  5
71
330
1
100
AcDbSymbolTableRecord
100
AcDbBlockTableRecord
  2
KZ2_2052_3TERMO_ELEM000007
 70
    0
280
    1
281
    0
  0
BLOCK_RECORD
  5
74
330
1
100
AcDbSymbolTableRecord
100
AcDbBlockTableRecord
  2
KZ2_2052_3TERMO_ELEM000008
 70
    0
280
    1
281
    0
  0
BLOCK_RECORD
  5
77
330
1
100
AcDbSymbolTableRecord
100
AcDbBlockTableRecord
  2
KZ2_2052_3TERMO_ELEM000009
 70
    0
280
    1
281
    0
  0
BLOCK_RECORD
  5
7A
330
1
100
AcDbSymbolTableRecord
100
AcDbBlockTableRecord
  2
KZ2_2052_3TERMO_ELEM000010
 70
    0
280
    1
281
    0
  0
BLOCK_RECORD
  5
7D
330
1
100
AcDbSymbolTableRecord
100
AcDbBlockTableRecord
  2
KZ2_2052_3TERMO_ELEM000011
 70
    0
280
    1
281
    0
  0
BLOCK_RECORD
  5
80
330
1
100
AcDbSymbolTableRecord
100
AcDbBlockTableRecord
  2
KZ2_2052_3TERMO_ELEM000012
 70
    0
280
    1
281
    0
  0
BLOCK_RECORD
  5
83
330
1
100
AcDbSymbolTableRecord
100
AcDbBlockTableRecord
  2
KZ2_2052_3TERMO_ELEM000013
 70
    0
280
    1
281
    0
  0
BLOCK_RECORD
  5
86
330
1
100
AcDbSymbolTableRecord
100
AcDbBlockTableRecord
  2
KZ2_2052_3TERMO_ELEM000014
 70
    0
280
    1
281
    0
  0
BLOCK_RECORD
  5
89
330
1
100
AcDbSymbolTableRecord
100
AcDbBlockTableRecord
  2
KZ2_2052_3TERMO_ELEM000015
 70
    0
280
    1
281
    0
  0
BLOCK_RECORD
  5
8C
330
1
100
AcDbSymbolTableRecord
100
AcDbBlockTableRecord
  2
KZ2_2052_3TERMO_ELEM000016
 70
    0
280
    1
281
    0
  0
BLOCK_RECORD
  5
8F
330
1
100
AcDbSymbolTableRecord
100
AcDbBlockTableRecord
  2
KZ2_2052_3TERMO_ELEM000017
 70
    0
280
    1
281
    0
  0
BLOCK_RECORD
  5
92
330
1
100
AcDbSymbolTableRecord
100
AcDbBlockTableRecord
  2
KZ2_2052_3TERMO_ELEM000018
 70
    0
280
    1
281
    0
  0
BLOCK_RECORD
  5
95
330
1
100
AcDbSymbolTableRecord
100
AcDbBlockTableRecord
  2
KZ2_2052_3TERMO_ELEM000019
 70
    0
280
    1
281
    0
  0
BLOCK_RECORD
  5
98
330
1
100
AcDbSymbolTableRecord
100
AcDbBlockTableRecord
  2
KZ2_2052_3TERMO_ELEM000020
 70
    0
280
    1
281
    0
  0
BLOCK_RECORD
  5
9B
330
1
100
AcDbSymbolTableRecord
100
AcDbBlockTableRecord
  2
KZ2_2052_3TERMO_ELEM000021
 70
    0
280
    1
281
    0
  0
BLOCK_RECORD
  5
9E
330
1
100
AcDbSymbolTableRecord
100
AcDbBlockTableRecord
  2
KZ2_2052_3TERMO_ELEM000022
 70
    0
280
    1
281
    0
  0
BLOCK_RECORD
  5
A1
330
1
100
AcDbSymbolTableRecord
100
AcDbBlockTableRecord
  2
KZ2_2052_3TERMO_ELEM000023
 70
    0
280
    1
281
    0
  0
BLOCK_RECORD
  5
A4
330
1
100
AcDbSymbolTableRecord
100
AcDbBlockTableRecord
  2
KZ2_2052_3TERMO_ELEM000024
 70
    0
280
    1
281
    0
  0
BLOCK_RECORD
  5
A7
330
1
100
AcDbSymbolTableRecord
100
AcDbBlockTableRecord
  2
KZ2_2052_3TERMO_ELEM000025
 70
    0
280
    1
281
    0
  0
BLOCK_RECORD
  5
AA
330
1
100
AcDbSymbolTableRecord
100
AcDbBlockTableRecord
  2
KZ2_2052_3TERMO_ELEM000026
 70
    0
280
    1
281
    0
  0
BLOCK_RECORD
  5
AD
330
1
100
AcDbSymbolTableRecord
100
AcDbBlockTableRecord
  2
KZ2_2052_3TERMO_ELEM000027
 70
    0
280
    1
281
    0
  0
BLOCK_RECORD
  5
B0
330
1
100
AcDbSymbolTableRecord
100
AcDbBlockTableRecord
  2
KZ2_2052_3TERMO_ELEM000028
 70
    0
280
    1
281
    0
  0
BLOCK_RECORD
  5
B3
330
1
100
AcDbSymbolTableRecord
100
AcDbBlockTableRecord
  2
KZ2_2052_3TERMO_ELEM000029
 70
    0
280
    1
281
    0
  0
BLOCK_RECORD
  5
B6
330
1
100
AcDbSymbolTableRecord
100
AcDbBlockTableRecord
  2
KZ2_2052_3TERMO_ELEM000030
 70
    0
280
    1
281
    0
  0
BLOCK_RECORD
  5
B9
330
1
100
AcDbSymbolTableRecord
100
AcDbBlockTableRecord
  2
KZ2_2052_3TERMO_ELEM000031
 70
    0
280
    1
281
    0
  0
ENDTAB
  0
ENDSEC
  0
SECTION
  2
BLOCKS
  0
BLOCK
  5
20
330
1F
100
AcDbEntity
  8
0
100
AcDbBlockBegin
  2
*Model_Space
 70
    0
 10
0
 20
0
 30
0
  3
*Model_Space
  1

  0
ENDBLK
  5
21
330
1F
100
AcDbEntity
  8
0
100
AcDbBlockEnd
  0
BLOCK
  5
1C
330
1B
100
AcDbEntity
  8
0
100
AcDbBlockBegin
  2
*Paper_Space
 70
    0
 10
0
 20
0
 30
0
  3
*Paper_Space
  1

  0
ENDBLK
  5
1D
330
1F
100
AcDbEntity
  8
0
100
AcDbBlockEnd
  0
BLOCK
  5
5A
330
59
100
AcDbEntity
  8
0
100
AcDbBlockBegin
  2
_OBLIQUE
 70
    0
 10
0
 20
0
  3
_OBLIQUE
  1

  0
LINE
  5
BC
100
AcDbEntity
  8
0
  6
ByBlock
 62
    0
370
   -1
100
AcDbLine
 10
-0.5
 20
-0.5
 11
0.5
 21
0.5
  0
ENDBLK
  5
5B
330
59
100
AcDbEntity
  8
0
100
AcDbBlockEnd
  0
BLOCK
  5
5D
330
5C
100
AcDbEntity
  8
0
100
AcDbBlockBegin
  2
_DOT
 70
    0
 10
0
 20
0
  3
_DOT
  1

  0
LWPOLYLINE
  5
BD
100
AcDbEntity
  8
0
  6
ByBlock
 62
    0
370
   -1
100
AcDbPolyline
 90
    2
 70
    1
 43
0
 10
-0.25
 20
4.592425496802574e-17
 42
0.9999999999999999
 10
0.25
 20
2.296212748401287e-17
 42
0.9999999999999999
  0
LINE
  5
BE
100
AcDbEntity
  8
0
  6
ByBlock
 62
    0
370
   -1
100
AcDbLine
 10
-0.5
 20
0
 11
-1
 21
0
  0
ENDBLK
  5
5E
330
5C
100
AcDbEntity
  8
0
100
AcDbBlockEnd
  0
BLOCK
  5
60
330
5F
100
AcDbEntity
  8
0
100
AcDbBlockBegin
  2
KZ2_2052_3TERMO_ELEM000001
 70
    0
 10
0
 20
0
  3
KZ2_2052_3TERMO_ELEM000001
  1

  0
LINE
  5
BF
100
AcDbEntity
  8
0
  6
CONTINUOUS
 62
  133
370
   -1
100
AcDbLine
 10
-140.2654860748
 20
952.5
 11
-140.2654850748
 21
952.5
  0
LINE
  5
C0
100
AcDbEntity
  8
T0000
  6
CONTINUOUS
 62
   92
370
   -1
100
AcDbLine
 10
-140.2654860748
 20
952.5
 11
-141.0904860748
 21
952.5
  0
LINE
  5
C1
100
AcDbEntity
  8
T0000
  6
CONTINUOUS
 62
   92
370
   -1
100
AcDbLine
 10
-140.2654860748
 20
952.5
 11
-139.4404860748
 21
952.5
  0
LINE
  5
C2
100
AcDbEntity
  8
T0000
  6
CONTINUOUS
 62
   92
370
   -1
100
AcDbLine
 10
-140.2654860748
 20
951.675
 11
-140.2654860748
 21
953.325
  0
CIRCLE
  5
C3
100
AcDbEntity
  8
T0000
  6
CONTINUOUS
 62
  150
370
   -1
100
AcDbCircle
 10
-140.2654860748
 20
952.5
 40
1.650000000000006
  0
ENDBLK
  5
61
330
5F
100
AcDbEntity
  8
0
100
AcDbBlockEnd
  0
BLOCK
  5
63
330
62
100
AcDbEntity
  8
0
100
AcDbBlockBegin
  2
KZ2_2052_3TERMO_ELEM000002
 70
    0
 10
0
 20
0
  3
KZ2_2052_3TERMO_ELEM000002
  1

  0
LINE
  5
C4
100
AcDbEntity
  8
0
  6
CONTINUOUS
 62
  133
370
   -1
100
AcDbLine
 10
-140.2654860748
 20
-932.5
 11
-140.2654850748
 21
-932.5
  0
LINE
  5
C5
100
AcDbEntity
  8
T0000
  6
CONTINUOUS
 62
   92
370
   -1
100
AcDbLine
 10
-140.2654860748
 20
-932.5
 11
-142.3904860748
 21
-932.5
  0
LINE
  5
C6
100
AcDbEntity
  8
T0000
  6
CONTINUOUS
 62
   92
370
   -1
100
AcDbLine
 10
-140.2654860748
 20
-932.5
 11
-138.1404860748
 21
-932.5
  0
LINE
  5
C7
100
AcDbEntity
  8
T0000
  6
CONTINUOUS
 62
   92
370
   -1
100
AcDbLine
 10
-140.2654860748
 20
-934.625
 11
-140.2654860748
 21
-930.375
  0
CIRCLE
  5
C8
100
AcDbEntity
  8
T0000
  6
CONTINUOUS
 62
  150
370
   -1
100
AcDbCircle
 10
-140.2654860748
 20
-932.5
 40
4.25
  0
ENDBLK
  5
64
330
62
100
AcDbEntity
  8
0
100
AcDbBlockEnd
  0
BLOCK
  5
66
330
65
100
AcDbEntity
  8
0
100
AcDbBlockBegin
  2
KZ2_2052_3TERMO_ELEM000003
 70
    0
 10
0
 20
0
  3
KZ2_2052_3TERMO_ELEM000003
  1

  0
LINE
  5
C9
100
AcDbEntity
  8
0
  6
CONTINUOUS
 62
  133
370
   -1
100
AcDbLine
 10
-140.2654860748
 20
-315.8333333333
 11
-140.2654850748
 21
-315.8333333333
  0
LINE
  5
CA
100
AcDbEntity
  8
T0000
  6
CONTINUOUS
 62
   92
370
   -1
100
AcDbLine
 10
-140.2654860748
 20
-315.8333333333
 11
-142.3904860748
 21
-315.8333333333
  0
LINE
  5
CB
100
AcDbEntity
  8
T0000
  6
CONTINUOUS
 62
   92
370
   -1
100
AcDbLine
 10
-140.2654860748
 20
-315.8333333333
 11
-138.1404860748
 21
-315.8333333333
  0
LINE
  5
CC
100
AcDbEntity
  8
T0000
  6
CONTINUOUS
 62
   92
370
   -1
100
AcDbLine
 10
-140.2654860748
 20
-317.9583333333
 11
-140.2654860748
 21
-313.7083333333
  0
CIRCLE
  5
CD
100
AcDbEntity
  8
T0000
  6
CONTINUOUS
 62
  150
370
   -1
100
AcDbCircle
 10
-140.2654860748
 20
-315.8333333333
 40
4.25
  0
ENDBLK
  5
67
330
65
100
AcDbEntity
  8
0
100
AcDbBlockEnd
  0
BLOCK
  5
69
330
68
100
AcDbEntity
  8
0
100
AcDbBlockBegin
  2
KZ2_2052_3TERMO_ELEM000004
 70
    0
 10
0
 20
0
  3
KZ2_2052_3TERMO_ELEM000004
  1

  0
LINE
  5
CE
100
AcDbEntity
  8
0
  6
CONTINUOUS
 62
  133
370
   -1
100
AcDbLine
 10
-140.2654860748
 20
300.8333333333
 11
-140.2654850748
 21
300.8333333333
  0
LINE
  5
CF
100
AcDbEntity
  8
T0000
  6
CONTINUOUS
 62
   92
370
   -1
100
AcDbLine
 10
-140.2654860748
 20
300.8333333333
 11
-142.3904860748
 21
300.8333333333
  0
LINE
  5
D0
100
AcDbEntity
  8
T0000
  6
CONTINUOUS
 62
   92
370
   -1
100
AcDbLine
 10
-140.2654860748
 20
300.8333333333
 11
-138.1404860748
 21
300.8333333333
  0
LINE
  5
D1
100
AcDbEntity
  8
T0000
  6
CONTINUOUS
 62
   92
370
   -1
100
AcDbLine
 10
-140.2654860748
 20
298.7083333333
 11
-140.2654860748
 21
302.9583333333
  0
CIRCLE
  5
D2
100
AcDbEntity
  8
T0000
  6
CONTINUOUS
 62
  150
370
   -1
100
AcDbCircle
 10
-140.2654860748
 20
300.8333333333
 40
4.25
  0
ENDBLK
  5
6A
330
68
100
AcDbEntity
  8
0
100
AcDbBlockEnd
  0
BLOCK
  5
6C
330
6B
100
AcDbEntity
  8
0
100
AcDbBlockBegin
  2
KZ2_2052_3TERMO_ELEM000005
 70
    0
 10
0
 20
0
  3
KZ2_2052_3TERMO_ELEM000005
  1

  0
LINE
  5
D3
100
AcDbEntity
  8
0
  6
CONTINUOUS
 62
  133
370
   -1
100
AcDbLine
 10
-140.2654860748
 20
917.5
 11
-140.2654850748
 21
917.5
  0
LINE
  5
D4
100
AcDbEntity
  8
T0000
  6
CONTINUOUS
 62
   92
370
   -1
100
AcDbLine
 10
-140.2654860748
 20
917.5
 11
-142.3904860748
 21
917.5
  0
LINE
  5
D5
100
AcDbEntity
  8
T0000
  6
CONTINUOUS
 62
   92
370
   -1
100
AcDbLine
 10
-140.2654860748
 20
917.5
 11
-138.1404860748
 21
917.5
  0
LINE
  5
D6
100
AcDbEntity
  8
T0000
  6
CONTINUOUS
 62
   92
370
   -1
100
AcDbLine
 10
-140.2654860748
 20
915.375
 11
-140.2654860748
 21
919.625
  0
CIRCLE
  5
D7
100
AcDbEntity
  8
T0000
  6
CONTINUOUS
 62
  150
370
   -1
100
AcDbCircle
 10
-140.2654860748
 20
917.5
 40
4.25
  0
ENDBLK
  5
6D
330
6B
100
AcDbEntity
  8
0
100
AcDbBlockEnd
  0
BLOCK
  5
6F
330
6E
100
AcDbEntity
  8
0
100
AcDbBlockBegin
  2
KZ2_2052_3TERMO_ELEM000006
 70
    0
 10
0
 20
0
  3
KZ2_2052_3TERMO_ELEM000006
  1

  0
LINE
  5
D8
100
AcDbEntity
  8
0
  6
CONTINUOUS
 62
  133
370
   -1
100
AcDbLine
 10
-148.5653974704707
 20
1012.043019757657
 11
-148.5653964704707
 21
1012.043019757657
  0
LINE
  5
D9
100
AcDbEntity
  8
T0000
  6
CONTINUOUS
 62
   92
370
   -1
100
AcDbLine
 10
-148.5653974704707
 20
1012.043019757657
 11
-127.2835217847446
 21
990.7605880173834
  0
LWPOLYLINE
  5
DA
100
AcDbEntity
  8
T0000
  6
CONTINUOUS
 62
   92
370
   -1
100
AcDbPolyline
 90
    3
 70
    1
 43
0
 10
-135.8031669968807
 20
999.2804558314898
 10
-138.9850782303195
 20
1004.583798258914
 42
-0.3999999999999892
 10
-141.1064262863497
 20
1002.462505628187
  0
LINE
  5
DB
100
AcDbEntity
  8
T0000
  6
CONTINUOUS
 62
  150
370
   -1
100
AcDbLine
 10
-159.525549000896
 20
1018.76054001666
 11
-155.2829060540102
 21
1023.003178444011
  0
LINE
  5
DC
100
AcDbEntity
  8
T0000
  6
CONTINUOUS
 62
  150
370
   -1
100
AcDbLine
 10
-155.2829060540102
 20
1023.003178444011
 11
-137.6052459400454
 21
1005.325499498654
  0
LINE
  5
DD
100
AcDbEntity
  8
T0000
  6
CONTINUOUS
 62
  150
370
   -1
100
AcDbLine
 10
-137.6052459400454
 20
1005.325499498654
 11
-141.8478888869313
 21
1001.082861071302
  0
LINE
  5
DE
100
AcDbEntity
  8
T0000
  6
CONTINUOUS
 62
  150
370
   -1
100
AcDbLine
 10
-141.8478888869313
 20
1001.082861071302
 11
-159.525549000896
 21
1018.76054001666
  0
LINE
  5
DF
100
AcDbEntity
  8
T0000
  6
CONTINUOUS
 62
  150
370
   -1
100
AcDbLine
 10
-138.2436733151698
 20
997.4781082763864
 11
-134.001030368284
 21
1001.720746703738
  0
LINE
  5
E0
100
AcDbEntity
  8
T0000
  6
CONTINUOUS
 62
  150
370
   -1
100
AcDbLine
 10
-134.001030368284
 20
1001.720746703738
 11
-116.3233702543193
 21
984.0430677583804
  0
LINE
  5
E1
100
AcDbEntity
  8
T0000
  6
CONTINUOUS
 62
  150
370
   -1
100
AcDbLine
 10
-116.3233702543193
 20
984.0430677583804
 11
-120.5660132012051
 21
979.8004293310288
  0
LINE
  5
E2
100
AcDbEntity
  8
T0000
  6
CONTINUOUS
 62
  150
370
   -1
100
AcDbLine
 10
-120.5660132012051
 20
979.8004293310288
 11
-138.2436733151698
 21
997.4781082763864
  0
ENDBLK
  5
70
330
6E
100
AcDbEntity
  8
0
100
AcDbBlockEnd
  0
BLOCK
  5
72
330
71
100
AcDbEntity
  8
0
100
AcDbBlockBegin
  2
KZ2_2052_3TERMO_ELEM000007
 70
    0
 10
0
 20
0
  3
KZ2_2052_3TERMO_ELEM000007
  1

  0
LINE
  5
E3
100
AcDbEntity
  8
0
  6
CONTINUOUS
 62
  133
370
   -1
100
AcDbLine
 10
-108.1491
 20
982.5
 11
-108.149099
 21
982.5
  0
LINE
  5
E4
100
AcDbEntity
  8
T0000
  6
CONTINUOUS
 62
   92
370
   -1
100
AcDbLine
 10
-108.1491
 20
982.5
 11
-109.6491
 21
982.5
  0
LINE
  5
E5
100
AcDbEntity
  8
T0000
  6
CONTINUOUS
 62
   92
370
   -1
100
AcDbLine
 10
-108.1491
 20
982.5
 11
-106.6491
 21
982.5
  0
LINE
  5
E6
100
AcDbEntity
  8
T0000
  6
CONTINUOUS
 62
   92
370
   -1
100
AcDbLine
 10
-108.1491
 20
981
 11
-108.1491
 21
984
  0
LINE
  5
E7
100
AcDbEntity
  8
T0000
  6
CONTINUOUS
 62
  150
370
   -1
100
AcDbLine
 10
-120.6491
 20
979.5
 11
-120.6491
 21
985.5
  0
LINE
  5
E8
100
AcDbEntity
  8
T0000
  6
CONTINUOUS
 62
  150
370
   -1
100
AcDbLine
 10
-120.6491
 20
985.5
 11
-95.6491
 21
985.5
  0
LINE
  5
E9
100
AcDbEntity
  8
T0000
  6
CONTINUOUS
 62
  150
370
   -1
100
AcDbLine
 10
-95.6491
 20
985.5
 11
-95.6491
 21
979.5
  0
LINE
  5
EA
100
AcDbEntity
  8
T0000
  6
CONTINUOUS
 62
  150
370
   -1
100
AcDbLine
 10
-95.6491
 20
979.5
 11
-120.6491
 21
979.5
  0
ENDBLK
  5
73
330
71
100
AcDbEntity
  8
0
100
AcDbBlockEnd
  0
BLOCK
  5
75
330
74
100
AcDbEntity
  8
0
100
AcDbBlockBegin
  2
KZ2_2052_3TERMO_ELEM000008
 70
    0
 10
0
 20
0
  3
KZ2_2052_3TERMO_ELEM000008
  1

  0
LINE
  5
EB
100
AcDbEntity
  8
0
  6
CONTINUOUS
 62
  133
370
   -1
100
AcDbLine
 10
-90.67302757496672
 20
974.7828875749668
 11
-90.67302657496673
 21
974.7828875749668
  0
LINE
  5
EC
100
AcDbEntity
  8
T0000
  6
CONTINUOUS
 62
   92
370
   -1
100
AcDbLine
 10
-90.67302757496672
 20
974.7828875749668
 11
-92.17302757496672
 21
974.7828875749668
  0
LINE
  5
ED
100
AcDbEntity
  8
T0000
  6
CONTINUOUS
 62
   92
370
   -1
100
AcDbLine
 10
-90.67302757496672
 20
974.7828875749668
 11
-89.17302757496672
 21
974.7828875749668
  0
LINE
  5
EE
100
AcDbEntity
  8
T0000
  6
CONTINUOUS
 62
   92
370
   -1
100
AcDbLine
 10
-90.67302757496672
 20
973.2828875749668
 11
-90.67302757496672
 21
976.2828875749668
  0
LINE
  5
EF
100
AcDbEntity
  8
T0000
  6
CONTINUOUS
 62
  150
370
   -1
100
AcDbLine
 10
-101.6331768212168
 20
981.5004115607762
 11
-97.39053243169663
 21
985.7430485454914
  0
LINE
  5
F0
100
AcDbEntity
  8
T0000
  6
CONTINUOUS
 62
  150
370
   -1
100
AcDbLine
 10
-97.39053243169663
 20
985.7430485454914
 11
-79.71287832871667
 21
968.0653635891574
  0
LINE
  5
F1
100
AcDbEntity
  8
T0000
  6
CONTINUOUS
 62
  150
370
   -1
100
AcDbLine
 10
-79.71287832871667
 20
968.0653635891574
 11
-83.95552271823682
 21
963.8227266044422
  0
LINE
  5
F2
100
AcDbEntity
  8
T0000
  6
CONTINUOUS
 62
  150
370
   -1
100
AcDbLine
 10
-83.95552271823682
 20
963.8227266044422
 11
-101.6331768212168
 21
981.5004115607762
  0
ENDBLK
  5
76
330
74
100
AcDbEntity
  8
0
100
AcDbBlockEnd
  0
BLOCK
  5
78
330
77
100
AcDbEntity
  8
0
100
AcDbBlockBegin
  2
KZ2_2052_3TERMO_ELEM000009
 70
    0
 10
0
 20
0
  3
KZ2_2052_3TERMO_ELEM000009
  1

  0
LINE
  5
F3
100
AcDbEntity
  8
0
  6
CONTINUOUS
 62
  133
370
   -1
100
AcDbLine
 10
-79.01636999999999
 20
968.5
 11
-79.016369
 21
968.5
  0
LINE
  5
F4
100
AcDbEntity
  8
T0000
  6
CONTINUOUS
 62
   92
370
   -1
100
AcDbLine
 10
-79.01636999999999
 20
968.5
 11
-60.61637
 21
968.5
  0
LWPOLYLINE
  5
F5
100
AcDbEntity
  8
T0000
  6
CONTINUOUS
 62
   92
370
   -1
100
AcDbPolyline
 90
    3
 70
    1
 43
0
 10
-66.74970339691161
 20
968.5
 10
-72.88303660308839
 20
970.0333333015442
 42
-0.3999999999999995
 10
-72.88303660308839
 20
966.9666666984558
  0
LINE
  5
F6
100
AcDbEntity
  8
T0000
  6
CONTINUOUS
 62
  150
370
   -1
100
AcDbLine
 10
-84.01636999999999
 20
963.5
 11
-84.01636999999999
 21
973.5
  0
LINE
  5
F7
100
AcDbEntity
  8
T0000
  6
CONTINUOUS
 62
  150
370
   -1
100
AcDbLine
 10
-84.01636999999999
 20
973.5
 11
-74.01636999999999
 21
973.5
  0
LINE
  5
F8
100
AcDbEntity
  8
T0000
  6
CONTINUOUS
 62
  150
370
   -1
100
AcDbLine
 10
-74.01636999999999
 20
973.5
 11
-74.01636999999999
 21
963.5
  0
LINE
  5
F9
100
AcDbEntity
  8
T0000
  6
CONTINUOUS
 62
  150
370
   -1
100
AcDbLine
 10
-74.01636999999999
 20
963.5
 11
-84.01636999999999
 21
963.5
  0
LINE
  5
FA
100
AcDbEntity
  8
T0000
  6
CONTINUOUS
 62
  150
370
   -1
100
AcDbLine
 10
-65.61636999999999
 20
963.5
 11
-65.61636999999999
 21
973.5
  0
LINE
  5
FB
100
AcDbEntity
  8
T0000
  6
CONTINUOUS
 62
  150
370
   -1
100
AcDbLine
 10
-65.61636999999999
 20
973.5
 11
-55.61637
 21
973.5
  0
LINE
  5
FC
100
AcDbEntity
  8
T0000
  6
CONTINUOUS
 62
  150
370
   -1
100
AcDbLine
 10
-55.61637
 20
973.5
 11
-55.61637
 21
963.5
  0
LINE
  5
FD
100
AcDbEntity
  8
T0000
  6
CONTINUOUS
 62
  150
370
   -1
100
AcDbLine
 10
-55.61637
 20
963.5
 11
-65.61636999999999
 21
963.5
  0
ENDBLK
  5
79
330
77
100
AcDbEntity
  8
0
100
AcDbBlockEnd
  0
BLOCK
  5
7B
330
7A
100
AcDbEntity
  8
0
100
AcDbBlockBegin
  2
KZ2_2052_3TERMO_ELEM000010
 70
    0
 10
0
 20
0
  3
KZ2_2052_3TERMO_ELEM000010
  1

  0
LINE
  5
FE
100
AcDbEntity
  8
0
  6
CONTINUOUS
 62
  133
370
   -1
100
AcDbLine
 10
-29.61454445858854
 20
994.1281155414113
 11
-29.61454345858854
 21
994.1281155414113
  0
LINE
  5
FF
100
AcDbEntity
  8
T0000
  6
CONTINUOUS
 62
   92
370
   -1
100
AcDbLine
 10
-29.61454445858854
 20
994.1281155414113
 11
-31.11454445858854
 21
994.1281155414113
  0
LINE
  5
100
100
AcDbEntity
  8
T0000
  6
CONTINUOUS
 62
   92
370
   -1
100
AcDbLine
 10
-29.61454445858854
 20
994.1281155414113
 11
-28.11454445858854
 21
994.1281155414113
  0
LINE
  5
101
100
AcDbEntity
  8
T0000
  6
CONTINUOUS
 62
   92
370
   -1
100
AcDbLine
 10
-29.61454445858854
 20
992.6281155414113
 11
-29.61454445858854
 21
995.6281155414113
  0
LINE
  5
102
100
AcDbEntity
  8
T0000
  6
CONTINUOUS
 62
  150
370
   -1
100
AcDbLine
 10
-55.77749005571359
 20
963.7225193840939
 11
-60.0201314833133
 21
967.9651593307326
  0
LINE
  5
103
100
AcDbEntity
  8
T0000
  6
CONTINUOUS
 62
  150
370
   -1
100
AcDbLine
 10
-60.0201314833133
 20
967.9651593307326
 11
-3.451598861463488
 21
1024.533711698729
  0
LINE
  5
104
100
AcDbEntity
  8
T0000
  6
CONTINUOUS
 62
  150
370
   -1
100
AcDbLine
 10
-3.451598861463488
 20
1024.533711698729
 11
0.7910425661362197
 21
1020.29107175209
  0
LINE
  5
105
100
AcDbEntity
  8
T0000
  6
CONTINUOUS
 62
  150
370
   -1
100
AcDbLine
 10
0.7910425661362197
 20
1020.29107175209
 11
-55.77749005571359
 21
963.7225193840939
  0
ENDBLK
  5
7C
330
7A
100
AcDbEntity
  8
0
100
AcDbBlockEnd
  0
BLOCK
  5
7E
330
7D
100
AcDbEntity
  8
0
100
AcDbBlockBegin
  2
KZ2_2052_3TERMO_ELEM000011
 70
    0
 10
0
 20
0
  3
KZ2_2052_3TERMO_ELEM000011
  1

  0
LINE
  5
106
100
AcDbEntity
  8
0
  6
CONTINUOUS
 62
  133
370
   -1
100
AcDbLine
 10
0.3163715186999991
 20
1023
 11
0.3163725186999991
 21
1023
  0
LINE
  5
107
100
AcDbEntity
  8
T0000
  6
CONTINUOUS
 62
   92
370
   -1
100
AcDbLine
 10
0.3163715186999991
 20
1023
 11
-2.183628481300001
 21
1023
  0
LINE
  5
108
100
AcDbEntity
  8
T0000
  6
CONTINUOUS
 62
   92
370
   -1
100
AcDbLine
 10
0.3163715186999991
 20
1023
 11
2.816371518699999
 21
1023
  0
LINE
  5
109
100
AcDbEntity
  8
T0000
  6
CONTINUOUS
 62
   92
370
   -1
100
AcDbLine
 10
0.3163715186999991
 20
1020.5
 11
0.3163715186999991
 21
1025.5
  0
LINE
  5
10A
100
AcDbEntity
  8
T0000
  6
CONTINUOUS
 62
  150
370
   -1
100
AcDbLine
 10
-4.683628481300001
 20
1018
 11
-4.683628481300001
 21
1028
  0
LINE
  5
10B
100
AcDbEntity
  8
T0000
  6
CONTINUOUS
 62
  150
370
   -1
100
AcDbLine
 10
-4.683628481300001
 20
1028
 11
5.316371518699999
 21
1028
  0
LINE
  5
10C
100
AcDbEntity
  8
T0000
  6
CONTINUOUS
 62
  150
370
   -1
100
AcDbLine
 10
5.316371518699999
 20
1028
 11
5.316371518699999
 21
1018
  0
LINE
  5
10D
100
AcDbEntity
  8
T0000
  6
CONTINUOUS
 62
  150
370
   -1
100
AcDbLine
 10
5.316371518699999
 20
1018
 11
-4.683628481300001
 21
1018
  0
ENDBLK
  5
7F
330
7D
100
AcDbEntity
  8
0
100
AcDbBlockEnd
  0
BLOCK
  5
81
330
80
100
AcDbEntity
  8
0
100
AcDbBlockBegin
  2
KZ2_2052_3TERMO_ELEM000012
 70
    0
 10
0
 20
0
  3
KZ2_2052_3TERMO_ELEM000012
  1

  0
LINE
  5
10E
100
AcDbEntity
  8
0
  6
CONTINUOUS
 62
  133
370
   -1
100
AcDbLine
 10
8.316370992477818
 20
977.1367114561846
 11
8.316371992477817
 21
977.1367114561846
  0
LINE
  5
10F
100
AcDbEntity
  8
T0000
  6
CONTINUOUS
 62
   92
370
   -1
100
AcDbLine
 10
8.316370992477818
 20
977.1367114561846
 11
8.316371999999999
 21
717.7333
  0
LWPOLYLINE
  5
110
100
AcDbEntity
  8
T0000
  6
CONTINUOUS
 62
   92
370
   -1
100
AcDbPolyline
 90
    3
 70
    1
 43
0
 10
8.316371507890901
 20
844.4350057280923
 10
9.816371484586881
 20
850.4350057339183
 42
-0.3999999999999874
 10
6.81637148458695
 20
850.4350057222663
  0
LINE
  5
111
100
AcDbEntity
  8
T0000
  6
CONTINUOUS
 62
  150
370
   -1
100
AcDbLine
 10
5.316370992477818
 20
1017.136711456185
 11
11.31637099247782
 21
1017.136711456185
  0
LINE
  5
112
100
AcDbEntity
  8
T0000
  6
CONTINUOUS
 62
  150
370
   -1
100
AcDbLine
 10
11.31637099247782
 20
1017.136711456185
 11
11.31637099247782
 21
937.1367114561846
  0
LINE
  5
113
100
AcDbEntity
  8
T0000
  6
CONTINUOUS
 62
  150
370
   -1
100
AcDbLine
 10
11.31637099247782
 20
937.1367114561846
 11
5.316370992477818
 21
937.1367114561846
  0
LINE
  5
114
100
AcDbEntity
  8
T0000
  6
CONTINUOUS
 62
  150
370
   -1
100
AcDbLine
 10
5.316370992477818
 20
937.1367114561846
 11
5.316370992477818
 21
1017.136711456185
  0
LINE
  5
115
100
AcDbEntity
  8
T0000
  6
CONTINUOUS
 62
  150
370
   -1
100
AcDbLine
 10
5.316371999999999
 20
757.7333
 11
11.316372
 21
757.7333
  0
LINE
  5
116
100
AcDbEntity
  8
T0000
  6
CONTINUOUS
 62
  150
370
   -1
100
AcDbLine
 10
11.316372
 20
757.7333
 11
11.316372
 21
677.7333
  0
LINE
  5
117
100
AcDbEntity
  8
T0000
  6
CONTINUOUS
 62
  150
370
   -1
100
AcDbLine
 10
11.316372
 20
677.7333
 11
5.316371999999999
 21
677.7333
  0
LINE
  5
118
100
AcDbEntity
  8
T0000
  6
CONTINUOUS
 62
  150
370
   -1
100
AcDbLine
 10
5.316371999999999
 20
677.7333
 11
5.316371999999999
 21
757.7333
  0
ENDBLK
  5
82
330
80
100
AcDbEntity
  8
0
100
AcDbBlockEnd
  0
BLOCK
  5
84
330
83
100
AcDbEntity
  8
0
100
AcDbBlockBegin
  2
KZ2_2052_3TERMO_ELEM000013
 70
    0
 10
0
 20
0
  3
KZ2_2052_3TERMO_ELEM000013
  1

  0
LINE
  5
119
100
AcDbEntity
  8
0
  6
CONTINUOUS
 62
  133
370
   -1
100
AcDbLine
 10
8.316371
 20
636.9333
 11
8.316371999999999
 21
636.9333
  0
LINE
  5
11A
100
AcDbEntity
  8
T0000
  6
CONTINUOUS
 62
   92
370
   -1
100
AcDbLine
 10
8.316371
 20
636.9333
 11
8.316371999999999
 21
379.0667
  0
LWPOLYLINE
  5
11B
100
AcDbEntity
  8
T0000
  6
CONTINUOUS
 62
   92
370
   -1
100
AcDbPolyline
 90
    3
 70
    1
 43
0
 10
8.316371511633923
 20
505
 10
9.816371488366041
 20
511.000000005817
 42
-0.3999999999999874
 10
6.816371488366111
 20
510.999999994183
  0
LINE
  5
11C
100
AcDbEntity
  8
T0000
  6
CONTINUOUS
 62
  150
370
   -1
100
AcDbLine
 10
5.316371
 20
676.9333
 11
11.316371
 21
676.9333
  0
LINE
  5
11D
100
AcDbEntity
  8
T0000
  6
CONTINUOUS
 62
  150
370
   -1
100
AcDbLine
 10
11.316371
 20
676.9333
 11
11.316371
 21
596.9333
  0
LINE
  5
11E
100
AcDbEntity
  8
T0000
  6
CONTINUOUS
 62
  150
370
   -1
100
AcDbLine
 10
11.316371
 20
596.9333
 11
5.316371
 21
596.9333
  0
LINE
  5
11F
100
AcDbEntity
  8
T0000
  6
CONTINUOUS
 62
  150
370
   -1
100
AcDbLine
 10
5.316371
 20
596.9333
 11
5.316371
 21
676.9333
  0
LINE
  5
120
100
AcDbEntity
  8
T0000
  6
CONTINUOUS
 62
  150
370
   -1
100
AcDbLine
 10
5.316371999999999
 20
419.0667
 11
11.316372
 21
419.0667
  0
LINE
  5
121
100
AcDbEntity
  8
T0000
  6
CONTINUOUS
 62
  150
370
   -1
100
AcDbLine
 10
11.316372
 20
419.0667
 11
11.316372
 21
339.0667
  0
LINE
  5
122
100
AcDbEntity
  8
T0000
  6
CONTINUOUS
 62
  150
370
   -1
100
AcDbLine
 10
11.316372
 20
339.0667
 11
5.316371999999999
 21
339.0667
  0
LINE
  5
123
100
AcDbEntity
  8
T0000
  6
CONTINUOUS
 62
  150
370
   -1
100
AcDbLine
 10
5.316371999999999
 20
339.0667
 11
5.316371999999999
 21
419.0667
  0
ENDBLK
  5
85
330
83
100
AcDbEntity
  8
0
100
AcDbBlockEnd
  0
BLOCK
  5
87
330
86
100
AcDbEntity
  8
0
100
AcDbBlockBegin
  2
KZ2_2052_3TERMO_ELEM000014
 70
    0
 10
0
 20
0
  3
KZ2_2052_3TERMO_ELEM000014
  1

  0
LINE
  5
124
100
AcDbEntity
  8
0
  6
CONTINUOUS
 62
  133
370
   -1
100
AcDbLine
 10
8.316371
 20
298.2667
 11
8.316371999999999
 21
298.2667
  0
LINE
  5
125
100
AcDbEntity
  8
T0000
  6
CONTINUOUS
 62
   92
370
   -1
100
AcDbLine
 10
8.316371
 20
298.2667
 11
8.316371999999999
 21
40.4
  0
LWPOLYLINE
  5
126
100
AcDbEntity
  8
T0000
  6
CONTINUOUS
 62
   92
370
   -1
100
AcDbPolyline
 90
    3
 70
    1
 43
0
 10
8.316371511633918
 20
166.33335
 10
9.816371488366102
 20
172.333350005817
 42
-0.4000000000000072
 10
6.816371488366062
 20
172.333349994183
  0
LINE
  5
127
100
AcDbEntity
  8
T0000
  6
CONTINUOUS
 62
  150
370
   -1
100
AcDbLine
 10
5.316371
 20
338.2667
 11
11.316371
 21
338.2667
  0
LINE
  5
128
100
AcDbEntity
  8
T0000
  6
CONTINUOUS
 62
  150
370
   -1
100
AcDbLine
 10
11.316371
 20
338.2667
 11
11.316371
 21
258.2667
  0
LINE
  5
129
100
AcDbEntity
  8
T0000
  6
CONTINUOUS
 62
  150
370
   -1
100
AcDbLine
 10
11.316371
 20
258.2667
 11
5.316371
 21
258.2667
  0
LINE
  5
12A
100
AcDbEntity
  8
T0000
  6
CONTINUOUS
 62
  150
370
   -1
100
AcDbLine
 10
5.316371
 20
258.2667
 11
5.316371
 21
338.2667
  0
LINE
  5
12B
100
AcDbEntity
  8
T0000
  6
CONTINUOUS
 62
  150
370
   -1
100
AcDbLine
 10
5.316371999999999
 20
80.40000000000001
 11
11.316372
 21
80.40000000000001
  0
LINE
  5
12C
100
AcDbEntity
  8
T0000
  6
CONTINUOUS
 62
  150
370
   -1
100
AcDbLine
 10
11.316372
 20
80.40000000000001
 11
11.316372
 21
0.3999999999999986
  0
LINE
  5
12D
100
AcDbEntity
  8
T0000
  6
CONTINUOUS
 62
  150
370
   -1
100
AcDbLine
 10
11.316372
 20
0.3999999999999986
 11
5.316371999999999
 21
0.3999999999999986
  0
LINE
  5
12E
100
AcDbEntity
  8
T0000
  6
CONTINUOUS
 62
  150
370
   -1
100
AcDbLine
 10
5.316371999999999
 20
0.3999999999999986
 11
5.316371999999999
 21
80.40000000000001
  0
ENDBLK
  5
88
330
86
100
AcDbEntity
  8
0
100
AcDbBlockEnd
  0
BLOCK
  5
8A
330
89
100
AcDbEntity
  8
0
100
AcDbBlockBegin
  2
KZ2_2052_3TERMO_ELEM000015
 70
    0
 10
0
 20
0
  3
KZ2_2052_3TERMO_ELEM000015
  1

  0
LINE
  5
12F
100
AcDbEntity
  8
0
  6
CONTINUOUS
 62
  133
370
   -1
100
AcDbLine
 10
8.316371
 20
-40.4
 11
8.316371999999999
 21
-40.4
  0
LINE
  5
130
100
AcDbEntity
  8
T0000
  6
CONTINUOUS
 62
   92
370
   -1
100
AcDbLine
 10
8.316371
 20
-40.4
 11
8.316371999999999
 21
-298.2667
  0
LWPOLYLINE
  5
131
100
AcDbEntity
  8
T0000
  6
CONTINUOUS
 62
   92
370
   -1
100
AcDbPolyline
 90
    3
 70
    1
 43
0
 10
8.316371511633918
 20
-172.33335
 10
9.816371488366091
 20
-166.3333499941831
 42
-0.4000000000000031
 10
6.816371488366073
 20
-166.333350005817
  0
LINE
  5
132
100
AcDbEntity
  8
T0000
  6
CONTINUOUS
 62
  150
370
   -1
100
AcDbLine
 10
5.316371
 20
-0.3999999999999986
 11
11.316371
 21
-0.3999999999999986
  0
LINE
  5
133
100
AcDbEntity
  8
T0000
  6
CONTINUOUS
 62
  150
370
   -1
100
AcDbLine
 10
11.316371
 20
-0.3999999999999986
 11
11.316371
 21
-80.40000000000001
  0
LINE
  5
134
100
AcDbEntity
  8
T0000
  6
CONTINUOUS
 62
  150
370
   -1
100
AcDbLine
 10
11.316371
 20
-80.40000000000001
 11
5.316371
 21
-80.40000000000001
  0
LINE
  5
135
100
AcDbEntity
  8
T0000
  6
CONTINUOUS
 62
  150
370
   -1
100
AcDbLine
 10
5.316371
 20
-80.40000000000001
 11
5.316371
 21
-0.3999999999999986
  0
LINE
  5
136
100
AcDbEntity
  8
T0000
  6
CONTINUOUS
 62
  150
370
   -1
100
AcDbLine
 10
5.316371999999999
 20
-258.2667
 11
11.316372
 21
-258.2667
  0
LINE
  5
137
100
AcDbEntity
  8
T0000
  6
CONTINUOUS
 62
  150
370
   -1
100
AcDbLine
 10
11.316372
 20
-258.2667
 11
11.316372
 21
-338.2667
  0
LINE
  5
138
100
AcDbEntity
  8
T0000
  6
CONTINUOUS
 62
  150
370
   -1
100
AcDbLine
 10
11.316372
 20
-338.2667
 11
5.316371999999999
 21
-338.2667
  0
LINE
  5
139
100
AcDbEntity
  8
T0000
  6
CONTINUOUS
 62
  150
370
   -1
100
AcDbLine
 10
5.316371999999999
 20
-338.2667
 11
5.316371999999999
 21
-258.2667
  0
ENDBLK
  5
8B
330
89
100
AcDbEntity
  8
0
100
AcDbBlockEnd
  0
BLOCK
  5
8D
330
8C
100
AcDbEntity
  8
0
100
AcDbBlockBegin
  2
KZ2_2052_3TERMO_ELEM000016
 70
    0
 10
0
 20
0
  3
KZ2_2052_3TERMO_ELEM000016
  1

  0
LINE
  5
13A
100
AcDbEntity
  8
0
  6
CONTINUOUS
 62
  133
370
   -1
100
AcDbLine
 10
8.316371
 20
-379.0667
 11
8.316371999999999
 21
-379.0667
  0
LINE
  5
13B
100
AcDbEntity
  8
T0000
  6
CONTINUOUS
 62
   92
370
   -1
100
AcDbLine
 10
8.316371
 20
-379.0667
 11
8.316371999999999
 21
-636.9333
  0
LWPOLYLINE
  5
13C
100
AcDbEntity
  8
T0000
  6
CONTINUOUS
 62
   92
370
   -1
100
AcDbPolyline
 90
    3
 70
    1
 43
0
 10
8.316371511633923
 20
-511
 10
9.816371488366084
 20
-504.999999994183
 42
-0.4000000000000031
 10
6.816371488366068
 20
-505.000000005817
  0
LINE
  5
13D
100
AcDbEntity
  8
T0000
  6
CONTINUOUS
 62
  150
370
   -1
100
AcDbLine
 10
5.316371
 20
-339.0667
 11
11.316371
 21
-339.0667
  0
LINE
  5
13E
100
AcDbEntity
  8
T0000
  6
CONTINUOUS
 62
  150
370
   -1
100
AcDbLine
 10
11.316371
 20
-339.0667
 11
11.316371
 21
-419.0667
  0
LINE
  5
13F
100
AcDbEntity
  8
T0000
  6
CONTINUOUS
 62
  150
370
   -1
100
AcDbLine
 10
11.316371
 20
-419.0667
 11
5.316371
 21
-419.0667
  0
LINE
  5
140
100
AcDbEntity
  8
T0000
  6
CONTINUOUS
 62
  150
370
   -1
100
AcDbLine
 10
5.316371
 20
-419.0667
 11
5.316371
 21
-339.0667
  0
LINE
  5
141
100
AcDbEntity
  8
T0000
  6
CONTINUOUS
 62
  150
370
   -1
100
AcDbLine
 10
5.316371999999999
 20
-596.9333
 11
11.316372
 21
-596.9333
  0
LINE
  5
142
100
AcDbEntity
  8
T0000
  6
CONTINUOUS
 62
  150
370
   -1
100
AcDbLine
 10
11.316372
 20
-596.9333
 11
11.316372
 21
-676.9333
  0
LINE
  5
143
100
AcDbEntity
  8
T0000
  6
CONTINUOUS
 62
  150
370
   -1
100
AcDbLine
 10
11.316372
 20
-676.9333
 11
5.316371999999999
 21
-676.9333
  0
LINE
  5
144
100
AcDbEntity
  8
T0000
  6
CONTINUOUS
 62
  150
370
   -1
100
AcDbLine
 10
5.316371999999999
 20
-676.9333
 11
5.316371999999999
 21
-596.9333
  0
ENDBLK
  5
8E
330
8C
100
AcDbEntity
  8
0
100
AcDbBlockEnd
  0
BLOCK
  5
90
330
8F
100
AcDbEntity
  8
0
100
AcDbBlockBegin
  2
KZ2_2052_3TERMO_ELEM000017
 70
    0
 10
0
 20
0
  3
KZ2_2052_3TERMO_ELEM000017
  1

  0
LINE
  5
145
100
AcDbEntity
  8
0
  6
CONTINUOUS
 62
  133
370
   -1
100
AcDbLine
 10
8.316371
 20
-717.7333
 11
8.316371999999999
 21
-717.7333
  0
LINE
  5
146
100
AcDbEntity
  8
T0000
  6
CONTINUOUS
 62
   92
370
   -1
100
AcDbLine
 10
8.316371
 20
-717.7333
 11
8.316371999999999
 21
-975.2
  0
LWPOLYLINE
  5
147
100
AcDbEntity
  8
T0000
  6
CONTINUOUS
 62
   92
370
   -1
100
AcDbPolyline
 90
    3
 70
    1
 43
0
 10
8.316371511651992
 20
-849.4666500000001
 10
9.816371488347972
 20
-843.4666499941741
 42
-0.3999999999999874
 10
6.816371488348041
 20
-843.4666500058261
  0
LINE
  5
148
100
AcDbEntity
  8
T0000
  6
CONTINUOUS
 62
  150
370
   -1
100
AcDbLine
 10
5.316371
 20
-677.7333
 11
11.316371
 21
-677.7333
  0
LINE
  5
149
100
AcDbEntity
  8
T0000
  6
CONTINUOUS
 62
  150
370
   -1
100
AcDbLine
 10
11.316371
 20
-677.7333
 11
11.316371
 21
-757.7333
  0
LINE
  5
14A
100
AcDbEntity
  8
T0000
  6
CONTINUOUS
 62
  150
370
   -1
100
AcDbLine
 10
11.316371
 20
-757.7333
 11
5.316371
 21
-757.7333
  0
LINE
  5
14B
100
AcDbEntity
  8
T0000
  6
CONTINUOUS
 62
  150
370
   -1
100
AcDbLine
 10
5.316371
 20
-757.7333
 11
5.316371
 21
-677.7333
  0
LINE
  5
14C
100
AcDbEntity
  8
T0000
  6
CONTINUOUS
 62
  150
370
   -1
100
AcDbLine
 10
5.316371999999999
 20
-935.2
 11
11.316372
 21
-935.2
  0
LINE
  5
14D
100
AcDbEntity
  8
T0000
  6
CONTINUOUS
 62
  150
370
   -1
100
AcDbLine
 10
11.316372
 20
-935.2
 11
11.316372
 21
-1015.2
  0
LINE
  5
14E
100
AcDbEntity
  8
T0000
  6
CONTINUOUS
 62
  150
370
   -1
100
AcDbLine
 10
11.316372
 20
-1015.2
 11
5.316371999999999
 21
-1015.2
  0
LINE
  5
14F
100
AcDbEntity
  8
T0000
  6
CONTINUOUS
 62
  150
370
   -1
100
AcDbLine
 10
5.316371999999999
 20
-1015.2
 11
5.316371999999999
 21
-935.2
  0
ENDBLK
  5
91
330
8F
100
AcDbEntity
  8
0
100
AcDbBlockEnd
  0
BLOCK
  5
93
330
92
100
AcDbEntity
  8
0
100
AcDbBlockBegin
  2
KZ2_2052_3TERMO_ELEM000018
 70
    0
 10
0
 20
0
  3
KZ2_2052_3TERMO_ELEM000018
  1

  0
LINE
  5
150
100
AcDbEntity
  8
0
  6
CONTINUOUS
 62
  133
370
   -1
100
AcDbLine
 10
0.3163719999999994
 20
-1021
 11
0.3163729999999994
 21
-1021
  0
LINE
  5
151
100
AcDbEntity
  8
T0000
  6
CONTINUOUS
 62
   92
370
   -1
100
AcDbLine
 10
0.3163719999999994
 20
-1021
 11
-2.183628000000001
 21
-1021
  0
LINE
  5
152
100
AcDbEntity
  8
T0000
  6
CONTINUOUS
 62
   92
370
   -1
100
AcDbLine
 10
0.3163719999999994
 20
-1021
 11
2.816371999999999
 21
-1021
  0
LINE
  5
153
100
AcDbEntity
  8
T0000
  6
CONTINUOUS
 62
   92
370
   -1
100
AcDbLine
 10
0.3163719999999994
 20
-1023.5
 11
0.3163719999999994
 21
-1018.5
  0
LINE
  5
154
100
AcDbEntity
  8
T0000
  6
CONTINUOUS
 62
  150
370
   -1
100
AcDbLine
 10
5.316371999999999
 20
-1016
 11
5.316371999999999
 21
-1026
  0
LINE
  5
155
100
AcDbEntity
  8
T0000
  6
CONTINUOUS
 62
  150
370
   -1
100
AcDbLine
 10
5.316371999999999
 20
-1026
 11
-4.683628000000001
 21
-1026
  0
LINE
  5
156
100
AcDbEntity
  8
T0000
  6
CONTINUOUS
 62
  150
370
   -1
100
AcDbLine
 10
-4.683628000000001
 20
-1026
 11
-4.683628000000001
 21
-1016
  0
LINE
  5
157
100
AcDbEntity
  8
T0000
  6
CONTINUOUS
 62
  150
370
   -1
100
AcDbLine
 10
-4.683628000000001
 20
-1016
 11
5.316371999999999
 21
-1016
  0
ENDBLK
  5
94
330
92
100
AcDbEntity
  8
0
100
AcDbBlockEnd
  0
BLOCK
  5
96
330
95
100
AcDbEntity
  8
0
100
AcDbBlockBegin
  2
KZ2_2052_3TERMO_ELEM000019
 70
    0
 10
0
 20
0
  3
KZ2_2052_3TERMO_ELEM000019
  1

  0
LINE
  5
158
100
AcDbEntity
  8
0
  6
CONTINUOUS
 62
  133
370
   -1
100
AcDbLine
 10
-29.66468047536616
 20
-992.0779795246337
 11
-29.66467947536616
 21
-992.0779795246337
  0
LINE
  5
159
100
AcDbEntity
  8
T0000
  6
CONTINUOUS
 62
   92
370
   -1
100
AcDbLine
 10
-29.66468047536616
 20
-992.0779795246337
 11
-31.16468047536616
 21
-992.0779795246337
  0
LINE
  5
15A
100
AcDbEntity
  8
T0000
  6
CONTINUOUS
 62
   92
370
   -1
100
AcDbLine
 10
-29.66468047536616
 20
-992.0779795246337
 11
-28.16468047536616
 21
-992.0779795246337
  0
LINE
  5
15B
100
AcDbEntity
  8
T0000
  6
CONTINUOUS
 62
   92
370
   -1
100
AcDbLine
 10
-29.66468047536616
 20
-993.5779795246337
 11
-29.66468047536616
 21
-990.5779795246337
  0
LINE
  5
15C
100
AcDbEntity
  8
T0000
  6
CONTINUOUS
 62
  150
370
   -1
100
AcDbLine
 10
0.7409111156553294
 20
-1018.240930428536
 11
-3.501729571463969
 21
-1022.483571115655
  0
LINE
  5
15D
100
AcDbEntity
  8
T0000
  6
CONTINUOUS
 62
  150
370
   -1
100
AcDbLine
 10
-3.501729571463969
 20
-1022.483571115655
 11
-60.07027206638764
 21
-965.9150286207314
  0
LINE
  5
15E
100
AcDbEntity
  8
T0000
  6
CONTINUOUS
 62
  150
370
   -1
100
AcDbLine
 10
-60.07027206638764
 20
-965.9150286207314
 11
-55.82763137926835
 21
-961.6723879336122
  0
LINE
  5
15F
100
AcDbEntity
  8
T0000
  6
CONTINUOUS
 62
  150
370
   -1
100
AcDbLine
 10
-55.82763137926835
 20
-961.6723879336122
 11
0.7409111156553294
 21
-1018.240930428536
  0
ENDBLK
  5
97
330
95
100
AcDbEntity
  8
0
100
AcDbBlockEnd
  0
BLOCK
  5
99
330
98
100
AcDbEntity
  8
0
100
AcDbBlockBegin
  2
KZ2_2052_3TERMO_ELEM000020
 70
    0
 10
0
 20
0
  3
KZ2_2052_3TERMO_ELEM000020
  1

  0
LINE
  5
160
100
AcDbEntity
  8
0
  6
CONTINUOUS
 62
  133
370
   -1
100
AcDbLine
 10
-60.61637
 20
-966.5
 11
-60.616369
 21
-966.5
  0
LINE
  5
161
100
AcDbEntity
  8
T0000
  6
CONTINUOUS
 62
   92
370
   -1
100
AcDbLine
 10
-60.61637
 20
-966.5
 11
-79.01636999999999
 21
-966.5
  0
LWPOLYLINE
  5
162
100
AcDbEntity
  8
T0000
  6
CONTINUOUS
 62
   92
370
   -1
100
AcDbPolyline
 90
    3
 70
    1
 43
0
 10
-72.88303660308839
 20
-966.5
 10
-66.74970339691161
 20
-968.0333333015442
 42
-0.3999999999999995
 10
-66.74970339691161
 20
-964.9666666984558
  0
LINE
  5
163
100
AcDbEntity
  8
T0000
  6
CONTINUOUS
 62
  150
370
   -1
100
AcDbLine
 10
-55.61637
 20
-961.5
 11
-55.61637
 21
-971.5
  0
LINE
  5
164
100
AcDbEntity
  8
T0000
  6
CONTINUOUS
 62
  150
370
   -1
100
AcDbLine
 10
-55.61637
 20
-971.5
 11
-65.61636999999999
 21
-971.5
  0
LINE
  5
165
100
AcDbEntity
  8
T0000
  6
CONTINUOUS
 62
  150
370
   -1
100
AcDbLine
 10
-65.61636999999999
 20
-971.5
 11
-65.61636999999999
 21
-961.5
  0
LINE
  5
166
100
AcDbEntity
  8
T0000
  6
CONTINUOUS
 62
  150
370
   -1
100
AcDbLine
 10
-65.61636999999999
 20
-961.5
 11
-55.61637
 21
-961.5
  0
LINE
  5
167
100
AcDbEntity
  8
T0000
  6
CONTINUOUS
 62
  150
370
   -1
100
AcDbLine
 10
-74.01636999999999
 20
-961.5
 11
-74.01636999999999
 21
-971.5
  0
LINE
  5
168
100
AcDbEntity
  8
T0000
  6
CONTINUOUS
 62
  150
370
   -1
100
AcDbLine
 10
-74.01636999999999
 20
-971.5
 11
-84.01636999999999
 21
-971.5
  0
LINE
  5
169
100
AcDbEntity
  8
T0000
  6
CONTINUOUS
 62
  150
370
   -1
100
AcDbLine
 10
-84.01636999999999
 20
-971.5
 11
-84.01636999999999
 21
-961.5
  0
LINE
  5
16A
100
AcDbEntity
  8
T0000
  6
CONTINUOUS
 62
  150
370
   -1
100
AcDbLine
 10
-84.01636999999999
 20
-961.5
 11
-74.01636999999999
 21
-961.5
  0
ENDBLK
  5
9A
330
98
100
AcDbEntity
  8
0
100
AcDbBlockEnd
  0
BLOCK
  5
9C
330
9B
100
AcDbEntity
  8
0
100
AcDbBlockBegin
  2
KZ2_2052_3TERMO_ELEM000021
 70
    0
 10
0
 20
0
  3
KZ2_2052_3TERMO_ELEM000021
  1

  0
LINE
  5
16B
100
AcDbEntity
  8
0
  6
CONTINUOUS
 62
  133
370
   -1
100
AcDbLine
 10
-90.61972741846337
 20
-972.7295874184634
 11
-90.61972641846337
 21
-972.7295874184634
  0
LINE
  5
16C
100
AcDbEntity
  8
T0000
  6
CONTINUOUS
 62
   92
370
   -1
100
AcDbLine
 10
-90.61972741846337
 20
-972.7295874184634
 11
-92.11972741846337
 21
-972.7295874184634
  0
LINE
  5
16D
100
AcDbEntity
  8
T0000
  6
CONTINUOUS
 62
   92
370
   -1
100
AcDbLine
 10
-90.61972741846337
 20
-972.7295874184634
 11
-89.11972741846337
 21
-972.7295874184634
  0
LINE
  5
16E
100
AcDbEntity
  8
T0000
  6
CONTINUOUS
 62
   92
370
   -1
100
AcDbLine
 10
-90.61972741846337
 20
-974.2295874184634
 11
-90.61972741846337
 21
-971.2295874184634
  0
LINE
  5
16F
100
AcDbEntity
  8
T0000
  6
CONTINUOUS
 62
  150
370
   -1
100
AcDbLine
 10
-83.90221299719113
 20
-961.769432310072
 11
-79.65957231007185
 21
-966.0120729971912
  0
LINE
  5
170
100
AcDbEntity
  8
T0000
  6
CONTINUOUS
 62
  150
370
   -1
100
AcDbLine
 10
-79.65957231007185
 20
-966.0120729971912
 11
-97.33724183973561
 21
-983.6897425268548
  0
LINE
  5
171
100
AcDbEntity
  8
T0000
  6
CONTINUOUS
 62
  150
370
   -1
100
AcDbLine
 10
-97.33724183973561
 20
-983.6897425268548
 11
-101.5798825268549
 21
-979.4471018397356
  0
LINE
  5
172
100
AcDbEntity
  8
T0000
  6
CONTINUOUS
 62
  150
370
   -1
100
AcDbLine
 10
-101.5798825268549
 20
-979.4471018397356
 11
-83.90221299719113
 21
-961.769432310072
  0
ENDBLK
  5
9D
330
9B
100
AcDbEntity
  8
0
100
AcDbBlockEnd
  0
BLOCK
  5
9F
330
9E
100
AcDbEntity
  8
0
100
AcDbBlockBegin
  2
KZ2_2052_3TERMO_ELEM000022
 70
    0
 10
0
 20
0
  3
KZ2_2052_3TERMO_ELEM000022
  1

  0
LINE
  5
173
100
AcDbEntity
  8
0
  6
CONTINUOUS
 62
  133
370
   -1
100
AcDbLine
 10
-108.1491
 20
-980.5
 11
-108.149099
 21
-980.5
  0
LINE
  5
174
100
AcDbEntity
  8
T0000
  6
CONTINUOUS
 62
   92
370
   -1
100
AcDbLine
 10
-108.1491
 20
-980.5
 11
-109.6491
 21
-980.5
  0
LINE
  5
175
100
AcDbEntity
  8
T0000
  6
CONTINUOUS
 62
   92
370
   -1
100
AcDbLine
 10
-108.1491
 20
-980.5
 11
-106.6491
 21
-980.5
  0
LINE
  5
176
100
AcDbEntity
  8
T0000
  6
CONTINUOUS
 62
   92
370
   -1
100
AcDbLine
 10
-108.1491
 20
-982
 11
-108.1491
 21
-979
  0
LINE
  5
177
100
AcDbEntity
  8
T0000
  6
CONTINUOUS
 62
  150
370
   -1
100
AcDbLine
 10
-95.6491
 20
-977.5
 11
-95.6491
 21
-983.5
  0
LINE
  5
178
100
AcDbEntity
  8
T0000
  6
CONTINUOUS
 62
  150
370
   -1
100
AcDbLine
 10
-95.6491
 20
-983.5
 11
-120.6491
 21
-983.5
  0
LINE
  5
179
100
AcDbEntity
  8
T0000
  6
CONTINUOUS
 62
  150
370
   -1
100
AcDbLine
 10
-120.6491
 20
-983.5
 11
-120.6491
 21
-977.5
  0
LINE
  5
17A
100
AcDbEntity
  8
T0000
  6
CONTINUOUS
 62
  150
370
   -1
100
AcDbLine
 10
-120.6491
 20
-977.5
 11
-95.6491
 21
-977.5
  0
ENDBLK
  5
A0
330
9E
100
AcDbEntity
  8
0
100
AcDbBlockEnd
  0
BLOCK
  5
A2
330
A1
100
AcDbEntity
  8
0
100
AcDbBlockBegin
  2
KZ2_2052_3TERMO_ELEM000023
 70
    0
 10
0
 20
0
  3
KZ2_2052_3TERMO_ELEM000023
  1

  0
LINE
  5
17B
100
AcDbEntity
  8
0
  6
CONTINUOUS
 62
  133
370
   -1
100
AcDbLine
 10
-127.2300393573444
 20
-988.7071041925901
 11
-127.2300383573444
 21
-988.7071041925901
  0
LINE
  5
17C
100
AcDbEntity
  8
T0000
  6
CONTINUOUS
 62
   92
370
   -1
100
AcDbLine
 10
-127.2300393573444
 20
-988.7071041925901
 11
-147.7124
 21
-1009.19
  0
LWPOLYLINE
  5
17D
100
AcDbEntity
  8
T0000
  6
CONTINUOUS
 62
   92
370
   -1
100
AcDbPolyline
 90
    3
 70
    1
 43
0
 10
-139.5925123093992
 20
-1001.069900152325
 10
-134.2892530199301
 20
-997.8878503556284
 42
-0.3999999999999969
 10
-136.4106010759603
 20
-995.7665577249013
  0
LINE
  5
17E
100
AcDbEntity
  8
T0000
  6
CONTINUOUS
 62
  150
370
   -1
100
AcDbLine
 10
-120.5125249360721
 20
-977.7469490841987
 11
-116.2698842489529
 21
-981.9895897713179
  0
LINE
  5
17F
100
AcDbEntity
  8
T0000
  6
CONTINUOUS
 62
  150
370
   -1
100
AcDbLine
 10
-116.2698842489529
 20
-981.9895897713179
 11
-133.9475537786167
 21
-999.6672593009815
  0
LINE
  5
180
100
AcDbEntity
  8
T0000
  6
CONTINUOUS
 62
  150
370
   -1
100
AcDbLine
 10
-133.9475537786167
 20
-999.6672593009815
 11
-138.1901944657359
 21
-995.4246186138622
  0
LINE
  5
181
100
AcDbEntity
  8
T0000
  6
CONTINUOUS
 62
  150
370
   -1
100
AcDbLine
 10
-138.1901944657359
 20
-995.4246186138622
 11
-120.5125249360721
 21
-977.7469490841987
  0
LINE
  5
182
100
AcDbEntity
  8
T0000
  6
CONTINUOUS
 62
  150
370
   -1
100
AcDbLine
 10
-140.9948855787277
 20
-998.2298448916086
 11
-136.7522448916085
 21
-1002.472485578728
  0
LINE
  5
183
100
AcDbEntity
  8
T0000
  6
CONTINUOUS
 62
  150
370
   -1
100
AcDbLine
 10
-136.7522448916085
 20
-1002.472485578728
 11
-154.4299144212723
 21
-1020.150155108391
  0
LINE
  5
184
100
AcDbEntity
  8
T0000
  6
CONTINUOUS
 62
  150
370
   -1
100
AcDbLine
 10
-154.4299144212723
 20
-1020.150155108391
 11
-158.6725551083915
 21
-1015.907514421272
  0
LINE
  5
185
100
AcDbEntity
  8
T0000
  6
CONTINUOUS
 62
  150
370
   -1
100
AcDbLine
 10
-158.6725551083915
 20
-1015.907514421272
 11
-140.9948855787277
 21
-998.2298448916086
  0
ENDBLK
  5
A3
330
A1
100
AcDbEntity
  8
0
100
AcDbBlockEnd
  0
BLOCK
  5
A5
330
A4
100
AcDbEntity
  8
0
100
AcDbBlockBegin
  2
KZ2_2052_3TERMO_ELEM000024
 70
    0
 10
0
 20
0
  3
KZ2_2052_3TERMO_ELEM000024
  1

  0
LINE
  5
186
100
AcDbEntity
  8
0
  6
CONTINUOUS
 62
  133
370
   -1
100
AcDbLine
 10
-164.9819
 20
-1019
 11
-164.981899
 21
-1019
  0
LINE
  5
187
100
AcDbEntity
  8
T0000
  6
CONTINUOUS
 62
   92
370
   -1
100
AcDbLine
 10
-164.9819
 20
-1019
 11
-166.4819
 21
-1019
  0
LINE
  5
188
100
AcDbEntity
  8
T0000
  6
CONTINUOUS
 62
   92
370
   -1
100
AcDbLine
 10
-164.9819
 20
-1019
 11
-163.4819
 21
-1019
  0
LINE
  5
189
100
AcDbEntity
  8
T0000
  6
CONTINUOUS
 62
   92
370
   -1
100
AcDbLine
 10
-164.9819
 20
-1020.5
 11
-164.9819
 21
-1017.5
  0
LINE
  5
18A
100
AcDbEntity
  8
T0000
  6
CONTINUOUS
 62
  150
370
   -1
100
AcDbLine
 10
-152.4819
 20
-1016
 11
-152.4819
 21
-1022
  0
LINE
  5
18B
100
AcDbEntity
  8
T0000
  6
CONTINUOUS
 62
  150
370
   -1
100
AcDbLine
 10
-152.4819
 20
-1022
 11
-177.4819
 21
-1022
  0
LINE
  5
18C
100
AcDbEntity
  8
T0000
  6
CONTINUOUS
 62
  150
370
   -1
100
AcDbLine
 10
-177.4819
 20
-1022
 11
-177.4819
 21
-1016
  0
LINE
  5
18D
100
AcDbEntity
  8
T0000
  6
CONTINUOUS
 62
  150
370
   -1
100
AcDbLine
 10
-177.4819
 20
-1016
 11
-152.4819
 21
-1016
  0
ENDBLK
  5
A6
330
A4
100
AcDbEntity
  8
0
100
AcDbBlockEnd
  0
BLOCK
  5
A8
330
A7
100
AcDbEntity
  8
0
100
AcDbBlockBegin
  2
KZ2_2052_3TERMO_ELEM000025
 70
    0
 10
0
 20
0
  3
KZ2_2052_3TERMO_ELEM000025
  1

  0
LINE
  5
18E
100
AcDbEntity
  8
0
  6
CONTINUOUS
 62
  133
370
   -1
100
AcDbLine
 10
-173.0819
 20
-975.2
 11
-173.081899
 21
-975.2
  0
LINE
  5
18F
100
AcDbEntity
  8
T0000
  6
CONTINUOUS
 62
   92
370
   -1
100
AcDbLine
 10
-173.0819
 20
-975.2
 11
-173.0819
 21
-717.7333
  0
LWPOLYLINE
  5
190
100
AcDbEntity
  8
T0000
  6
CONTINUOUS
 62
   92
370
   -1
100
AcDbPolyline
 90
    3
 70
    1
 43
0
 10
-173.0819
 20
-843.4666500000001
 10
-174.5819
 20
-849.4666500000001
 42
-0.3999999999999916
 10
-171.5819
 20
-849.4666500000001
  0
LINE
  5
191
100
AcDbEntity
  8
T0000
  6
CONTINUOUS
 62
  150
370
   -1
100
AcDbLine
 10
-170.0819
 20
-1015.2
 11
-176.0819
 21
-1015.2
  0
LINE
  5
192
100
AcDbEntity
  8
T0000
  6
CONTINUOUS
 62
  150
370
   -1
100
AcDbLine
 10
-176.0819
 20
-1015.2
 11
-176.0819
 21
-935.2
  0
LINE
  5
193
100
AcDbEntity
  8
T0000
  6
CONTINUOUS
 62
  150
370
   -1
100
AcDbLine
 10
-176.0819
 20
-935.2
 11
-170.0819
 21
-935.2
  0
LINE
  5
194
100
AcDbEntity
  8
T0000
  6
CONTINUOUS
 62
  150
370
   -1
100
AcDbLine
 10
-170.0819
 20
-935.2
 11
-170.0819
 21
-1015.2
  0
LINE
  5
195
100
AcDbEntity
  8
T0000
  6
CONTINUOUS
 62
  150
370
   -1
100
AcDbLine
 10
-170.0819
 20
-757.7333
 11
-176.0819
 21
-757.7333
  0
LINE
  5
196
100
AcDbEntity
  8
T0000
  6
CONTINUOUS
 62
  150
370
   -1
100
AcDbLine
 10
-176.0819
 20
-757.7333
 11
-176.0819
 21
-677.7333
  0
LINE
  5
197
100
AcDbEntity
  8
T0000
  6
CONTINUOUS
 62
  150
370
   -1
100
AcDbLine
 10
-176.0819
 20
-677.7333
 11
-170.0819
 21
-677.7333
  0
LINE
  5
198
100
AcDbEntity
  8
T0000
  6
CONTINUOUS
 62
  150
370
   -1
100
AcDbLine
 10
-170.0819
 20
-677.7333
 11
-170.0819
 21
-757.7333
  0
ENDBLK
  5
A9
330
A7
100
AcDbEntity
  8
0
100
AcDbBlockEnd
  0
BLOCK
  5
AB
330
AA
100
AcDbEntity
  8
0
100
AcDbBlockBegin
  2
KZ2_2052_3TERMO_ELEM000026
 70
    0
 10
0
 20
0
  3
KZ2_2052_3TERMO_ELEM000026
  1

  0
LINE
  5
199
100
AcDbEntity
  8
0
  6
CONTINUOUS
 62
  133
370
   -1
100
AcDbLine
 10
-173.0819
 20
-636.9333
 11
-173.081899
 21
-636.9333
  0
LINE
  5
19A
100
AcDbEntity
  8
T0000
  6
CONTINUOUS
 62
   92
370
   -1
100
AcDbLine
 10
-173.0819
 20
-636.9333
 11
-173.0819
 21
-379.0667
  0
LWPOLYLINE
  5
19B
100
AcDbEntity
  8
T0000
  6
CONTINUOUS
 62
   92
370
   -1
100
AcDbPolyline
 90
    3
 70
    1
 43
0
 10
-173.0819
 20
-505
 10
-174.5819
 20
-511
 42
-0.3999999999999916
 10
-171.5819
 20
-511
  0
LINE
  5
19C
100
AcDbEntity
  8
T0000
  6
CONTINUOUS
 62
  150
370
   -1
100
AcDbLine
 10
-170.0819
 20
-676.9333
 11
-176.0819
 21
-676.9333
  0
LINE
  5
19D
100
AcDbEntity
  8
T0000
  6
CONTINUOUS
 62
  150
370
   -1
100
AcDbLine
 10
-176.0819
 20
-676.9333
 11
-176.0819
 21
-596.9333
  0
LINE
  5
19E
100
AcDbEntity
  8
T0000
  6
CONTINUOUS
 62
  150
370
   -1
100
AcDbLine
 10
-176.0819
 20
-596.9333
 11
-170.0819
 21
-596.9333
  0
LINE
  5
19F
100
AcDbEntity
  8
T0000
  6
CONTINUOUS
 62
  150
370
   -1
100
AcDbLine
 10
-170.0819
 20
-596.9333
 11
-170.0819
 21
-676.9333
  0
LINE
  5
1A0
100
AcDbEntity
  8
T0000
  6
CONTINUOUS
 62
  150
370
   -1
100
AcDbLine
 10
-170.0819
 20
-419.0667
 11
-176.0819
 21
-419.0667
  0
LINE
  5
1A1
100
AcDbEntity
  8
T0000
  6
CONTINUOUS
 62
  150
370
   -1
100
AcDbLine
 10
-176.0819
 20
-419.0667
 11
-176.0819
 21
-339.0667
  0
LINE
  5
1A2
100
AcDbEntity
  8
T0000
  6
CONTINUOUS
 62
  150
370
   -1
100
AcDbLine
 10
-176.0819
 20
-339.0667
 11
-170.0819
 21
-339.0667
  0
LINE
  5
1A3
100
AcDbEntity
  8
T0000
  6
CONTINUOUS
 62
  150
370
   -1
100
AcDbLine
 10
-170.0819
 20
-339.0667
 11
-170.0819
 21
-419.0667
  0
ENDBLK
  5
AC
330
AA
100
AcDbEntity
  8
0
100
AcDbBlockEnd
  0
BLOCK
  5
AE
330
AD
100
AcDbEntity
  8
0
100
AcDbBlockBegin
  2
KZ2_2052_3TERMO_ELEM000027
 70
    0
 10
0
 20
0
  3
KZ2_2052_3TERMO_ELEM000027
  1

  0
LINE
  5
1A4
100
AcDbEntity
  8
0
  6
CONTINUOUS
 62
  133
370
   -1
100
AcDbLine
 10
-173.0819
 20
-298.2667
 11
-173.081899
 21
-298.2667
  0
LINE
  5
1A5
100
AcDbEntity
  8
T0000
  6
CONTINUOUS
 62
   92
370
   -1
100
AcDbLine
 10
-173.0819
 20
-298.2667
 11
-173.0819
 21
-40.4
  0
LWPOLYLINE
  5
1A6
100
AcDbEntity
  8
T0000
  6
CONTINUOUS
 62
   92
370
   -1
100
AcDbPolyline
 90
    3
 70
    1
 43
0
 10
-173.0819
 20
-166.33335
 10
-174.5819
 20
-172.33335
 42
-0.4000000000000021
 10
-171.5819
 20
-172.33335
  0
LINE
  5
1A7
100
AcDbEntity
  8
T0000
  6
CONTINUOUS
 62
  150
370
   -1
100
AcDbLine
 10
-170.0819
 20
-338.2667
 11
-176.0819
 21
-338.2667
  0
LINE
  5
1A8
100
AcDbEntity
  8
T0000
  6
CONTINUOUS
 62
  150
370
   -1
100
AcDbLine
 10
-176.0819
 20
-338.2667
 11
-176.0819
 21
-258.2667
  0
LINE
  5
1A9
100
AcDbEntity
  8
T0000
  6
CONTINUOUS
 62
  150
370
   -1
100
AcDbLine
 10
-176.0819
 20
-258.2667
 11
-170.0819
 21
-258.2667
  0
LINE
  5
1AA
100
AcDbEntity
  8
T0000
  6
CONTINUOUS
 62
  150
370
   -1
100
AcDbLine
 10
-170.0819
 20
-258.2667
 11
-170.0819
 21
-338.2667
  0
LINE
  5
1AB
100
AcDbEntity
  8
T0000
  6
CONTINUOUS
 62
  150
370
   -1
100
AcDbLine
 10
-170.0819
 20
-80.40000000000001
 11
-176.0819
 21
-80.40000000000001
  0
LINE
  5
1AC
100
AcDbEntity
  8
T0000
  6
CONTINUOUS
 62
  150
370
   -1
100
AcDbLine
 10
-176.0819
 20
-80.40000000000001
 11
-176.0819
 21
-0.3999999999999986
  0
LINE
  5
1AD
100
AcDbEntity
  8
T0000
  6
CONTINUOUS
 62
  150
370
   -1
100
AcDbLine
 10
-176.0819
 20
-0.3999999999999986
 11
-170.0819
 21
-0.3999999999999986
  0
LINE
  5
1AE
100
AcDbEntity
  8
T0000
  6
CONTINUOUS
 62
  150
370
   -1
100
AcDbLine
 10
-170.0819
 20
-0.3999999999999986
 11
-170.0819
 21
-80.40000000000001
  0
ENDBLK
  5
AF
330
AD
100
AcDbEntity
  8
0
100
AcDbBlockEnd
  0
BLOCK
  5
B1
330
B0
100
AcDbEntity
  8
0
100
AcDbBlockBegin
  2
KZ2_2052_3TERMO_ELEM000028
 70
    0
 10
0
 20
0
  3
KZ2_2052_3TERMO_ELEM000028
  1

  0
LINE
  5
1AF
100
AcDbEntity
  8
0
  6
CONTINUOUS
 62
  133
370
   -1
100
AcDbLine
 10
-173.0819
 20
40.4
 11
-173.081899
 21
40.4
  0
LINE
  5
1B0
100
AcDbEntity
  8
T0000
  6
CONTINUOUS
 62
   92
370
   -1
100
AcDbLine
 10
-173.0819
 20
40.4
 11
-173.0819
 21
298.2667
  0
LWPOLYLINE
  5
1B1
100
AcDbEntity
  8
T0000
  6
CONTINUOUS
 62
   92
370
   -1
100
AcDbPolyline
 90
    3
 70
    1
 43
0
 10
-173.0819
 20
172.33335
 10
-174.5819
 20
166.33335
 42
-0.4000000000000021
 10
-171.5819
 20
166.33335
  0
LINE
  5
1B2
100
AcDbEntity
  8
T0000
  6
CONTINUOUS
 62
  150
370
   -1
100
AcDbLine
 10
-170.0819
 20
0.3999999999999986
 11
-176.0819
 21
0.3999999999999986
  0
LINE
  5
1B3
100
AcDbEntity
  8
T0000
  6
CONTINUOUS
 62
  150
370
   -1
100
AcDbLine
 10
-176.0819
 20
0.3999999999999986
 11
-176.0819
 21
80.40000000000001
  0
LINE
  5
1B4
100
AcDbEntity
  8
T0000
  6
CONTINUOUS
 62
  150
370
   -1
100
AcDbLine
 10
-176.0819
 20
80.40000000000001
 11
-170.0819
 21
80.40000000000001
  0
LINE
  5
1B5
100
AcDbEntity
  8
T0000
  6
CONTINUOUS
 62
  150
370
   -1
100
AcDbLine
 10
-170.0819
 20
80.40000000000001
 11
-170.0819
 21
0.3999999999999986
  0
LINE
  5
1B6
100
AcDbEntity
  8
T0000
  6
CONTINUOUS
 62
  150
370
   -1
100
AcDbLine
 10
-170.0819
 20
258.2667
 11
-176.0819
 21
258.2667
  0
LINE
  5
1B7
100
AcDbEntity
  8
T0000
  6
CONTINUOUS
 62
  150
370
   -1
100
AcDbLine
 10
-176.0819
 20
258.2667
 11
-176.0819
 21
338.2667
  0
LINE
  5
1B8
100
AcDbEntity
  8
T0000
  6
CONTINUOUS
 62
  150
370
   -1
100
AcDbLine
 10
-176.0819
 20
338.2667
 11
-170.0819
 21
338.2667
  0
LINE
  5
1B9
100
AcDbEntity
  8
T0000
  6
CONTINUOUS
 62
  150
370
   -1
100
AcDbLine
 10
-170.0819
 20
338.2667
 11
-170.0819
 21
258.2667
  0
ENDBLK
  5
B2
330
B0
100
AcDbEntity
  8
0
100
AcDbBlockEnd
  0
BLOCK
  5
B4
330
B3
100
AcDbEntity
  8
0
100
AcDbBlockBegin
  2
KZ2_2052_3TERMO_ELEM000029
 70
    0
 10
0
 20
0
  3
KZ2_2052_3TERMO_ELEM000029
  1

  0
LINE
  5
1BA
100
AcDbEntity
  8
0
  6
CONTINUOUS
 62
  133
370
   -1
100
AcDbLine
 10
-173.0819
 20
379.0667
 11
-173.081899
 21
379.0667
  0
LINE
  5
1BB
100
AcDbEntity
  8
T0000
  6
CONTINUOUS
 62
   92
370
   -1
100
AcDbLine
 10
-173.0819
 20
379.0667
 11
-173.0819
 21
636.9333
  0
LWPOLYLINE
  5
1BC
100
AcDbEntity
  8
T0000
  6
CONTINUOUS
 62
   92
370
   -1
100
AcDbPolyline
 90
    3
 70
    1
 43
0
 10
-173.0819
 20
511
 10
-174.5819
 20
505
 42
-0.4000000000000021
 10
-171.5819
 20
505
  0
LINE
  5
1BD
100
AcDbEntity
  8
T0000
  6
CONTINUOUS
 62
  150
370
   -1
100
AcDbLine
 10
-170.0819
 20
339.0667
 11
-176.0819
 21
339.0667
  0
LINE
  5
1BE
100
AcDbEntity
  8
T0000
  6
CONTINUOUS
 62
  150
370
   -1
100
AcDbLine
 10
-176.0819
 20
339.0667
 11
-176.0819
 21
419.0667
  0
LINE
  5
1BF
100
AcDbEntity
  8
T0000
  6
CONTINUOUS
 62
  150
370
   -1
100
AcDbLine
 10
-176.0819
 20
419.0667
 11
-170.0819
 21
419.0667
  0
LINE
  5
1C0
100
AcDbEntity
  8
T0000
  6
CONTINUOUS
 62
  150
370
   -1
100
AcDbLine
 10
-170.0819
 20
419.0667
 11
-170.0819
 21
339.0667
  0
LINE
  5
1C1
100
AcDbEntity
  8
T0000
  6
CONTINUOUS
 62
  150
370
   -1
100
AcDbLine
 10
-170.0819
 20
596.9333
 11
-176.0819
 21
596.9333
  0
LINE
  5
1C2
100
AcDbEntity
  8
T0000
  6
CONTINUOUS
 62
  150
370
   -1
100
AcDbLine
 10
-176.0819
 20
596.9333
 11
-176.0819
 21
676.9333
  0
LINE
  5
1C3
100
AcDbEntity
  8
T0000
  6
CONTINUOUS
 62
  150
370
   -1
100
AcDbLine
 10
-176.0819
 20
676.9333
 11
-170.0819
 21
676.9333
  0
LINE
  5
1C4
100
AcDbEntity
  8
T0000
  6
CONTINUOUS
 62
  150
370
   -1
100
AcDbLine
 10
-170.0819
 20
676.9333
 11
-170.0819
 21
596.9333
  0
ENDBLK
  5
B5
330
B3
100
AcDbEntity
  8
0
100
AcDbBlockEnd
  0
BLOCK
  5
B7
330
B6
100
AcDbEntity
  8
0
100
AcDbBlockBegin
  2
KZ2_2052_3TERMO_ELEM000030
 70
    0
 10
0
 20
0
  3
KZ2_2052_3TERMO_ELEM000030
  1

  0
LINE
  5
1C5
100
AcDbEntity
  8
0
  6
CONTINUOUS
 62
  133
370
   -1
100
AcDbLine
 10
-173.0819
 20
717.7333
 11
-173.081899
 21
717.7333
  0
LINE
  5
1C6
100
AcDbEntity
  8
T0000
  6
CONTINUOUS
 62
   92
370
   -1
100
AcDbLine
 10
-173.0819
 20
717.7333
 11
-173.0819
 21
977.2850492995572
  0
LWPOLYLINE
  5
1C7
100
AcDbEntity
  8
T0000
  6
CONTINUOUS
 62
   92
370
   -1
100
AcDbPolyline
 90
    3
 70
    1
 43
0
 10
-173.0819
 20
850.5091746497785
 10
-174.5819
 20
844.5091746497785
 42
-0.3999999999999916
 10
-171.5819
 20
844.5091746497785
  0
LINE
  5
1C8
100
AcDbEntity
  8
T0000
  6
CONTINUOUS
 62
  150
370
   -1
100
AcDbLine
 10
-170.0819
 20
677.7333
 11
-176.0819
 21
677.7333
  0
LINE
  5
1C9
100
AcDbEntity
  8
T0000
  6
CONTINUOUS
 62
  150
370
   -1
100
AcDbLine
 10
-176.0819
 20
677.7333
 11
-176.0819
 21
757.7333
  0
LINE
  5
1CA
100
AcDbEntity
  8
T0000
  6
CONTINUOUS
 62
  150
370
   -1
100
AcDbLine
 10
-176.0819
 20
757.7333
 11
-170.0819
 21
757.7333
  0
LINE
  5
1CB
100
AcDbEntity
  8
T0000
  6
CONTINUOUS
 62
  150
370
   -1
100
AcDbLine
 10
-170.0819
 20
757.7333
 11
-170.0819
 21
677.7333
  0
LINE
  5
1CC
100
AcDbEntity
  8
T0000
  6
CONTINUOUS
 62
  150
370
   -1
100
AcDbLine
 10
-170.0819
 20
937.2850492995572
 11
-176.0819
 21
937.2850492995572
  0
LINE
  5
1CD
100
AcDbEntity
  8
T0000
  6
CONTINUOUS
 62
  150
370
   -1
100
AcDbLine
 10
-176.0819
 20
937.2850492995572
 11
-176.0819
 21
1017.285049299557
  0
LINE
  5
1CE
100
AcDbEntity
  8
T0000
  6
CONTINUOUS
 62
  150
370
   -1
100
AcDbLine
 10
-176.0819
 20
1017.285049299557
 11
-170.0819
 21
1017.285049299557
  0
LINE
  5
1CF
100
AcDbEntity
  8
T0000
  6
CONTINUOUS
 62
  150
370
   -1
100
AcDbLine
 10
-170.0819
 20
1017.285049299557
 11
-170.0819
 21
937.2850492995572
  0
ENDBLK
  5
B8
330
B6
100
AcDbEntity
  8
0
100
AcDbBlockEnd
  0
BLOCK
  5
BA
330
B9
100
AcDbEntity
  8
0
100
AcDbBlockBegin
  2
KZ2_2052_3TERMO_ELEM000031
 70
    0
 10
0
 20
0
  3
KZ2_2052_3TERMO_ELEM000031
  1

  0
LINE
  5
1D0
100
AcDbEntity
  8
0
  6
CONTINUOUS
 62
  133
370
   -1
100
AcDbLine
 10
-157.5819
 20
1021
 11
-157.581899
 21
1021
  0
LINE
  5
1D1
100
AcDbEntity
  8
T0000
  6
CONTINUOUS
 62
   92
370
   -1
100
AcDbLine
 10
-157.5819
 20
1021
 11
-159.0819
 21
1021
  0
LINE
  5
1D2
100
AcDbEntity
  8
T0000
  6
CONTINUOUS
 62
   92
370
   -1
100
AcDbLine
 10
-157.5819
 20
1021
 11
-156.0819
 21
1021
  0
LINE
  5
1D3
100
AcDbEntity
  8
T0000
  6
CONTINUOUS
 62
   92
370
   -1
100
AcDbLine
 10
-157.5819
 20
1019.5
 11
-157.5819
 21
1022.5
  0
LINE
  5
1D4
100
AcDbEntity
  8
T0000
  6
CONTINUOUS
 62
  150
370
   -1
100
AcDbLine
 10
-170.0819
 20
1018
 11
-170.0819
 21
1024
  0
LINE
  5
1D5
100
AcDbEntity
  8
T0000
  6
CONTINUOUS
 62
  150
370
   -1
100
AcDbLine
 10
-170.0819
 20
1024
 11
-145.0819
 21
1024
  0
LINE
  5
1D6
100
AcDbEntity
  8
T0000
  6
CONTINUOUS
 62
  150
370
   -1
100
AcDbLine
 10
-145.0819
 20
1024
 11
-145.0819
 21
1018
  0
LINE
  5
1D7
100
AcDbEntity
  8
T0000
  6
CONTINUOUS
 62
  150
370
   -1
100
AcDbLine
 10
-145.0819
 20
1018
 11
-170.0819
 21
1018
  0
ENDBLK
  5
BB
330
B9
100
AcDbEntity
  8
0
100
AcDbBlockEnd
  0
ENDSEC
  0
SECTION
  2
ENTITIES
  0
SPLINE
  5
1D8
100
AcDbEntity
  8
0
  6
ByLayer
 62
  256
370
   -1
100
AcDbSpline
210
0
220
0
230
0
 70
    8
 71
    2
 72
   16
 73
   13
 74
    0
 42
1e-07
 43
1e-07
 40
0
 40
0
 40
0
 40
0.09090909090909091
 40
0.1818181818181818
 40
0.2727272727272727
 40
0.3636363636363636
 40
0.4545454545454545
 40
0.5454545454545454
 40
0.6363636363636364
 40
0.7272727272727273
 40
0.8181818181818182
 40
0.9090909090909091
 40
1
 40
1
 40
1
 10
-1389.093060180382
 20
266.9237645052498
 30
0
 10
-440.3950884672378
 20
1519.93063628889
 30
0
 10
1167.444428832964
 20
-272.6469679353787
 30
0
 10
2063.617570730561
 20
1350.429728087408
 30
0
 10
16.79518795963091
 20
1842.387790604817
 30
0
 10
-2323.903263894261
 20
1468.443290509035
 30
0
 10
-1378.845318688841
 20
1123.853686673752
 30
0
 10
-1014.709672746049
 20
1540.732612206007
 30
0
 10
-1032.922733984965
 20
944.9873989372608
 30
0
 10
-2176.177546463909
 20
950.8223338155664
 30
0
 10
-2140.387942978069
 20
1960.789583556816
 30
0
 10
-1050.782986665927
 20
2017.213442844225
 30
0
 10
-691.8228182074841
 20
1890.256046598402
 30
0
  0
ENDSEC
  0
SECTION
  2
OBJECTS
  0
DICTIONARY
  5
C
330
0
100
AcDbDictionary
281
    1
  3
ACAD_GROUP
350
D
  0
DICTIONARY
  5
D
330
C
100
AcDbDictionary
281
    1
  0
ENDSEC
  0
EOF
