999
dxfrw 0.6.3
  0
SECTION
  2
HEADER
  9
$ACADVER
  1
AC1021
  9
$DWGCODEPAGE
  3
ANSI_1252
  9
$INSBASE
 10
0
 20
0
 30
0
  9
$EXTMIN
 10
-6.199901703141109e-15
 20
-0.233333333333338
 30
0
  9
$EXTMAX
 10
7.80317
 20
4.9675
 30
0
  9
$LIMMIN
 10
0
 20
0
  9
$LIMMAX
 10
420
 20
297
  9
$ORTHOMODE
 70
    0
  9
$REGENMODE
 70
    1
  9
$FILLMODE
 70
    1
  9
$QTEXTMODE
 70
    0
  9
$MIRRTEXT
 70
    0
  9
$LTSCALE
 40
1
  9
$ATTMODE
 70
    0
  9
$TEXTSIZE
 40
2.5
  9
$TRACEWID
 40
15.68
  9
$TEXTSTYLE
  7
STANDARD
  9
$CLAYER
  8
0
  9
$CELTYPE
  6
BYLAYER
  9
$CECOLOR
 62
  256
  9
$CELTSCALE
 40
1
  9
$DISPSILH
 70
    0
  9
$DIMSCALE
 40
2.5
  9
$DIMASZ
 40
2.5
  9
$DIMEXO
 40
0.625
  9
$DIMDLI
 40
3.75
  9
$DIMRND
 40
0
  9
$DIMDLE
 40
0
  9
$DIMEXE
 40
1.25
  9
$DIMTP
 40
0
  9
$DIMTM
 40
0
  9
$DIMTXT
 40
2.5
  9
$DIMCEN
 40
2.5
  9
$DIMTSZ
 40
0
  9
$DIMTOL
 70
    0
  9
$DIMLIM
 70
    0
  9
$DIMTIH
 70
    0
  9
$DIMTOH
 70
    0
  9
$DIMSE1
 70
    0
  9
$DIMSE2
 70
    0
  9
$DIMTAD
 70
    1
  9
$DIMZIN
 70
    8
  9
$DIMBLK
  1

  9
$DIMASO
 70
    1
  9
$DIMSHO
 70
    1
  9
$DIMPOST
  1

  9
$DIMAPOST
  1

  9
$DIMALT
 70
    0
  9
$DIMALTD
 70
    3
  9
$DIMALTF
 40
0.03937
  9
$DIMLFAC
 40
1
  9
$DIMTOFL
 70
    1
  9
$DIMTVP
 40
0
  9
$DIMTIX
 70
    0
  9
$DIMSOXD
 70
    0
  9
$DIMSAH
 70
    0
  9
$DIMBLK1
  1

  9
$DIMBLK2
  1

  9
$DIMSTYLE
  2
Standard
  9
$DIMCLRD
 70
    0
  9
$DIMCLRE
 70
    0
  9
$DIMCLRT
 70
    0
  9
$DIMTFAC
 40
1
  9
$DIMGAP
 40
0.625
  9
$DIMJUST
 70
    0
  9
$DIMSD1
 70
    0
  9
$DIMSD2
 70
    0
  9
$DIMTOLJ
 70
    0
  9
$DIMTZIN
 70
    8
  9
$DIMALTZ
 70
    0
  9
$DIMALTTZ
 70
    0
  9
$DIMUPT
 70
    0
  9
$DIMDEC
 70
    2
  9
$DIMTDEC
 70
    2
  9
$DIMALTU
 70
    2
  9
$DIMALTTD
 70
    3
  9
$DIMTXSTY
  7
STANDARD
  9
$DIMAUNIT
 70
    0
  9
$DIMADEC
 70
    0
  9
$DIMALTRND
 40
0
  9
$DIMAZIN
 70
    0
  9
$DIMDSEP
 70
   44
  9
$DIMATFIT
 70
    3
  9
$DIMFRAC
 70
    0
  9
$DIMLDRBLK
  1
STANDARD
  9
$DIMLUNIT
 70
    2
  9
$DIMLWD
 70
   -2
  9
$DIMLWE
 70
   -2
  9
$DIMTMOVE
 70
    0
  9
$DIMFXL
 40
1
  9
$DIMFXLON
 70
    0
  9
$DIMJOGANG
 40
0.7854
  9
$DIMTFILL
 70
    0
  9
$DIMTFILLCLR
 70
    0
  9
$DIMARCSYM
 70
    0
  9
$DIMLTYPE
  6

  9
$DIMLTEX1
  6

  9
$DIMLTEX2
  6

  9
$LUNITS
 70
    2
  9
$LUPREC
 70
    4
  9
$SKETCHINC
 40
1
  9
$FILLETRAD
 40
0
  9
$AUNITS
 70
    0
  9
$AUPREC
 70
    2
  9
$MENU
  1
.
  9
$ELEVATION
 40
0
  9
$PELEVATION
 40
0
  9
$THICKNESS
 40
0
  9
$LIMCHECK
 70
    0
  9
$CHAMFERA
 40
0
  9
$CHAMFERB
 40
0
  9
$CHAMFERC
 40
0
  9
$CHAMFERD
 40
0
  9
$SKPOLY
 70
    0
  9
$USRTIMER
 70
    1
  9
$ANGBASE
 50
0
  9
$ANGDIR
 70
    0
  9
$PDMODE
 70
   34
  9
$PDSIZE
 40
0
  9
$PLINEWID
 40
0
  9
$SPLFRAME
 70
    0
  9
$SPLINETYPE
 70
    2
  9
$SPLINESEGS
 70
    8
  9
$HANDSEED
  5
20000
  9
$SURFTAB1
 70
    6
  9
$SURFTAB2
 70
    6
  9
$SURFTYPE
 70
    6
  9
$SURFU
 70
    6
  9
$SURFV
 70
    6
  9
$UCSBASE
  2

  9
$UCSNAME
  2

  9
$UCSORG
 10
0
 20
0
 30
0
  9
$UCSXDIR
 10
1
 20
0
 30
0
  9
$UCSYDIR
 10
0
 20
1
 30
0
  9
$UCSORTHOREF
  2

  9
$UCSORTHOVIEW
 70
    0
  9
$UCSORGTOP
 10
0
 20
0
 30
0
  9
$UCSORGBOTTOM
 10
0
 20
0
 30
0
  9
$UCSORGLEFT
 10
0
 20
0
 30
0
  9
$UCSORGRIGHT
 10
0
 20
0
 30
0
  9
$UCSORGFRONT
 10
0
 20
0
 30
0
  9
$UCSORGBACK
 10
0
 20
0
 30
0
  9
$PUCSBASE
  2

  9
$PUCSNAME
  2

  9
$PUCSORG
 10
0
 20
0
 30
0
  9
$PUCSXDIR
 10
1
 20
0
 30
0
  9
$PUCSYDIR
 10
0
 20
1
 30
0
  9
$PUCSORTHOREF
  2

  9
$PUCSORTHOVIEW
 70
    0
  9
$PUCSORGTOP
 10
0
 20
0
 30
0
  9
$PUCSORGBOTTOM
 10
0
 20
0
 30
0
  9
$PUCSORGLEFT
 10
0
 20
0
 30
0
  9
$PUCSORGRIGHT
 10
0
 20
0
 30
0
  9
$PUCSORGFRONT
 10
0
 20
0
 30
0
  9
$PUCSORGBACK
 10
0
 20
0
 30
0
  9
$USERI1
 70
    0
  9
$USERI2
 70
    0
  9
$USERI3
 70
    0
  9
$USERI4
 70
    0
  9
$USERI5
 70
    0
  9
$USERR1
 40
0
  9
$USERR2
 40
0
  9
$USERR3
 40
0
  9
$USERR4
 40
0
  9
$USERR5
 40
0
  9
$WORLDVIEW
 70
    1
  9
$SHADEDGE
 70
    3
  9
$SHADEDIF
 70
   70
  9
$TILEMODE
 70
    1
  9
$MAXACTVP
 70
   64
  9
$PINSBASE
 10
0
 20
0
 30
0
  9
$PLIMCHECK
 70
    0
  9
$PEXTMIN
 10
0
 20
0
 30
0
  9
$PEXTMAX
 10
0
 20
0
 30
0
  9
$SNAPSTYLE
 70
    0
  9
$PLIMMIN
 10
0
 20
0
  9
$PLIMMAX
 10
210
 20
297
  9
$UNITMODE
 70
    0
  9
$VISRETAIN
 70
    1
  9
$PLINEGEN
 70
    0
  9
$PSLTSCALE
 70
    1
  9
$TREEDEPTH
 70
 3020
  9
$CMLSTYLE
  2
Standard
  9
$CMLJUST
 70
    0
  9
$CMLSCALE
 40
20
  9
$PROXYGRAPHICS
 70
    1
  9
$MEASUREMENT
 70
    1
  9
$CELWEIGHT
370
   -1
  9
$ENDCAPS
280
    0
  9
$JOINSTYLE
280
    0
  9
$LWDISPLAY
290
    0
  9
$INSUNITS
 70
    0
  9
$HYPERLINKBASE
  1

  9
$STYLESHEET
  1

  9
$XEDIT
290
    1
  9
$CEPSNTYPE
380
    0
  9
$PSTYLEMODE
290
    1
  9
$EXTNAMES
290
    1
  9
$PSVPSCALE
 40
1
  9
$OLESTARTUP
290
    0
  9
$SORTENTS
280
  127
  9
$INDEXCTL
280
    0
  9
$HIDETEXT
280
    1
  9
$XCLIPFRAME
290
    0
  9
$HALOGAP
280
    0
  9
$OBSCOLOR
 70
  257
  9
$OBSLTYPE
280
    0
  9
$INTERSECTIONDISPLAY
280
    0
  9
$INTERSECTIONCOLOR
 70
  257
  9
$DIMASSOC
280
    1
  9
$PROJECTNAME
  1

  9
$CAMERADISPLAY
290
    0
  9
$LENSLENGTH
 40
50
  9
$CAMERAHEIGHT
 40
0
  9
$STEPSPERSEC
 40
2
  9
$STEPSIZE
 40
50
  9
$3DDWFPREC
 40
2
  9
$PSOLWIDTH
 40
5
  9
$PSOLHEIGHT
 40
80
  9
$LOFTANG1
 40
1.570796326794897
  9
$LOFTANG2
 40
1.570796326794897
  9
$LOFTMAG1
 40
0
  9
$LOFTMAG2
 40
0
  9
$LOFTPARAM
 70
    7
  9
$LOFTNORMALS
280
    1
  9
$LATITUDE
 40
1
  9
$LONGITUDE
 40
1
  9
$NORTHDIRECTION
 40
0
  9
$TIMEZONE
 70
-8000
  9
$LIGHTGLYPHDISPLAY
280
    1
  9
$TILEMODELIGHTSYNCH
280
    1
  9
$SOLIDHIST
280
    1
  9
$SHOWHIST
280
    1
  9
$DWFFRAME
280
    2
  9
$DGNFRAME
280
    0
  9
$REALWORLDSCALE
290
    1
  9
$INTERFERECOLOR
 62
    1
  9
$CSHADOW
280
    0
  9
$SHADOWPLANELOCATION
 40
0
  0
ENDSEC
  0
SECTION
  2
CLASSES
  0
ENDSEC
  0
SECTION
  2
TABLES
  0
TABLE
  2
VPORT
  5
8
330
0
100
AcDbSymbolTable
 70
    1
  0
VPORT
  5
31
330
2
100
AcDbSymbolTableRecord
100
AcDbViewportTableRecord
  2
*ACTIVE
 70
    0
 10
0
 20
0
 11
1
 21
1
 12
6.965900083200032
 22
4.147327795200019
 13
0
 23
0
 14
10
 24
10
 15
10
 25
10
 16
0
 26
0
 36
1
 17
0
 27
0
 37
0
 40
9.985798963200045
 41
2.524193548387097
 42
50
 43
0
 44
0
 50
0
 51
0
 71
    0
 72
  100
 73
    1
 74
    3
 75
    0
 76
    1
 77
    0
 78
    0
281
    0
 65
    1
110
0
120
0
130
0
111
1
121
0
131
0
112
0
122
1
132
0
 79
    0
146
0
348
10020
 60
    7
 61
    5
292
1
282
    1
141
0
142
0
 63
  250
421
3358443
  0
ENDTAB
  0
TABLE
  2
LTYPE
  5
5
330
0
100
AcDbSymbolTable
 70
    4
  0
LTYPE
  5
14
330
5
100
AcDbSymbolTableRecord
100
AcDbLinetypeTableRecord
  2
ByBlock
 70
    0
  3

 72
   65
 73
    0
 40
0
  0
LTYPE
  5
15
330
5
100
AcDbSymbolTableRecord
100
AcDbLinetypeTableRecord
  2
ByLayer
 70
    0
  3

 72
   65
 73
    0
 40
0
  0
LTYPE
  5
16
330
5
100
AcDbSymbolTableRecord
100
AcDbLinetypeTableRecord
  2
Continuous
 70
    0
  3
Solid line
 72
   65
 73
    0
 40
0
  0
LTYPE
  5
32
330
5
100
AcDbSymbolTableRecord
100
AcDbLinetypeTableRecord
  2
DOT
 70
    0
  3
Dot . . . . . . . . . . . . . . . . . . . . . .
 72
   65
 73
    2
 40
6.35
 49
0
 74
    0
 49
-6.35
 74
    0
  0
LTYPE
  5
33
330
5
100
AcDbSymbolTableRecord
100
AcDbLinetypeTableRecord
  2
DOTTINY
 70
    0
  3
Dot (.15x) .....................................
 72
   65
 73
    2
 40
0.9525
 49
0
 74
    0
 49
-0.9525
 74
    0
  0
LTYPE
  5
34
330
5
100
AcDbSymbolTableRecord
100
AcDbLinetypeTableRecord
  2
DOT2
 70
    0
  3
Dot (.5x) .....................................
 72
   65
 73
    2
 40
3.175
 49
0
 74
    0
 49
-3.175
 74
    0
  0
LTYPE
  5
35
330
5
100
AcDbSymbolTableRecord
100
AcDbLinetypeTableRecord
  2
DOTX2
 70
    0
  3
Dot (2x) .  .  .  .  .  .  .  .  .  .  .  .  .
 72
   65
 73
    2
 40
12.7
 49
0
 74
    0
 49
-12.7
 74
    0
  0
LTYPE
  5
36
330
5
100
AcDbSymbolTableRecord
100
AcDbLinetypeTableRecord
  2
DASHED
 70
    0
  3
Dashed _ _ _ _ _ _ _ _ _ _ _ _ _ _ _ _ _
 72
   65
 73
    2
 40
19.05
 49
12.7
 74
    0
 49
-6.35
 74
    0
  0
LTYPE
  5
37
330
5
100
AcDbSymbolTableRecord
100
AcDbLinetypeTableRecord
  2
DASHEDTINY
 70
    0
  3
Dashed (.15x) _ _ _ _ _ _ _ _ _ _ _ _ _ _ _ _ _
 72
   65
 73
    2
 40
2.8575
 49
1.905
 74
    0
 49
-0.9525
 74
    0
  0
LTYPE
  5
38
330
5
100
AcDbSymbolTableRecord
100
AcDbLinetypeTableRecord
  2
DASHED2
 70
    0
  3
Dashed (.5x) _ _ _ _ _ _ _ _ _ _ _ _ _ _ _ _ _
 72
   65
 73
    2
 40
9.524999999999999
 49
6.35
 74
    0
 49
-3.175
 74
    0
  0
LTYPE
  5
39
330
5
100
AcDbSymbolTableRecord
100
AcDbLinetypeTableRecord
  2
DASHEDX2
 70
    0
  3
Dashed (2x) ____  ____  ____  ____  ____  ___
 72
   65
 73
    2
 40
38.09999999999999
 49
25.4
 74
    0
 49
-12.7
 74
    0
  0
LTYPE
  5
3A
330
5
100
AcDbSymbolTableRecord
100
AcDbLinetypeTableRecord
  2
DASHDOT
 70
    0
  3
Dash dot __ . __ . __ . __ . __ . __ . __ . __
 72
   65
 73
    4
 40
25.4
 49
12.7
 74
    0
 49
-6.35
 74
    0
 49
0
 74
    0
 49
-6.35
 74
    0
  0
LTYPE
  5
3B
330
5
100
AcDbSymbolTableRecord
100
AcDbLinetypeTableRecord
  2
DASHDOTTINY
 70
    0
  3
Dash dot (.15x) _._._._._._._._._._._._._._._.
 72
   65
 73
    4
 40
3.81
 49
1.905
 74
    0
 49
-0.9525
 74
    0
 49
0
 74
    0
 49
-0.9525
 74
    0
  0
LTYPE
  5
3C
330
5
100
AcDbSymbolTableRecord
100
AcDbLinetypeTableRecord
  2
DASHDOT2
 70
    0
  3
Dash dot (.5x) _._._._._._._._._._._._._._._.
 72
   65
 73
    4
 40
12.7
 49
6.35
 74
    0
 49
-3.175
 74
    0
 49
0
 74
    0
 49
-3.175
 74
    0
  0
LTYPE
  5
3D
330
5
100
AcDbSymbolTableRecord
100
AcDbLinetypeTableRecord
  2
DASHDOTX2
 70
    0
  3
Dash dot (2x) ____  .  ____  .  ____  .  ___
 72
   65
 73
    4
 40
50.8
 49
25.4
 74
    0
 49
-12.7
 74
    0
 49
0
 74
    0
 49
-12.7
 74
    0
  0
LTYPE
  5
3E
330
5
100
AcDbSymbolTableRecord
100
AcDbLinetypeTableRecord
  2
DIVIDE
 70
    0
  3
Divide ____ . . ____ . . ____ . . ____ . . ____
 72
   65
 73
    6
 40
31.75
 49
12.7
 74
    0
 49
-6.35
 74
    0
 49
0
 74
    0
 49
-6.35
 74
    0
 49
0
 74
    0
 49
-6.35
 74
    0
  0
LTYPE
  5
3F
330
5
100
AcDbSymbolTableRecord
100
AcDbLinetypeTableRecord
  2
DIVIDETINY
 70
    0
  3
Divide (.15x) __..__..__..__..__..__..__..__.._
 72
   65
 73
    6
 40
4.7625
 49
1.905
 74
    0
 49
-0.9525
 74
    0
 49
0
 74
    0
 49
-0.9525
 74
    0
 49
0
 74
    0
 49
-0.9525
 74
    0
  0
LTYPE
  5
40
330
5
100
AcDbSymbolTableRecord
100
AcDbLinetypeTableRecord
  2
DIVIDE2
 70
    0
  3
Divide (.5x) __..__..__..__..__..__..__..__.._
 72
   65
 73
    6
 40
15.875
 49
6.35
 74
    0
 49
-3.175
 74
    0
 49
0
 74
    0
 49
-3.175
 74
    0
 49
0
 74
    0
 49
-3.175
 74
    0
  0
LTYPE
  5
41
330
5
100
AcDbSymbolTableRecord
100
AcDbLinetypeTableRecord
  2
DIVIDEX2
 70
    0
  3
Divide (2x) ________  .  .  ________  .  .  _
 72
   65
 73
    6
 40
63.5
 49
25.4
 74
    0
 49
-12.7
 74
    0
 49
0
 74
    0
 49
-12.7
 74
    0
 49
0
 74
    0
 49
-12.7
 74
    0
  0
LTYPE
  5
42
330
5
100
AcDbSymbolTableRecord
100
AcDbLinetypeTableRecord
  2
BORDER
 70
    0
  3
Border __ __ . __ __ . __ __ . __ __ . __ __ .
 72
   65
 73
    6
 40
44.45
 49
12.7
 74
    0
 49
-6.35
 74
    0
 49
12.7
 74
    0
 49
-6.35
 74
    0
 49
0
 74
    0
 49
-6.35
 74
    0
  0
LTYPE
  5
43
330
5
100
AcDbSymbolTableRecord
100
AcDbLinetypeTableRecord
  2
BORDERTINY
 70
    0
  3
Border (.15x) __.__.__.__.__.__.__.__.__.__.__.
 72
   65
 73
    6
 40
6.6675
 49
1.905
 74
    0
 49
-0.9525
 74
    0
 49
1.905
 74
    0
 49
-0.9525
 74
    0
 49
0
 74
    0
 49
-0.9525
 74
    0
  0
LTYPE
  5
44
330
5
100
AcDbSymbolTableRecord
100
AcDbLinetypeTableRecord
  2
BORDER2
 70
    0
  3
Border (.5x) __.__.__.__.__.__.__.__.__.__.__.
 72
   65
 73
    6
 40
22.225
 49
6.35
 74
    0
 49
-3.175
 74
    0
 49
6.35
 74
    0
 49
-3.175
 74
    0
 49
0
 74
    0
 49
-3.175
 74
    0
  0
LTYPE
  5
45
330
5
100
AcDbSymbolTableRecord
100
AcDbLinetypeTableRecord
  2
BORDERX2
 70
    0
  3
Border (2x) ____  ____  .  ____  ____  .  ___
 72
   65
 73
    6
 40
88.89999999999999
 49
25.4
 74
    0
 49
-12.7
 74
    0
 49
25.4
 74
    0
 49
-12.7
 74
    0
 49
0
 74
    0
 49
-12.7
 74
    0
  0
LTYPE
  5
46
330
5
100
AcDbSymbolTableRecord
100
AcDbLinetypeTableRecord
  2
CENTER
 70
    0
  3
Center ____ _ ____ _ ____ _ ____ _ ____ _ ____
 72
   65
 73
    4
 40
50.8
 49
31.75
 74
    0
 49
-6.35
 74
    0
 49
6.35
 74
    0
 49
-6.35
 74
    0
  0
LTYPE
  5
47
330
5
100
AcDbSymbolTableRecord
100
AcDbLinetypeTableRecord
  2
CENTERTINY
 70
    0
  3
Center (.15x) ___ _ ___ _ ___ _ ___ _ ___ _ ___
 72
   65
 73
    4
 40
7.619999999999999
 49
4.7625
 74
    0
 49
-0.9525
 74
    0
 49
0.9525
 74
    0
 49
-0.9525
 74
    0
  0
LTYPE
  5
48
330
5
100
AcDbSymbolTableRecord
100
AcDbLinetypeTableRecord
  2
CENTER2
 70
    0
  3
Center (.5x) ___ _ ___ _ ___ _ ___ _ ___ _ ___
 72
   65
 73
    4
 40
28.575
 49
19.05
 74
    0
 49
-3.175
 74
    0
 49
3.175
 74
    0
 49
-3.175
 74
    0
  0
LTYPE
  5
49
330
5
100
AcDbSymbolTableRecord
100
AcDbLinetypeTableRecord
  2
CENTERX2
 70
    0
  3
Center (2x) ________  __  ________  __  _____
 72
   65
 73
    4
 40
101.6
 49
63.5
 74
    0
 49
-12.7
 74
    0
 49
12.7
 74
    0
 49
-12.7
 74
    0
  0
ENDTAB
  0
TABLE
  2
LAYER
  5
2
330
0
100
AcDbSymbolTable
 70
    1
  0
LAYER
  5
10
330
2
100
AcDbSymbolTableRecord
100
AcDbLayerTableRecord
  2
0
 70
    0
 62
    7
  6
CONTINUOUS
370
    0
390
F
  0
LAYER
  5
4A
330
2
100
AcDbSymbolTableRecord
100
AcDbLayerTableRecord
  2
a
 70
    0
 62
    7
  6
CONTINUOUS
370
   -3
390
F
  0
LAYER
  5
4B
330
2
100
AcDbSymbolTableRecord
100
AcDbLayerTableRecord
  2
b
 70
    0
 62
    7
  6
CONTINUOUS
370
   -3
390
F
  0
LAYER
  5
4C
330
2
100
AcDbSymbolTableRecord
100
AcDbLayerTableRecord
  2
c
 70
    0
 62
    7
  6
CONTINUOUS
370
   -3
390
F
  0
LAYER
  5
4D
330
2
100
AcDbSymbolTableRecord
100
AcDbLayerTableRecord
  2
construction
 70
    0
 62
    5
  6
CONTINUOUS
370
   -3
390
F
  0
LAYER
  5
4E
330
2
100
AcDbSymbolTableRecord
100
AcDbLayerTableRecord
  2
grid
 70
    0
 62
    3
  6
CONTINUOUS
370
   -3
390
F
  0
LAYER
  5
4F
330
2
100
AcDbSymbolTableRecord
100
AcDbLayerTableRecord
  2
labels
 70
    0
 62
    1
  6
CONTINUOUS
370
   -3
390
F
  0
LAYER
  5
50
330
2
100
AcDbSymbolTableRecord
100
AcDbLayerTableRecord
  2
profile
 70
    0
 62
    7
  6
CONTINUOUS
370
   -3
390
F
  0
ENDTAB
  0
TABLE
  2
STYLE
  5
3
330
0
100
AcDbSymbolTable
 70
    3
  0
STYLE
  5
51
330
2
100
AcDbSymbolTableRecord
100
AcDbTextStyleTableRecord
  2
Standard
 70
    0
 40
0
 41
1
 50
0
 71
    0
 42
1
  3
txt
  4

  0
ENDTAB
  0
TABLE
  2
VIEW
  5
6
330
0
100
AcDbSymbolTable
 70
    0
  0
ENDTAB
  0
TABLE
  2
UCS
  5
7
330
0
100
AcDbSymbolTable
 70
    0
  0
ENDTAB
  0
TABLE
  2
APPID
  5
9
330
0
100
AcDbSymbolTable
 70
    1
  0
APPID
  5
12
330
9
100
AcDbSymbolTableRecord
100
AcDbRegAppTableRecord
  2
ACAD
 70
    0
  0
APPID
  5
52
330
9
100
AcDbSymbolTableRecord
100
AcDbRegAppTableRecord
  2
LibreCad
 70
    0
  0
ENDTAB
  0
TABLE
  2
DIMSTYLE
  5
A
330
0
100
AcDbSymbolTable
 70
    1
100
AcDbDimStyleTable
 71
    1
  0
DIMSTYLE
105
53
330
A
100
AcDbSymbolTableRecord
100
AcDbDimStyleTableRecord
  2
Standard
 70
    0
 40
1
 41
2.5
 42
0.625
 43
0.38
 44
1.25
 45
0
 46
0
 47
0
 48
0
 49
1
140
2.5
141
0.09
142
2.5
143
25.4
144
1
145
0
146
1
147
0.625
148
0
 71
    0
 72
    0
 73
    0
 74
    1
 75
    0
 76
    0
 77
    0
 78
    1
 79
    0
170
    0
171
    2
172
    0
173
    0
174
    0
175
    0
176
    0
177
    0
178
    0
179
    0
271
    2
272
    4
273
    2
274
    2
275
    0
276
    0
277
    2
278
    0
279
    0
280
    0
281
    0
282
    0
283
    1
284
    0
285
    0
286
    0
288
    0
289
    3
340
standard
341

371
   -2
372
   -2
  0
ENDTAB
  0
TABLE
  2
BLOCK_RECORD
  5
1
330
0
100
AcDbSymbolTable
 70
    2
  0
BLOCK_RECORD
  5
1F
330
1
100
AcDbSymbolTableRecord
100
AcDbBlockTableRecord
  2
*Model_Space
 70
    0
280
    1
281
    0
  0
BLOCK_RECORD
  5
1E
330
1
100
AcDbSymbolTableRecord
100
AcDbBlockTableRecord
  2
*Paper_Space
 70
    0
280
    1
281
    0
  0
ENDTAB
  0
ENDSEC
  0
SECTION
  2
BLOCKS
  0
BLOCK
  5
20
330
1F
100
AcDbEntity
  8
0
100
AcDbBlockBegin
  2
*Model_Space
 70
    0
 10
0
 20
0
 30
0
  3
*Model_Space
  1

  0
ENDBLK
  5
21
330
1F
100
AcDbEntity
  8
0
100
AcDbBlockEnd
  0
BLOCK
  5
1C
330
1B
100
AcDbEntity
  8
0
100
AcDbBlockBegin
  2
*Paper_Space
 70
    0
 10
0
 20
0
 30
0
  3
*Paper_Space
  1

  0
ENDBLK
  5
1D
330
1F
100
AcDbEntity
  8
0
100
AcDbBlockEnd
  0
ENDSEC
  0
SECTION
  2
ENTITIES
  0
LWPOLYLINE
  5
54
100
AcDbEntity
  8
a
  6
ByLayer
 62
  256
370
   -1
100
AcDbPolyline
 90
  540
 70
    1
 43
0
 10
4.57537
 20
2.67021
 10
4.58711
 20
2.64472
 10
4.59742
 20
2.6354
 10
4.60749
 20
2.62894
 10
4.6273
 20
2.62026
 10
4.64696
 20
2.6133
 10
4.66628
 20
2.61165
 10
4.70508
 20
2.60542
 10
4.744
 20
2.59623
 10
4.78297
 20
2.58459
 10
4.82194
 20
2.57076
 10
4.86088
 20
2.55491
 10
4.89974
 20
2.53715
 10
4.93848
 20
2.51756
 10
4.96744
 20
2.50172
 10
4.95722
 20
2.25802
 10
4.92704
 20
2.24465
 10
4.8868
 20
2.22838
 10
4.84659
 20
2.21393
 10
4.80646
 20
2.20139
 10
4.76647
 20
2.19087
 10
4.72666
 20
2.18253
 10
4.68711
 20
2.17664
 10
4.64793
 20
2.17367
 10
4.62853
 20
2.17364
 10
4.60836
 20
2.16835
 10
4.5879
 20
2.16136
 10
4.57732
 20
2.15577
 10
4.56626
 20
2.14734
 10
4.55243
 20
2.12292
 10
4.513
 20
1.94359
 10
4.51532
 20
1.91562
 10
4.52182
 20
1.90333
 10
4.52907
 20
1.89383
 10
4.54472
 20
1.87889
 10
4.56081
 20
1.86563
 10
4.5784
 20
1.85747
 10
4.61273
 20
1.83834
 10
4.64616
 20
1.8164
 10
4.6788
 20
1.79213
 10
4.71069
 20
1.76581
 10
4.74186
 20
1.73759
 10
4.7723
 20
1.70761
 10
4.80201
 20
1.67596
 10
4.8238
 20
1.65116
 10
4.73085
 20
1.42565
 10
4.69792
 20
1.42342
 10
4.65453
 20
1.42189
 10
4.61181
 20
1.42206
 10
4.56981
 20
1.424
 10
4.52863
 20
1.4278
 10
4.48837
 20
1.43358
 10
4.44919
 20
1.44157
 10
4.41136
 20
1.45218
 10
4.39312
 20
1.45878
 10
4.37236
 20
1.46071
 10
4.35073
 20
1.46114
 10
4.33889
 20
1.45951
 10
4.32561
 20
1.45537
 10
4.30426
 20
1.43716
 10
4.20588
 20
1.28212
 10
4.19849
 20
1.25505
 10
4.20039
 20
1.24128
 10
4.20396
 20
1.22986
 10
4.21355
 20
1.21048
 10
4.22414
 20
1.19251
 10
4.23788
 20
1.17882
 10
4.26359
 20
1.14911
 10
4.2875
 20
1.11706
 10
4.30987
 20
1.08309
 10
4.33084
 20
1.04745
 10
4.35048
 20
1.01027
 10
4.36883
 20
0.9716900000000001
 10
4.38592
 20
0.9317800000000001
 10
4.39791
 20
0.90103
 10
4.23344
 20
0.7209100000000001
 10
4.20173
 20
0.73007
 10
4.16044
 20
0.74347
 10
4.12035
 20
0.75825
 10
4.08155
 20
0.77444
 10
4.04415
 20
0.79209
 10
4.0083
 20
0.81129
 10
3.97421
 20
0.8322000000000001
 10
3.94229
 20
0.85511
 10
3.92741
 20
0.86755
 10
3.90856
 20
0.87647
 10
3.88839
 20
0.88427
 10
3.8767
 20
0.88678
 10
3.86281
 20
0.8874300000000001
 10
3.83652
 20
0.87762
 10
3.69104
 20
0.76559
 10
3.67484
 20
0.74268
 10
3.67191
 20
0.72908
 10
3.67136
 20
0.71713
 10
3.67375
 20
0.69564
 10
3.67755
 20
0.67514
 10
3.68578
 20
0.65757
 10
3.69978
 20
0.62086
 10
3.71128
 20
0.58256
 10
3.72069
 20
0.54299
 10
3.7282
 20
0.50232
 10
3.73394
 20
0.46068
 10
3.73799
 20
0.41814
 10
3.7404
 20
0.3748
 10
3.74115
 20
0.3418
 10
3.525
 20
0.22879
 10
3.49833
 20
0.24825
 10
3.46411
 20
0.27496
 10
3.4315
 20
0.30256
 10
3.40057
 20
0.33104
 10
3.37147
 20
0.36042
 10
3.34434
 20
0.39073
 10
3.31946
 20
0.42203
 10
3.2973
 20
0.45448
 10
3.28758
 20
0.47126
 10
3.27291
 20
0.48609
 10
3.25662
 20
0.50031
 10
3.2465
 20
0.50668
 10
3.23367
 20
0.5120400000000001
 10
3.20561
 20
0.51181
 10
3.03058
 20
0.45629
 10
3.00752
 20
0.4403
 10
3.00013
 20
0.42852
 10
2.99552
 20
0.41749
 10
2.99041
 20
0.39647
 10
2.98697
 20
0.3759
 10
2.9887
 20
0.35659
 10
2.9893
 20
0.3173
 10
2.98701
 20
0.27738
 10
2.98232
 20
0.23698
 10
2.97546
 20
0.19619
 10
2.96661
 20
0.15509
 10
2.95587
 20
0.11374
 10
2.94331
 20
0.07219
 10
2.93273
 20
0.04092
 10
2.69096
 20
0.008659999999999999
 10
2.67256
 20
0.03606
 10
2.64954
 20
0.07287
 10
2.62833
 20
0.10995
 10
2.60901
 20
0.1473
 10
2.59171
 20
0.18486
 10
2.57659
 20
0.22261
 10
2.56391
 20
0.26054
 10
2.55419
 20
0.29861
 10
2.55079
 20
0.31771
 10
2.54208
 20
0.33665
 10
2.53164
 20
0.35559
 10
2.5243
 20
0.36504
 10
2.51407
 20
0.37446
 10
2.48763
 20
0.38384
 10
2.30417
 20
0.39153
 10
2.27703
 20
0.3844
 10
2.26606
 20
0.37586
 10
2.25795
 20
0.36706
 10
2.24596
 20
0.34906
 10
2.2357
 20
0.33091
 10
2.23071
 20
0.31217
 10
2.21784
 20
0.27504
 10
2.20203
 20
0.23831
 10
2.18381
 20
0.20195
 10
2.16342
 20
0.16597
 10
2.14104
 20
0.13038
 10
2.1168
 20
0.09519
 10
2.09079
 20
0.06044
 10
2.07016
 20
0.03468
 10
1.83193
 20
0.08705
 10
1.82401
 20
0.1191
 10
1.81497
 20
0.16156
 10
1.80773
 20
0.20366
 10
1.80234
 20
0.24536
 10
1.79893
 20
0.28657
 10
1.79763
 20
0.32722
 10
1.79869
 20
0.3672
 10
1.80258
 20
0.4063
 10
1.80591
 20
0.42541
 10
1.80421
 20
0.44619
 10
1.80087
 20
0.46756
 10
1.79721
 20
0.47894
 10
1.79083
 20
0.4913
 10
1.76918
 20
0.5091599999999999
 10
1.59942
 20
0.57913
 10
1.57148
 20
0.5817099999999999
 10
1.55824
 20
0.57744
 10
1.54762
 20
0.57194
 10
1.5302
 20
0.55913
 10
1.51434
 20
0.54558
 10
1.50325
 20
0.52967
 10
1.47845
 20
0.49919
 10
1.45104
 20
0.47008
 10
1.42147
 20
0.44215
 10
1.39001
 20
0.41531
 10
1.35681
 20
0.38952
 10
1.322
 20
0.36474
 10
1.28567
 20
0.34099
 10
1.25747
 20
0.32383
 10
1.05152
 20
0.45453
 10
1.05504
 20
0.48735
 10
1.06107
 20
0.53034
 10
1.06866
 20
0.57238
 10
1.07786
 20
0.61341
 10
1.08875
 20
0.6533
 10
1.10144
 20
0.69195
 10
1.1161
 20
0.72914
 10
1.13313
 20
0.76456
 10
1.1428
 20
0.78137
 10
1.1483
 20
0.80149
 10
1.15248
 20
0.8227100000000001
 10
1.15293
 20
0.83466
 10
1.15116
 20
0.84845
 10
1.13693
 20
0.87264
 10
1.00133
 20
0.9964499999999999
 10
0.97596
 20
1.00843
 10
0.96206
 20
1.00894
 10
0.9502
 20
1.00741
 10
0.92945
 20
1.00133
 10
0.90991
 20
0.99402
 10
0.89405
 20
0.98287
 10
0.86032
 20
0.96271
 10
0.8246
 20
0.94473
 10
0.78727
 20
0.92859
 10
0.74852
 20
0.91413
 10
0.7085
 20
0.90125
 10
0.66732
 20
0.88988
 10
0.62505
 20
0.87998
 10
0.5926900000000001
 20
0.8735000000000001
 10
0.44386
 20
1.06676
 10
0.45839
 20
1.09639
 10
0.47876
 20
1.13473
 10
0.50027
 20
1.17164
 10
0.52295
 20
1.20704
 10
0.54683
 20
1.24081
 10
0.57197
 20
1.27278
 10
0.5984699999999999
 20
1.30272
 10
0.62658
 20
1.33018
 10
0.64142
 20
1.34267
 10
0.65347
 20
1.35969
 10
0.66465
 20
1.3782
 10
0.66916
 20
1.38928
 10
0.67221
 20
1.40285
 10
0.66712
 20
1.43044
 10
0.58205
 20
1.59316
 10
0.5623
 20
1.6131
 10
0.54942
 20
1.61833
 10
0.53775
 20
1.62095
 10
0.51616
 20
1.62234
 10
0.49531
 20
1.62215
 10
0.47659
 20
1.6171
 10
0.438
 20
1.60968
 10
0.39828
 20
1.60501
 10
0.35768
 20
1.60261
 10
0.31633
 20
1.60228
 10
0.27432
 20
1.60386
 10
0.23173
 20
1.60726
 10
0.18862
 20
1.61241
 10
0.15599
 20
1.6174
 10
0.08223999999999999
 20
1.84989
 10
0.10603
 20
1.87278
 10
0.13828
 20
1.90183
 10
0.17112
 20
1.92916
 10
0.20454
 20
1.95467
 10
0.23853
 20
1.97823
 10
0.27309
 20
1.99968
 10
0.30823
 20
2.01875
 10
0.34404
 20
2.03494
 10
0.36225
 20
2.0416
 10
0.3794
 20
2.05347
 10
0.39624
 20
2.06704
 10
0.40426
 20
2.07591
 10
0.41177
 20
2.08761
 10
0.41642
 20
2.11529
 10
0.39213
 20
2.29729
 10
0.38039
 20
2.32278
 10
0.37008
 20
2.33211
 10
0.36001
 20
2.33856
 10
0.3402
 20
2.34724
 10
0.32054
 20
2.3542
 10
0.30122
 20
2.35585
 10
0.26242
 20
2.36209
 10
0.22351
 20
2.37127
 10
0.18453
 20
2.38291
 10
0.14556
 20
2.39674
 10
0.10662
 20
2.41259
 10
0.06776
 20
2.43035
 10
0.02902
 20
2.44994
 10
6e-05
 20
2.46578
 10
0.01028
 20
2.70948
 10
0.04046
 20
2.72285
 10
0.08069999999999999
 20
2.73913
 10
0.12091
 20
2.75357
 10
0.16104
 20
2.76611
 10
0.20104
 20
2.77663
 10
0.24084
 20
2.78497
 10
0.28039
 20
2.79086
 10
0.31958
 20
2.79383
 10
0.33897
 20
2.79386
 10
0.35914
 20
2.79915
 10
0.37961
 20
2.80615
 10
0.39018
 20
2.81173
 10
0.40124
 20
2.82016
 10
0.41507
 20
2.84458
 10
0.4545
 20
3.02391
 10
0.45219
 20
3.05188
 10
0.44569
 20
3.06417
 10
0.43843
 20
3.07368
 10
0.42278
 20
3.08861
 10
0.40669
 20
3.10187
 10
0.3891
 20
3.11004
 10
0.35477
 20
3.12916
 10
0.32134
 20
3.1511
 10
0.2887
 20
3.17537
 10
0.25681
 20
3.2017
 10
0.22564
 20
3.22991
 10
0.1952
 20
3.25989
 10
0.16549
 20
3.29155
 10
0.1437
 20
3.31634
 10
0.23665
 20
3.54185
 10
0.26958
 20
3.54409
 10
0.31297
 20
3.54562
 10
0.35569
 20
3.54544
 10
0.39769
 20
3.5435
 10
0.43887
 20
3.5397
 10
0.47913
 20
3.53392
 10
0.51831
 20
3.52594
 10
0.55615
 20
3.51532
 10
0.57438
 20
3.50872
 10
0.59515
 20
3.50679
 10
0.61677
 20
3.50636
 10
0.62862
 20
3.50799
 10
0.64189
 20
3.51214
 10
0.6632400000000001
 20
3.53035
 10
0.76163
 20
3.68538
 10
0.76902
 20
3.71245
 10
0.76711
 20
3.72623
 10
0.76354
 20
3.73764
 10
0.75395
 20
3.75702
 10
0.74336
 20
3.77499
 10
0.72962
 20
3.78868
 10
0.70391
 20
3.81839
 10
0.68
 20
3.85045
 10
0.65763
 20
3.88441
 10
0.63666
 20
3.92006
 10
0.61702
 20
3.95723
 10
0.59867
 20
3.99581
 10
0.58158
 20
4.03572
 10
0.56959
 20
4.06647
 10
0.73406
 20
4.24659
 10
0.76577
 20
4.23743
 10
0.80706
 20
4.22403
 10
0.84715
 20
4.20925
 10
0.88595
 20
4.19306
 10
0.92335
 20
4.17541
 10
0.9592000000000001
 20
4.15621
 10
0.99329
 20
4.13531
 10
1.02521
 20
4.11239
 10
1.04009
 20
4.09995
 10
1.05894
 20
4.09103
 10
1.07911
 20
4.08324
 10
1.09081
 20
4.08072
 10
1.1047
 20
4.08007
 10
1.13099
 20
4.08988
 10
1.27646
 20
4.20191
 10
1.29267
 20
4.22483
 10
1.29559
 20
4.23842
 10
1.29614
 20
4.25037
 10
1.29375
 20
4.27186
 10
1.28995
 20
4.29237
 10
1.28172
 20
4.30993
 10
1.26772
 20
4.34665
 10
1.25622
 20
4.38494
 10
1.24681
 20
4.42451
 10
1.2393
 20
4.46518
 10
1.23356
 20
4.50683
 10
1.22951
 20
4.54936
 10
1.2271
 20
4.5927
 10
1.22635
 20
4.6257
 10
1.44251
 20
4.73871
 10
1.46917
 20
4.71925
 10
1.50339
 20
4.69254
 10
1.536
 20
4.66494
 10
1.56693
 20
4.63646
 10
1.59604
 20
4.60708
 10
1.62316
 20
4.57677
 10
1.64804
 20
4.54547
 10
1.6702
 20
4.51302
 10
1.67993
 20
4.49624
 10
1.69459
 20
4.48142
 10
1.71088
 20
4.46719
 10
1.72101
 20
4.46082
 10
1.73384
 20
4.45546
 10
1.7619
 20
4.45569
 10
1.93692
 20
4.51121
 10
1.95998
 20
4.5272
 10
1.96738
 20
4.53898
 10
1.97198
 20
4.55002
 10
1.97709
 20
4.57103
 10
1.98053
 20
4.5916
 10
1.9788
 20
4.61092
 10
1.97821
 20
4.65021
 10
1.98049
 20
4.69013
 10
1.98519
 20
4.73053
 10
1.99204
 20
4.77131
 10
2.00089
 20
4.81241
 10
2.01163
 20
4.85376
 10
2.02419
 20
4.89532
 10
2.03477
 20
4.92658
 10
2.27654
 20
4.95884
 10
2.29495
 20
4.93144
 10
2.31796
 20
4.89464
 10
2.33917
 20
4.85755
 10
2.35849
 20
4.82021
 10
2.37579
 20
4.78264
 10
2.39092
 20
4.74489
 10
2.40359
 20
4.70697
 10
2.41332
 20
4.66889
 10
2.41671
 20
4.6498
 10
2.42542
 20
4.63085
 10
2.43587
 20
4.61191
 10
2.4432
 20
4.60247
 10
2.45343
 20
4.59304
 10
2.47987
 20
4.58366
 10
2.66333
 20
4.57597
 10
2.69047
 20
4.58311
 10
2.70145
 20
4.59164
 10
2.70955
 20
4.60044
 10
2.72154
 20
4.61844
 10
2.7318
 20
4.63659
 10
2.73679
 20
4.65533
 10
2.74967
 20
4.69246
 10
2.76547
 20
4.72919
 10
2.7837
 20
4.76555
 10
2.80408
 20
4.80153
 10
2.82646
 20
4.83712
 10
2.8507
 20
4.87231
 10
2.87671
 20
4.90706
 10
2.89734
 20
4.93282
 10
3.13557
 20
4.88045
 10
3.14349
 20
4.8484
 10
3.15253
 20
4.80595
 10
3.15978
 20
4.76384
 10
3.16516
 20
4.72214
 10
3.16857
 20
4.68093
 10
3.16987
 20
4.64028
 10
3.16881
 20
4.60031
 10
3.16493
 20
4.5612
 10
3.16159
 20
4.5421
 10
3.16329
 20
4.52131
 10
3.16663
 20
4.49995
 10
3.17029
 20
4.48856
 10
3.17668
 20
4.47621
 10
3.19832
 20
4.45834
 10
3.36808
 20
4.38837
 10
3.39602
 20
4.3858
 10
3.40926
 20
4.39007
 10
3.41988
 20
4.39556
 10
3.4373
 20
4.40837
 10
3.45316
 20
4.42192
 10
3.46425
 20
4.43783
 10
3.48905
 20
4.46831
 10
3.51646
 20
4.49742
 10
3.54603
 20
4.52535
 10
3.57749
 20
4.55219
 10
3.61069
 20
4.57799
 10
3.6455
 20
4.60276
 10
3.68183
 20
4.62652
 10
3.71003
 20
4.64367
 10
3.91598
 20
4.51297
 10
3.91246
 20
4.48015
 10
3.90644
 20
4.43716
 10
3.89884
 20
4.39512
 10
3.88964
 20
4.3541
 10
3.87875
 20
4.3142
 10
3.86607
 20
4.27556
 10
3.8514
 20
4.23836
 10
3.83438
 20
4.20294
 10
3.82471
 20
4.18613
 10
3.8192
 20
4.16602
 10
3.81502
 20
4.1448
 10
3.81457
 20
4.13284
 10
3.81635
 20
4.11905
 10
3.83058
 20
4.09487
 10
3.96617
 20
3.97105
 10
3.99155
 20
3.95907
 10
4.00544
 20
3.95856
 10
4.0173
 20
3.96009
 10
4.03806
 20
3.96617
 10
4.05759
 20
3.97348
 10
4.07346
 20
3.98463
 10
4.10718
 20
4.00479
 10
4.1429
 20
4.02277
 10
4.18023
 20
4.03891
 10
4.21898
 20
4.05337
 10
4.259
 20
4.06625
 10
4.30018
 20
4.07762
 10
4.34245
 20
4.08752
 10
4.37482
 20
4.094
 10
4.52364
 20
3.90075
 10
4.50911
 20
3.87111
 10
4.48874
 20
3.83277
 10
4.46723
 20
3.79586
 10
4.44455
 20
3.76046
 10
4.42067
 20
3.72669
 10
4.39554
 20
3.69472
 10
4.36903
 20
3.66478
 10
4.34092
 20
3.63732
 10
4.32608
 20
3.62483
 10
4.31403
 20
3.60781
 10
4.30285
 20
3.5893
 10
4.29834
 20
3.57822
 10
4.29529
 20
3.56466
 10
4.30039
 20
3.53706
 10
4.38546
 20
3.37434
 10
4.4052
 20
3.35441
 10
4.41809
 20
3.34917
 10
4.42976
 20
3.34655
 10
4.45134
 20
3.34517
 10
4.47219
 20
3.34535
 10
4.49092
 20
3.35041
 10
4.52951
 20
3.35782
 10
4.56922
 20
3.3625
 10
4.60982
 20
3.36489
 10
4.65117
 20
3.36522
 10
4.69319
 20
3.36365
 10
4.73578
 20
3.36024
 10
4.77888
 20
3.35509
 10
4.81151
 20
3.35011
 10
4.88526
 20
3.11761
 10
4.86147
 20
3.09473
 10
4.82922
 20
3.06567
 10
4.79638
 20
3.03834
 10
4.76296
 20
3.01283
 10
4.72897
 20
2.98927
 10
4.69442
 20
2.96782
 10
4.65927
 20
2.94875
 10
4.62346
 20
2.93256
 10
4.60525
 20
2.9259
 10
4.5881
 20
2.91403
 10
4.57127
 20
2.90046
 10
4.56324
 20
2.89159
 10
4.55573
 20
2.87989
 10
4.55108
 20
2.85221
  0
LWPOLYLINE
  5
55
100
AcDbEntity
  8
a
  6
ByLayer
 62
  256
370
   -1
100
AcDbPolyline
 90
   21
 70
    1
 43
0
 10
3.56302
 20
2.67873
 10
4.09567
 20
2.6564
 10
4.19959
 20
2.77215
 10
4.17523
 20
2.89143
 10
4.14258
 20
3.00871
 10
4.10181
 20
3.12342
 10
4.05312
 20
3.235
 10
3.99674
 20
3.34291
 10
3.93296
 20
3.4466
 10
3.86208
 20
3.54559
 10
3.78446
 20
3.63937
 10
3.70046
 20
3.7275
 10
3.61051
 20
3.80953
 10
3.51505
 20
3.88508
 10
3.41453
 20
3.95376
 10
3.26756
 20
3.90282
 10
3.08173
 20
3.40313
 10
3.13889
 20
3.21258
 10
3.2516
 20
3.09269
 10
3.34266
 20
2.95563
 10
3.40951
 20
2.80527
  0
LWPOLYLINE
  5
56
100
AcDbEntity
  8
a
  6
ByLayer
 62
  256
370
   -1
100
AcDbPolyline
 90
   21
 70
    1
 43
0
 10
2.63183
 20
3.57045
 10
2.81766
 20
4.07013
 10
2.73969
 20
4.20474
 10
2.61872
 20
4.21842
 10
2.49709
 20
4.22361
 10
2.37539
 20
4.22028
 10
2.25423
 20
4.20846
 10
2.13419
 20
4.18818
 10
2.01585
 20
4.15957
 10
1.89981
 20
4.12275
 10
1.78663
 20
4.0779
 10
1.67687
 20
4.02525
 10
1.57105
 20
3.96506
 10
1.4697
 20
3.89761
 10
1.37331
 20
3.82324
 10
1.37635
 20
3.66771
 10
1.79415
 20
3.33656
 10
1.99304
 20
3.33205
 10
2.14189
 20
3.40219
 10
2.30039
 20
3.44644
 10
2.46405
 20
3.46355
  0
LWPOLYLINE
  5
57
100
AcDbEntity
  8
a
  6
ByLayer
 62
  256
370
   -1
100
AcDbPolyline
 90
   21
 70
    1
 43
0
 10
1.496
 20
2.96039
 10
1.0782
 20
3.29154
 10
0.92609
 20
3.25898
 10
0.87569
 20
3.14816
 10
0.83317
 20
3.03408
 10
0.79872
 20
2.91731
 10
0.77253
 20
2.79842
 10
0.7547199999999999
 20
2.67799
 10
0.74537
 20
2.55661
 10
0.74453
 20
2.43487
 10
0.7522
 20
2.31337
 10
0.76835
 20
2.19271
 10
0.79291
 20
2.07347
 10
0.82573
 20
1.95624
 10
0.86668
 20
1.84159
 10
1.01553
 20
1.79641
 10
1.45958
 20
2.09144
 10
1.52534
 20
2.2792
 10
1.50462
 20
2.44244
 10
1.51151
 20
2.60685
 10
1.54582
 20
2.76779
  0
LWPOLYLINE
  5
58
100
AcDbEntity
  8
a
  6
ByLayer
 62
  256
370
   -1
100
AcDbPolyline
 90
   21
 70
    1
 43
0
 10
1.72521
 20
1.69163
 10
1.28116
 20
1.39661
 10
1.26512
 20
1.24188
 10
1.35495
 20
1.15971
 10
1.4503
 20
1.08401
 10
1.55071
 20
1.01517
 10
1.65568
 20
0.95352
 10
1.76471
 20
0.89937
 10
1.87727
 20
0.8529600000000001
 10
1.99279
 20
0.81455
 10
2.11071
 20
0.7843
 10
2.23046
 20
0.76237
 10
2.35145
 20
0.74888
 10
2.47309
 20
0.74387
 10
2.59478
 20
0.74739
 10
2.68375
 20
0.87499
 10
2.54038
 20
1.38847
 10
2.38213
 20
1.50903
 10
2.22047
 20
1.53978
 10
2.06624
 20
1.59714
 10
1.92378
 20
1.67949
  0
LWPOLYLINE
  5
59
100
AcDbEntity
  8
a
  6
ByLayer
 62
  256
370
   -1
100
AcDbPolyline
 90
   21
 70
    1
 43
0
 10
3.0027
 20
1.51756
 10
3.14606
 20
1.00407
 10
3.28826
 20
0.94101
 10
3.39417
 20
1.00104
 10
3.49562
 20
1.06834
 10
3.59212
 20
1.14256
 10
3.6832
 20
1.22335
 10
3.7684
 20
1.31031
 10
3.84731
 20
1.40301
 10
3.91954
 20
1.501
 10
3.98475
 20
1.60381
 10
4.04261
 20
1.71093
 10
4.09283
 20
1.82182
 10
4.13518
 20
1.93596
 10
4.16944
 20
2.05278
 10
4.07557
 20
2.17682
 10
3.54292
 20
2.19915
 10
3.37936
 20
2.0859
 10
3.30017
 20
1.94166
 10
3.19795
 20
1.8127
 10
3.07561
 20
1.70266
  0
CIRCLE
  5
5A
100
AcDbEntity
  8
a
  6
ByLayer
 62
  256
370
   -1
100
AcDbCircle
 10
2.48375
 20
2.48375
 40
0.5
  0
LWPOLYLINE
  5
5B
100
AcDbEntity
  8
a
  6
ByLayer
 62
  256
370
   -1
100
AcDbPolyline
 90
  414
 70
    1
 43
0
 10
5.51469
 20
2.40392
 10
5.5056
 20
2.51909
 10
5.49954
 20
2.5276
 10
5.49344
 20
2.53384
 10
5.4873
 20
2.53885
 10
5.48114
 20
2.54302
 10
5.46874
 20
2.54967
 10
5.45626
 20
2.55468
 10
5.4437
 20
2.55849
 10
5.43108
 20
2.56133
 10
5.40567
 20
2.56467
 10
5.38021
 20
2.56735
 10
5.35513
 20
2.57476
 10
5.33031
 20
2.58477
 10
5.30573
 20
2.59684
 10
5.28143
 20
2.61073
 10
5.25743
 20
2.62627
 10
5.23377
 20
2.64339
 10
5.21047
 20
2.66199
 10
5.18758
 20
2.68203
 10
5.16512
 20
2.70345
 10
5.1486
 20
2.7204
 10
5.1743
 20
2.83452
 10
5.20988
 20
2.94596
 10
5.23271
 20
2.95221
 10
5.26292
 20
2.95933
 10
5.2928
 20
2.96502
 10
5.32231
 20
2.96928
 10
5.35138
 20
2.97206
 10
5.37995
 20
2.97333
 10
5.40793
 20
2.97301
 10
5.43524
 20
2.97098
 10
5.46172
 20
2.96705
 10
5.4871
 20
2.96075
 10
5.51041
 20
2.95018
 10
5.53402
 20
2.9402
 10
5.54634
 20
2.93627
 10
5.5591
 20
2.9332
 10
5.5724
 20
2.93121
 10
5.58646
 20
2.93067
 10
5.59389
 20
2.93115
 10
5.60172
 20
2.93236
 10
5.61014
 20
2.93465
 10
5.61966
 20
2.93893
 10
5.68579
 20
3.03367
 10
5.68579
 20
3.03367
 10
5.68579
 20
3.03367
 10
5.75285
 20
3.12773
 10
5.75368
 20
3.13815
 10
5.75302
 20
3.14685
 10
5.75153
 20
3.15462
 10
5.7495
 20
3.16179
 10
5.74427
 20
3.17485
 10
5.73793
 20
3.18671
 10
5.73076
 20
3.1977
 10
5.72292
 20
3.20799
 10
5.7056
 20
3.22688
 10
5.68782
 20
3.2453
 10
5.67337
 20
3.2671
 10
5.66079
 20
3.29072
 10
5.64972
 20
3.31576
 10
5.64003
 20
3.34202
 10
5.63164
 20
3.36936
 10
5.62451
 20
3.39768
 10
5.61862
 20
3.42691
 10
5.61396
 20
3.45697
 10
5.61053
 20
3.48781
 10
5.60877
 20
3.51142
 10
5.70182
 20
3.58231
 10
5.8007
 20
3.64481
 10
5.82221
 20
3.63493
 10
5.84992
 20
3.62096
 10
5.87648
 20
3.60612
 10
5.90182
 20
3.59041
 10
5.92588
 20
3.57386
 10
5.94858
 20
3.55647
 10
5.96981
 20
3.53823
 10
5.98942
 20
3.51913
 10
6.00718
 20
3.4991
 10
6.02257
 20
3.47796
 10
6.03364
 20
3.45487
 10
6.04531
 20
3.43205
 10
6.05222
 20
3.42112
 10
6.06002
 20
3.41057
 10
6.06893
 20
3.40049
 10
6.07935
 20
3.39104
 10
6.08535
 20
3.38663
 10
6.09212
 20
3.38253
 10
6.10005
 20
3.37888
 10
6.1101
 20
3.37603
 10
6.22164
 20
3.4061
 10
6.22164
 20
3.4061
 10
6.22164
 20
3.4061
 10
6.33348
 20
3.43505
 10
6.34082
 20
3.44249
 10
6.3459
 20
3.44958
 10
6.34976
 20
3.45649
 10
6.35281
 20
3.46329
 10
6.3572
 20
3.47666
 10
6.35997
 20
3.48982
 10
6.36154
 20
3.50284
 10
6.36215
 20
3.51577
 10
6.36102
 20
3.54137
 10
6.35924
 20
3.56691
 10
6.36218
 20
3.59289
 10
6.36773
 20
3.61908
 10
6.37535
 20
3.64538
 10
6.3848
 20
3.67172
 10
6.39595
 20
3.69806
 10
6.40869
 20
3.72433
 10
6.42296
 20
3.75051
 10
6.43872
 20
3.77653
 10
6.45592
 20
3.80236
 10
6.46974
 20
3.82158
 10
6.58659
 20
3.81608
 10
6.70251
 20
3.8004
 10
6.71264
 20
3.779
 10
6.72489
 20
3.75049
 10
6.73569
 20
3.72205
 10
6.745
 20
3.69373
 10
6.7528
 20
3.66558
 10
6.759
 20
3.63767
 10
6.76355
 20
3.61005
 10
6.76629
 20
3.58281
 10
6.76702
 20
3.55605
 10
6.76522
 20
3.52996
 10
6.75886
 20
3.50516
 10
6.75313
 20
3.48018
 10
6.7514
 20
3.46737
 10
6.75059
 20
3.45427
 10
6.75094
 20
3.44082
 10
6.75285
 20
3.42688
 10
6.75461
 20
3.41965
 10
6.75716
 20
3.41215
 10
6.76088
 20
3.40426
 10
6.76676
 20
3.39562
 10
6.87153
 20
3.34695
 10
6.87153
 20
3.34695
 10
6.87153
 20
3.34695
 10
6.97581
 20
3.29724
 10
6.98621
 20
3.29823
 10
6.99467
 20
3.30039
 10
7.00207
 20
3.30321
 10
7.00877
 20
3.30646
 10
7.02072
 20
3.31387
 10
7.03131
 20
3.32217
 10
7.04088
 20
3.33114
 10
7.04965
 20
3.34065
 10
7.06525
 20
3.36099
 10
7.0803
 20
3.38169
 10
7.09926
 20
3.39971
 10
7.12034
 20
3.41621
 10
7.14308
 20
3.43145
 10
7.16725
 20
3.44556
 10
7.19272
 20
3.45857
 10
7.21937
 20
3.47051
 10
7.24713
 20
3.48138
 10
7.27593
 20
3.49119
 10
7.30571
 20
3.49992
 10
7.32865
 20
3.50576
 10
7.41463
 20
3.42644
 10
7.49335
 20
3.3399
 10
7.48735
 20
3.317
 10
7.47841
 20
3.28729
 10
7.4684
 20
3.25856
 10
7.45733
 20
3.23088
 10
7.44521
 20
3.20431
 10
7.43202
 20
3.17894
 10
7.41775
 20
3.15486
 10
7.40234
 20
3.13223
 10
7.3857
 20
3.11126
 10
7.36755
 20
3.09243
 10
7.34674
 20
3.07752
 10
7.3263
 20
3.06207
 10
7.31673
 20
3.05337
 10
7.30769
 20
3.04386
 10
7.29932
 20
3.03333
 10
7.29182
 20
3.02143
 10
7.28852
 20
3.01475
 10
7.28566
 20
3.00737
 10
7.28343
 20
2.99893
 10
7.28237
 20
2.98853
 10
7.33135
 20
2.88391
 10
7.33135
 20
2.88391
 10
7.33135
 20
2.88391
 10
7.37929
 20
2.7788
 10
7.38789
 20
2.77286
 10
7.39576
 20
2.76909
 10
7.40323
 20
2.76649
 10
7.41046
 20
2.76467
 10
7.42438
 20
2.76266
 10
7.43783
 20
2.76222
 10
7.45092
 20
2.76294
 10
7.46375
 20
2.76458
 10
7.48877
 20
2.77014
 10
7.51361
 20
2.77632
 10
7.53972
 20
2.77794
 10
7.56647
 20
2.77703
 10
7.59369
 20
2.77409
 10
7.62127
 20
2.76935
 10
7.64915
 20
2.76295
 10
7.67724
 20
2.75496
 10
7.70549
 20
2.74545
 10
7.73386
 20
2.73445
 10
7.76228
 20
2.722
 10
7.78361
 20
2.71173
 10
7.79848
 20
2.5957
 10
7.80316
 20
2.47881
 10
7.78385
 20
2.46512
 10
7.7579
 20
2.44811
 10
7.73177
 20
2.43254
 10
7.7055
 20
2.41844
 10
7.67913
 20
2.40588
 10
7.65272
 20
2.39492
 10
7.62631
 20
2.38565
 10
7.59996
 20
2.37822
 10
7.57373
 20
2.37286
 10
7.54773
 20
2.37009
 10
7.5222
 20
2.37205
 10
7.49661
 20
2.37336
 10
7.48368
 20
2.37284
 10
7.47065
 20
2.37136
 10
7.45746
 20
2.36868
 10
7.44407
 20
2.36438
 10
7.43725
 20
2.36139
 10
7.43031
 20
2.35757
 10
7.42318
 20
2.35254
 10
7.41569
 20
2.34526
 10
7.38596
 20
2.23362
 10
7.38596
 20
2.23362
 10
7.38596
 20
2.23362
 10
7.35511
 20
2.12229
 10
7.35789
 20
2.11222
 10
7.36149
 20
2.10427
 10
7.36555
 20
2.09747
 10
7.36991
 20
2.09144
 10
7.37929
 20
2.08095
 10
7.3893
 20
2.07197
 10
7.3998
 20
2.0641
 10
7.41069
 20
2.05711
 10
7.43342
 20
2.04528
 10
7.45643
 20
2.03406
 10
7.47746
 20
2.01851
 10
7.49737
 20
2.00062
 10
7.51633
 20
1.98087
 10
7.53442
 20
1.95951
 10
7.55165
 20
1.93669
 10
7.56804
 20
1.91252
 10
7.58357
 20
1.88707
 10
7.59823
 20
1.86041
 10
7.612
 20
1.83261
 10
7.62173
 20
1.81103
 10
7.55854
 20
1.71258
 10
7.487
 20
1.62003
 10
7.4634
 20
1.62196
 10
7.43259
 20
1.6256
 10
7.40256
 20
1.63047
 10
7.37337
 20
1.63656
 10
7.3451
 20
1.64389
 10
7.31782
 20
1.65247
 10
7.29164
 20
1.66235
 10
7.26667
 20
1.67359
 10
7.24314
 20
1.68634
 10
7.22144
 20
1.70094
 10
7.20314
 20
1.71885
 10
7.18438
 20
1.7363
 10
7.17414
 20
1.74421
 10
7.16321
 20
1.75146
 10
7.15139
 20
1.75788
 10
7.13836
 20
1.76319
 10
7.13121
 20
1.76528
 10
7.12344
 20
1.76682
 10
7.11475
 20
1.76755
 10
7.10433
 20
1.76678
 10
7.0098
 20
1.70038
 10
7.0098
 20
1.70038
 10
7.0098
 20
1.70038
 10
6.91461
 20
1.63492
 10
6.91026
 20
1.62542
 10
6.90791
 20
1.61702
 10
6.90664
 20
1.6092
 10
6.90611
 20
1.60177
 10
6.90655
 20
1.58771
 10
6.90845
 20
1.57439
 10
6.91143
 20
1.56162
 10
6.91528
 20
1.54927
 10
6.92509
 20
1.52559
 10
6.9355
 20
1.50221
 10
6.94162
 20
1.47678
 10
6.94537
 20
1.45027
 10
6.9472
 20
1.42296
 10
6.94733
 20
1.39497
 10
6.94586
 20
1.36641
 10
6.94287
 20
1.33736
 10
6.93841
 20
1.30788
 10
6.93251
 20
1.27804
 10
6.92518
 20
1.24789
 10
6.91877
 20
1.2251
 10
6.80708
 20
1.1903
 10
6.69278
 20
1.16539
 10
6.67595
 20
1.18204
 10
6.65469
 20
1.20464
 10
6.63481
 20
1.22767
 10
6.61637
 20
1.25109
 10
6.59943
 20
1.27488
 10
6.58404
 20
1.29899
 10
6.57033
 20
1.32338
 10
6.55843
 20
1.34804
 10
6.5486
 20
1.37294
 10
6.54136
 20
1.39807
 10
6.53886
 20
1.42355
 10
6.5357
 20
1.44898
 10
6.53295
 20
1.46162
 10
6.52923
 20
1.4742
 10
6.5243
 20
1.48672
 10
6.51774
 20
1.49916
 10
6.5136
 20
1.50536
 10
6.50864
 20
1.51153
 10
6.50245
 20
1.51767
 10
6.49397
 20
1.52379
 10
6.37887
 20
1.53368
 10
6.37887
 20
1.53368
 10
6.37887
 20
1.53368
 10
6.26388
 20
1.54473
 10
6.25444
 20
1.54024
 10
6.24724
 20
1.53532
 10
6.24125
 20
1.53014
 10
6.23606
 20
1.5248
 10
6.22736
 20
1.51374
 10
6.22026
 20
1.50232
 10
6.21433
 20
1.49062
 10
6.20934
 20
1.47868
 10
6.20164
 20
1.45424
 10
6.19458
 20
1.42963
 10
6.18292
 20
1.40622
 10
6.16876
 20
1.38351
 10
6.1526
 20
1.3614
 10
6.13471
 20
1.33988
 10
6.11523
 20
1.31894
 10
6.09427
 20
1.29861
 10
6.0719
 20
1.2789
 10
6.04819
 20
1.25983
 10
6.0232
 20
1.24144
 10
6.00364
 20
1.22811
 10
5.89572
 20
1.27324
 10
5.79215
 20
1.32763
 10
5.78995
 20
1.3512
 10
5.78819
 20
1.38218
 10
5.78777
 20
1.4126
 10
5.7887
 20
1.4424
 10
5.79101
 20
1.47151
 10
5.79472
 20
1.49987
 10
5.7999
 20
1.52737
 10
5.80663
 20
1.55391
 10
5.8151
 20
1.5793
 10
5.82571
 20
1.6032
 10
5.84017
 20
1.62433
 10
5.8541
 20
1.64584
 10
5.86011
 20
1.65729
 10
5.86535
 20
1.66932
 10
5.86962
 20
1.68208
 10
5.8726
 20
1.69583
 10
5.87341
 20
1.70323
 10
5.87358
 20
1.71115
 10
5.87278
 20
1.71984
 10
5.87022
 20
1.72997
 10
5.78841
 20
1.81153
 10
5.78841
 20
1.81153
 10
5.78841
 20
1.81153
 10
5.70742
 20
1.89391
 10
5.69731
 20
1.89654
 10
5.68862
 20
1.8974
 10
5.68071
 20
1.89729
 10
5.6733
 20
1.89653
 10
5.65953
 20
1.89365
 10
5.64674
 20
1.88946
 10
5.63468
 20
1.88431
 10
5.62318
 20
1.87838
 10
5.60157
 20
1.8646
 10
5.58035
 20
1.85029
 10
5.55637
 20
1.83985
 10
5.53092
 20
1.83155
 10
5.50433
 20
1.825
 10
5.47679
 20
1.82002
 10
5.44842
 20
1.8165
 10
5.41929
 20
1.8144
 10
5.38948
 20
1.81368
 10
5.35907
 20
1.81431
 10
5.3281
 20
1.81629
 10
5.30454
 20
1.81865
 10
5.25088
 20
1.92259
 10
5.2065
 20
2.03083
 10
5.21997
 20
2.0503
 10
5.23854
 20
2.07516
 10
5.25777
 20
2.09873
 10
5.27763
 20
2.12096
 10
5.29811
 20
2.14178
 10
5.31919
 20
2.16112
 10
5.34083
 20
2.17886
 10
5.36305
 20
2.19486
 10
5.38586
 20
2.20887
 10
5.40935
 20
2.22035
 10
5.43401
 20
2.22725
 10
5.4585
 20
2.23477
 10
5.47047
 20
2.23968
 10
5.48222
 20
2.24553
 10
5.49369
 20
2.25255
 10
5.50481
 20
2.26117
 10
5.51019
 20
2.26632
 10
5.5154
 20
2.27228
 10
5.52038
 20
2.27945
 10
5.52493
 20
2.28885
 10
5.51469
 20
2.40392
 10
5.51469
 20
2.40392
  0
CIRCLE
  5
5C
100
AcDbEntity
  8
a
  6
ByLayer
 62
  256
370
   -1
100
AcDbCircle
 10
6.46534
 20
2.48375
 40
0.5
  0
ENDSEC
  0
SECTION
  2
OBJECTS
  0
DICTIONARY
  5
C
330
0
100
AcDbDictionary
281
    1
  3
ACAD_GROUP
350
D
  0
DICTIONARY
  5
D
330
C
100
AcDbDictionary
281
    1
  0
ENDSEC
  0
EOF
