  0
SECTION
  2
HEADER
  9
$ACADVER
  1
AC1015
  9
$ACADMAINTVER
 70
     6
  9
$DWGCODEPAGE
  3
ANSI_1251
  9
$INSBASE
 10
0.0
 20
0.0
 30
0.0
  9
$EXTMIN
 10
0.0
 20
0.0
 30
0.0
  9
$EXTMAX
 10
2794.0
 20
2159.0
 30
0.0
  9
$LIMMIN
 10
0.0
 20
0.0
  9
$LIMMAX
 10
2794.0
 20
2159.0
  9
$ORTHOMODE
 70
     0
  9
$REGENMODE
 70
     1
  9
$FILLMODE
 70
     1
  9
$QTEXTMODE
 70
     0
  9
$MIRRTEXT
 70
     1
  9
$LTSCALE
 40
10.0
  9
$ATTMODE
 70
     1
  9
$TEXTSIZE
 40
35.0
  9
$TRACEWID
 40
1.0
  9
$TEXTSTYLE
  7
Standard
  9
$CLAYER
  8
0
  9
$CELTYPE
  6
ByLayer
  9
$CECOLOR
 62
   256
  9
$CELTSCALE
 40
1.0
  9
$DISPSILH
 70
     0
  9
$DIMSCALE
 40
1.0
  9
$DIMASZ
 40
33.02
  9
$DIMEXO
 40
0.0
  9
$DIMDLI
 40
3.75
  9
$DIMRND
 40
0.0
  9
$DIMDLE
 40
0.0
  9
$DIMEXE
 40
10.0
  9
$DIMTP
 40
0.0
  9
$DIMTM
 40
0.0
  9
$DIMTXT
 40
35.0
  9
$DIMCEN
 40
2.5
  9
$DIMTSZ
 40
0.0
  9
$DIMTOL
 70
     0
  9
$DIMLIM
 70
     0
  9
$DIMTIH
 70
     1
  9
$DIMTOH
 70
     1
  9
$DIMSE1
 70
     0
  9
$DIMSE2
 70
     0
  9
$DIMTAD
 70
     1
  9
$DIMZIN
 70
     0
  9
$DIMBLK
  1

  9
$DIMASO
 70
     1
  9
$DIMSHO
 70
     1
  9
$DIMPOST
  1

  9
$DIMAPOST
  1

  9
$DIMALT
 70
     0
  9
$DIMALTD
 70
     3
  9
$DIMALTF
 40
0.0393700787
  9
$DIMLFAC
 40
1.0
  9
$DIMTOFL
 70
     1
  9
$DIMTVP
 40
0.0
  9
$DIMTIX
 70
     0
  9
$DIMSOXD
 70
     0
  9
$DIMSAH
 70
     0
  9
$DIMBLK1
  1

  9
$DIMBLK2
  1

  9
$DIMSTYLE
  2
ISO-25
  9
$DIMCLRD
 70
     0
  9
$DIMCLRE
 70
     0
  9
$DIMCLRT
 70
     0
  9
$DIMTFAC
 40
1.0
  9
$DIMGAP
 40
15.24
  9
$DIMJUST
 70
     0
  9
$DIMSD1
 70
     0
  9
$DIMSD2
 70
     0
  9
$DIMTOLJ
 70
     0
  9
$DIMTZIN
 70
     0
  9
$DIMALTZ
 70
     0
  9
$DIMALTTZ
 70
     0
  9
$DIMUPT
 70
     0
  9
$DIMDEC
 70
     3
  9
$DIMTDEC
 70
     3
  9
$DIMALTU
 70
     2
  9
$DIMALTTD
 70
     3
  9
$DIMTXSTY
  7
Standard
  9
$DIMAUNIT
 70
     0
  9
$DIMADEC
 70
     2
  9
$DIMALTRND
 40
0.0
  9
$DIMAZIN
 70
     0
  9
$DIMDSEP
 70
    44
  9
$DIMATFIT
 70
     3
  9
$DIMFRAC
 70
     0
  9
$DIMLDRBLK
  1

  9
$DIMLUNIT
 70
     2
  9
$DIMLWD
 70
    -2
  9
$DIMLWE
 70
    -2
  9
$DIMTMOVE
 70
     0
  9
$LUNITS
 70
     2
  9
$LUPREC
 70
     2
  9
$SKETCHINC
 40
1.0
  9
$FILLETRAD
 40
10.0
  9
$AUNITS
 70
     0
  9
$AUPREC
 70
     2
  9
$MENU
  1
.
  9
$ELEVATION
 40
0.0
  9
$PELEVATION
 40
0.0
  9
$THICKNESS
 40
0.0
  9
$LIMCHECK
 70
     0
  9
$CHAMFERA
 40
0.0
  9
$CHAMFERB
 40
0.0
  9
$CHAMFERC
 40
0.0
  9
$CHAMFERD
 40
0.0
  9
$SKPOLY
 70
     0
  9
$TDCREATE
 40
2459319.702942581
  9
$TDUCREATE
 40
2459319.577942581
  9
$TDUPDATE
 40
2459319.702942755
  9
$TDUUPDATE
 40
2459319.577942755
  9
$TDINDWG
 40
0.0000000116
  9
$TDUSRTIMER
 40
0.0000000116
  9
$USRTIMER
 70
     1
  9
$ANGBASE
 50
0.0
  9
$ANGDIR
 70
     0
  9
$PDMODE
 70
     0
  9
$PDSIZE
 40
-1.0
  9
$PLINEWID
 40
0.0
  9
$SPLFRAME
 70
     0
  9
$SPLINETYPE
 70
     6
  9
$SPLINESEGS
 70
     8
  9
$HANDSEED
  5
AE
  9
$SURFTAB1
 70
     6
  9
$SURFTAB2
 70
     6
  9
$SURFTYPE
 70
     6
  9
$SURFU
 70
     6
  9
$SURFV
 70
     6
  9
$UCSBASE
  2

  9
$UCSNAME
  2

  9
$UCSORG
 10
0.0
 20
0.0
 30
0.0
  9
$UCSXDIR
 10
1.0
 20
0.0
 30
0.0
  9
$UCSYDIR
 10
0.0
 20
1.0
 30
0.0
  9
$UCSORTHOREF
  2

  9
$UCSORTHOVIEW
 70
     0
  9
$UCSORGTOP
 10
0.0
 20
0.0
 30
0.0
  9
$UCSORGBOTTOM
 10
0.0
 20
0.0
 30
0.0
  9
$UCSORGLEFT
 10
0.0
 20
0.0
 30
0.0
  9
$UCSORGRIGHT
 10
0.0
 20
0.0
 30
0.0
  9
$UCSORGFRONT
 10
0.0
 20
0.0
 30
0.0
  9
$UCSORGBACK
 10
0.0
 20
0.0
 30
0.0
  9
$PUCSBASE
  2

  9
$PUCSNAME
  2

  9
$PUCSORG
 10
0.0
 20
0.0
 30
0.0
  9
$PUCSXDIR
 10
1.0
 20
0.0
 30
0.0
  9
$PUCSYDIR
 10
0.0
 20
1.0
 30
0.0
  9
$PUCSORTHOREF
  2

  9
$PUCSORTHOVIEW
 70
     0
  9
$PUCSORGTOP
 10
0.0
 20
0.0
 30
0.0
  9
$PUCSORGBOTTOM
 10
0.0
 20
0.0
 30
0.0
  9
$PUCSORGLEFT
 10
0.0
 20
0.0
 30
0.0
  9
$PUCSORGRIGHT
 10
0.0
 20
0.0
 30
0.0
  9
$PUCSORGFRONT
 10
0.0
 20
0.0
 30
0.0
  9
$PUCSORGBACK
 10
0.0
 20
0.0
 30
0.0
  9
$USERI1
 70
     0
  9
$USERI2
 70
     0
  9
$USERI3
 70
     0
  9
$USERI4
 70
     0
  9
$USERI5
 70
     0
  9
$USERR1
 40
0.0
  9
$USERR2
 40
0.0
  9
$USERR3
 40
0.0
  9
$USERR4
 40
0.0
  9
$USERR5
 40
0.0
  9
$WORLDVIEW
 70
     1
  9
$SHADEDGE
 70
     3
  9
$SHADEDIF
 70
    70
  9
$TILEMODE
 70
     1
  9
$MAXACTVP
 70
    64
  9
$PINSBASE
 10
0.0
 20
0.0
 30
0.0
  9
$PLIMCHECK
 70
     0
  9
$PEXTMIN
 10
1.0000000000E+20
 20
1.0000000000E+20
 30
1.0000000000E+20
  9
$PEXTMAX
 10
-1.0000000000E+20
 20
-1.0000000000E+20
 30
-1.0000000000E+20
  9
$PLIMMIN
 10
0.0
 20
0.0
  9
$PLIMMAX
 10
420.0
 20
297.0
  9
$UNITMODE
 70
     0
  9
$VISRETAIN
 70
     1
  9
$PLINEGEN
 70
     0
  9
$PSLTSCALE
 70
     1
  9
$TREEDEPTH
 70
  3020
  9
$CMLSTYLE
  2
Standard
  9
$CMLJUST
 70
     0
  9
$CMLSCALE
 40
20.0
  9
$PROXYGRAPHICS
 70
     1
  9
$MEASUREMENT
 70
     1
  9
$CELWEIGHT
370
    -1
  9
$ENDCAPS
280
     0
  9
$JOINSTYLE
280
     0
  9
$LWDISPLAY
290
     1
  9
$INSUNITS
 70
     4
  9
$HYPERLINKBASE
  1

  9
$STYLESHEET
  1

  9
$XEDIT
290
     1
  9
$CEPSNTYPE
380
     0
  9
$PSTYLEMODE
290
     1
  9
$FINGERPRINTGUID
  2
{5C8609B1-4599-4F8F-9BF9-518446406F0F}
  9
$VERSIONGUID
  2
{FAEB1C32-E019-11D5-929B-00C0DF256EC4}
  9
$EXTNAMES
290
     1
  9
$PSVPSCALE
 40
0.0
  9
$OLESTARTUP
290
     0
  0
ENDSEC
  0
SECTION
  2
CLASSES
  0
CLASS
  1
ACDBDICTIONARYWDFLT
  2
AcDbDictionaryWithDefault
  3
ObjectDBX Classes
 90
        0
280
     0
281
     0
  0
CLASS
  1
VISUALSTYLE
  2
AcDbVisualStyle
  3
ObjectDBX Classes
 90
     4095
280
     0
281
     0
  0
CLASS
  1
MATERIAL
  2
AcDbMaterial
  3
ObjectDBX Classes
 90
     1153
280
     0
281
     0
  0
CLASS
  1
SCALE
  2
AcDbScale
  3
ObjectDBX Classes
 90
     1153
280
     0
281
     0
  0
CLASS
  1
TABLESTYLE
  2
AcDbTableStyle
  3
ObjectDBX Classes
 90
     4095
280
     0
281
     0
  0
CLASS
  1
MLEADERSTYLE
  2
AcDbMLeaderStyle
  3
ACDB_MLEADERSTYLE_CLASS
 90
     4095
280
     0
281
     0
  0
CLASS
  1
SUN
  2
AcDbSun
  3
SCENEOE
 90
     1153
280
     0
281
     0
  0
CLASS
  1
ACDBPLACEHOLDER
  2
AcDbPlaceHolder
  3
ObjectDBX Classes
 90
        0
280
     0
281
     0
  0
CLASS
  1
LAYOUT
  2
AcDbLayout
  3
ObjectDBX Classes
 90
        0
280
     0
281
     0
  0
ENDSEC
  0
SECTION
  2
TABLES
  0
TABLE
  2
VPORT
  5
8
330
0
100
AcDbSymbolTable
 70
     1
  0
VPORT
  5
29
330
8
100
AcDbSymbolTableRecord
100
AcDbViewportTableRecord
  2
*Active
 70
     0
 10
0.0
 20
0.0
 11
1.0
 21
1.0
 12
1397.0
 22
1079.5
 13
0.0
 23
0.0
 14
10.0
 24
10.0
 15
10.0
 25
10.0
 16
0.0
 26
0.0
 36
1.0
 17
0.0
 27
0.0
 37
0.0
 40
2159.0
 41
1.2941176471
 42
50.0
 43
0.0
 44
0.0
 50
0.0
 51
0.0
 71
     0
 72
  2000
 73
     1
 74
     3
 75
     0
 76
     0
 77
     0
 78
     0
281
     0
 65
     1
110
0.0
120
0.0
130
0.0
111
1.0
121
0.0
131
0.0
112
0.0
122
1.0
132
0.0
 79
     0
146
0.0
  0
ENDTAB
  0
TABLE
  2
LTYPE
  5
5
330
0
100
AcDbSymbolTable
 70
     6
  0
LTYPE
  5
14
330
5
100
AcDbSymbolTableRecord
100
AcDbLinetypeTableRecord
  2
ByBlock
 70
     0
  3

 72
    65
 73
     0
 40
0.0
  0
LTYPE
  5
15
330
5
100
AcDbSymbolTableRecord
100
AcDbLinetypeTableRecord
  2
ByLayer
 70
     0
  3

 72
    65
 73
     0
 40
0.0
  0
LTYPE
  5
16
330
5
100
AcDbSymbolTableRecord
100
AcDbLinetypeTableRecord
  2
Continuous
 70
     0
  3
Solid line
 72
    65
 73
     0
 40
0.0
  0
LTYPE
  5
6E
330
5
100
AcDbSymbolTableRecord
100
AcDbLinetypeTableRecord
  2
HIDDEN
 70
     0
  3
Hidden __ __ __ __ __ __ __ __ __ __ __ __ __ __
 72
    65
 73
     2
 40
1.905
 49
1.27
 74
     0
 49
-0.635
 74
     0
  0
LTYPE
  5
6F
330
5
100
AcDbSymbolTableRecord
100
AcDbLinetypeTableRecord
  2
PHANTOM
 70
     0
  3
Phantom ______  __  __  ______  __  __  ______
 72
    65
 73
     6
 40
12.7
 49
6.35
 74
     0
 49
-1.27
 74
     0
 49
1.27
 74
     0
 49
-1.27
 74
     0
 49
1.27
 74
     0
 49
-1.27
 74
     0
  0
LTYPE
  5
70
330
5
100
AcDbSymbolTableRecord
100
AcDbLinetypeTableRecord
  2
CENTER
 70
     0
  3
Center ____ _ ____ _ ____ _ ____ _ ____ _ ____
 72
    65
 73
     4
 40
10.16
 49
6.35
 74
     0
 49
-1.27
 74
     0
 49
1.27
 74
     0
 49
-1.27
 74
     0
  0
LTYPE
  5
71
330
5
100
AcDbSymbolTableRecord
100
AcDbLinetypeTableRecord
  2
CENTERX2
 70
     0
  3
Center (2x) ________  __  ________  __  _____
 72
    65
 73
     4
 40
20.32
 49
12.7
 74
     0
 49
-2.54
 74
     0
 49
2.54
 74
     0
 49
-2.54
 74
     0
  0
LTYPE
  5
72
330
5
100
AcDbSymbolTableRecord
100
AcDbLinetypeTableRecord
  2
DOT2
 70
     0
  3
Dot (.5x) ........................................
 72
    65
 73
     2
 40
0.635
 49
0.0
 74
     0
 49
-0.635
 74
     0
  0
ENDTAB
  0
TABLE
  2
LAYER
  5
2
330
0
100
AcDbSymbolTable
 70
     1
  0
LAYER
  5
10
330
2
100
AcDbSymbolTableRecord
100
AcDbLayerTableRecord
  2
0
 70
     0
 62
     7
  6
Continuous
370
    -3
390
F
  0
ENDTAB
  0
TABLE
  2
STYLE
  5
3
330
0
100
AcDbSymbolTable
 70
     1
  0
STYLE
  5
11
330
3
100
AcDbSymbolTableRecord
100
AcDbTextStyleTableRecord
  2
Standard
 70
     0
 40
0.0
 41
1.0
 50
0.0
 71
     0
 42
35.0
  3
txt
  4

  0
ENDTAB
  0
TABLE
  2
VIEW
  5
6
330
0
100
AcDbSymbolTable
 70
     0
  0
ENDTAB
  0
TABLE
  2
UCS
  5
7
330
0
100
AcDbSymbolTable
 70
     0
  0
ENDTAB
  0
TABLE
  2
APPID
  5
9
330
0
100
AcDbSymbolTable
 70
     1
  0
APPID
  5
12
330
9
100
AcDbSymbolTableRecord
100
AcDbRegAppTableRecord
  2
ACAD
 70
     0
  0
ENDTAB
  0
TABLE
  2
DIMSTYLE
  5
A
330
0
100
AcDbSymbolTable
 70
     1
100
AcDbDimStyleTable
  0
DIMSTYLE
105
27
330
A
100
AcDbSymbolTableRecord
100
AcDbDimStyleTableRecord
  2
ISO-25
 70
     0
 41
2.5
 42
0.625
 43
3.75
 44
1.25
 73
     0
 74
     0
 77
     1
 78
     8
140
2.5
141
2.5
143
0.0393700787
147
0.625
171
     3
172
     1
178
     0
271
     2
272
     2
274
     3
278
    44
283
     0
284
     8
340
11
  0
ENDTAB
  0
TABLE
  2
BLOCK_RECORD
  5
1
330
0
100
AcDbSymbolTable
 70
     1
  0
BLOCK_RECORD
  5
1F
330
1
100
AcDbSymbolTableRecord
100
AcDbBlockTableRecord
  2
*Model_Space
340
22
  0
BLOCK_RECORD
  5
1B
330
1
100
AcDbSymbolTableRecord
100
AcDbBlockTableRecord
  2
*Paper_Space
340
1E
  0
BLOCK_RECORD
  5
23
330
1
100
AcDbSymbolTableRecord
100
AcDbBlockTableRecord
  2
*Paper_Space0
340
26
  0
ENDTAB
  0
ENDSEC
  0
SECTION
  2
BLOCKS
  0
BLOCK
  5
20
330
1F
100
AcDbEntity
  8
0
100
AcDbBlockBegin
  2
*Model_Space
 70
     0
 10
0.0
 20
0.0
 30
0.0
  3
*Model_Space
  1

  0
ENDBLK
  5
21
330
1F
100
AcDbEntity
  8
0
100
AcDbBlockEnd
  0
BLOCK
  5
1C
330
1B
100
AcDbEntity
 67
     1
  8
0
100
AcDbBlockBegin
  2
*Paper_Space
 70
     0
 10
0.0
 20
0.0
 30
0.0
  3
*Paper_Space
  1

  0
ENDBLK
  5
1D
330
1B
100
AcDbEntity
 67
     1
  8
0
100
AcDbBlockEnd
  0
BLOCK
  5
24
330
23
100
AcDbEntity
  8
0
100
AcDbBlockBegin
  2
*Paper_Space0
 70
     0
 10
0.0
 20
0.0
 30
0.0
  3
*Paper_Space0
  1

  0
ENDBLK
  5
25
330
23
100
AcDbEntity
  8
0
100
AcDbBlockEnd
  0
ENDSEC
  0
SECTION
  2
ENTITIES
  0
CIRCLE
  5
73
330
1F
100
AcDbEntity
  8
0
  6
Continuous
 62
     7
370
    25
100
AcDbCircle
 10
1214.8185714286
 20
1198.29
 30
0.0
 40
12.5
  0
CIRCLE
  5
74
330
1F
100
AcDbEntity
  8
0
  6
Continuous
 62
     7
370
    25
100
AcDbCircle
 10
1214.8185714286
 20
357.49
 30
0.0
 40
12.5
  0
CIRCLE
  5
75
330
1F
100
AcDbEntity
  8
0
  6
Continuous
 62
     7
370
    25
100
AcDbCircle
 10
1214.8185714286
 20
2039.09
 30
0.0
 40
12.5
  0
CIRCLE
  5
76
330
1F
100
AcDbEntity
  8
0
  6
Continuous
 62
     7
370
    25
100
AcDbCircle
 10
1312.3601634793
 20
117.09
 30
0.0
 40
1.650000000000091
  0
CIRCLE
  5
77
330
1F
100
AcDbEntity
  8
0
  6
Continuous
 62
     7
370
    25
100
AcDbCircle
 10
1312.3601634793
 20
2253.3733333333
 30
0.0
 40
1.650000000000318
  0
CIRCLE
  5
78
330
1F
100
AcDbEntity
  8
0
  6
Continuous
 62
     7
370
    25
100
AcDbCircle
 10
1352.3601634793
 20
2153.3733333333
 30
0.0
 40
1.650000000000091
  0
CIRCLE
  5
79
330
1F
100
AcDbEntity
  8
0
  6
Continuous
 62
     7
370
    25
100
AcDbCircle
 10
1312.3601634793
 20
2068.2566666667
 30
0.0
 40
1.649999999999864
  0
CIRCLE
  5
7A
330
1F
100
AcDbEntity
  8
0
  6
Continuous
 62
     7
370
    25
100
AcDbCircle
 10
1352.3601634793
 20
1968.2566666667
 30
0.0
 40
1.650000000000318
  0
CIRCLE
  5
7B
330
1F
100
AcDbEntity
  8
0
  6
Continuous
 62
     7
370
    25
100
AcDbCircle
 10
1312.3601634793
 20
1883.14
 30
0.0
 40
1.650000000000091
  0
CIRCLE
  5
7C
330
1F
100
AcDbEntity
  8
0
  6
Continuous
 62
     7
370
    25
100
AcDbCircle
 10
1352.3601634793
 20
1783.14
 30
0.0
 40
1.650000000000091
  0
CIRCLE
  5
7D
330
1F
100
AcDbEntity
  8
0
  6
Continuous
 62
     7
370
    25
100
AcDbCircle
 10
1312.3601634793
 20
1698.0233333333
 30
0.0
 40
1.649999999999864
  0
CIRCLE
  5
7E
330
1F
100
AcDbEntity
  8
0
  6
Continuous
 62
     7
370
    25
100
AcDbCircle
 10
1352.3601634793
 20
1598.0233333333
 30
0.0
 40
1.649999999999864
  0
CIRCLE
  5
7F
330
1F
100
AcDbEntity
  8
0
  6
Continuous
 62
     7
370
    25
100
AcDbCircle
 10
1312.3601634793
 20
1512.9066666667
 30
0.0
 40
1.650000000000091
  0
CIRCLE
  5
80
330
1F
100
AcDbEntity
  8
0
  6
Continuous
 62
     7
370
    25
100
AcDbCircle
 10
1352.3601634793
 20
1412.9066666667
 30
0.0
 40
1.650000000000318
  0
CIRCLE
  5
81
330
1F
100
AcDbEntity
  8
0
  6
Continuous
 62
     7
370
    25
100
AcDbCircle
 10
1312.3601634793
 20
402.2066666667
 30
0.0
 40
1.649999999999864
  0
CIRCLE
  5
82
330
1F
100
AcDbEntity
  8
0
  6
Continuous
 62
     7
370
    25
100
AcDbCircle
 10
1352.3601634793
 20
2331.69
 30
0.0
 40
1.650000000000091
  0
CIRCLE
  5
83
330
1F
100
AcDbEntity
  8
0
  6
Continuous
 62
     7
370
    25
100
AcDbCircle
 10
1312.3601634793
 20
2291.69
 30
0.0
 40
1.650000000000091
  0
CIRCLE
  5
84
330
1F
100
AcDbEntity
  8
0
  6
Continuous
 62
     7
370
    25
100
AcDbCircle
 10
1312.3601634793
 20
587.3233333333
 30
0.0
 40
1.649999999999864
  0
CIRCLE
  5
85
330
1F
100
AcDbEntity
  8
0
  6
Continuous
 62
     7
370
    25
100
AcDbCircle
 10
1352.3601634793
 20
487.3233333333
 30
0.0
 40
1.650000000000091
  0
CIRCLE
  5
86
330
1F
100
AcDbEntity
  8
0
  6
Continuous
 62
     7
370
    25
100
AcDbCircle
 10
1352.3601634793
 20
302.2066666667
 30
0.0
 40
1.649999999998727
  0
CIRCLE
  5
87
330
1F
100
AcDbEntity
  8
0
  6
Continuous
 62
     7
370
    25
100
AcDbCircle
 10
1312.3601634793
 20
217.09
 30
0.0
 40
1.650000000000091
  0
CIRCLE
  5
88
330
1F
100
AcDbEntity
  8
0
  6
Continuous
 62
     7
370
    25
100
AcDbCircle
 10
1352.3601634793
 20
117.09
 30
0.0
 40
1.650000000000091
  0
CIRCLE
  5
89
330
1F
100
AcDbEntity
  8
0
  6
Continuous
 62
     7
370
    25
100
AcDbCircle
 10
1352.3601634793
 20
672.44
 30
0.0
 40
1.649999999999864
  0
CIRCLE
  5
8A
330
1F
100
AcDbEntity
  8
0
  6
Continuous
 62
     7
370
    25
100
AcDbCircle
 10
1312.3601634793
 20
772.44
 30
0.0
 40
1.650000000000091
  0
CIRCLE
  5
8B
330
1F
100
AcDbEntity
  8
0
  6
Continuous
 62
     7
370
    25
100
AcDbCircle
 10
1352.3601634793
 20
857.5566666667
 30
0.0
 40
1.650000000000318
  0
CIRCLE
  5
8C
330
1F
100
AcDbEntity
  8
0
  6
Continuous
 62
     7
370
    25
100
AcDbCircle
 10
1312.3601634793
 20
957.5566666667
 30
0.0
 40
1.650000000000091
  0
CIRCLE
  5
8D
330
1F
100
AcDbEntity
  8
0
  6
Continuous
 62
     7
370
    25
100
AcDbCircle
 10
1352.3601634793
 20
1042.6733333333
 30
0.0
 40
1.650000000000091
  0
CIRCLE
  5
8E
330
1F
100
AcDbEntity
  8
0
  6
Continuous
 62
     7
370
    25
100
AcDbCircle
 10
1312.3601634793
 20
1142.6733333333
 30
0.0
 40
1.650000000000318
  0
CIRCLE
  5
8F
330
1F
100
AcDbEntity
  8
0
  6
Continuous
 62
     7
370
    25
100
AcDbCircle
 10
1352.3601634793
 20
1227.79
 30
0.0
 40
1.649999999999864
  0
CIRCLE
  5
90
330
1F
100
AcDbEntity
  8
0
  6
Continuous
 62
     7
370
    25
100
AcDbCircle
 10
1312.3601634793
 20
1327.79
 30
0.0
 40
1.650000000000091
  0
SPLINE
  5
91
330
1F
100
AcDbEntity
  8
0
  6
Continuous
 62
     7
370
    25
100
AcDbSpline
210
0.0
220
0.0
230
1.0
 70
     8
 71
     3
 72
    28
 73
    24
 74
     0
 42
0.000000001
 43
0.00000001
 40
0.0
 40
0.0
 40
0.0
 40
0.0
 40
0.125
 40
0.125
 40
0.1875
 40
0.1875
 40
0.21875
 40
0.21875
 40
0.234375
 40
0.234375
 40
0.25
 40
0.25
 40
0.375
 40
0.375
 40
0.4375
 40
0.4375
 40
0.46875
 40
0.46875
 40
0.484375
 40
0.484375
 40
0.5
 40
0.5
 40
1.0
 40
1.0
 40
1.0
 40
1.0
 10
1260.715208248852
 20
133.7900000000002
 30
0.0
 10
1260.83719418724
 20
133.7864714768834
 30
0.0
 10
1260.959197626175
 20
133.7514458900499
 30
0.0
 10
1261.1422290354
 20
133.6516619142238
 30
0.0
 10
1261.203243880278
 20
133.6105263230193
 30
0.0
 10
1261.294772710301
 20
133.5370115373181
 30
0.0
 10
1261.325283414093
 20
133.5105380422684
 30
0.0
 10
1261.371051110458
 20
133.4678749499708
 30
0.0
 10
1261.386307282692
 20
133.4531617775846
 30
0.0
 10
1261.416820174052
 20
133.4227511495706
 30
0.0
 10
1261.437425657854
 20
133.4013779786633
 30
0.0
 10
1261.526599708926
 20
133.3067530409507
 30
0.0
 10
1261.608506651148
 20
133.2072405389619
 30
0.0
 10
1261.735328743051
 20
133.034869616613
 30
0.0
 10
1261.778263053447
 20
132.9735622809355
 30
0.0
 10
1261.843654938684
 20
132.875825735078
 30
0.0
 10
1261.865617303703
 20
132.8422842960683
 30
0.0
 10
1261.898808456142
 20
132.7905282519684
 30
0.0
 10
1261.909913441108
 20
132.7730355896711
 30
0.0
 10
1261.932205946008
 20
132.7375689698816
 30
0.0
 10
1261.948935621821
 20
132.7106048893333
 30
0.0
 10
1262.136594462706
 20
132.4061969821885
 30
0.0
 10
1262.406229264583
 20
131.902403513089
 30
0.0
 10
1262.763526658993
 20
131.1900000000002
 30
0.0
  0
LINE
  5
92
330
1F
100
AcDbEntity
  8
0
  6
Continuous
 62
     7
370
    25
100
AcDbLine
 10
1248.4152082489
 20
133.79
 30
0.0
 11
1260.7152082489
 21
133.79
 31
0.0
  0
SPLINE
  5
93
330
1F
100
AcDbEntity
  8
0
  6
Continuous
 62
     7
370
    25
100
AcDbSpline
210
0.0
220
0.0
230
1.0
 70
     8
 71
     3
 72
    18
 73
    14
 74
     0
 42
0.000000001
 43
0.00000001
 40
0.0
 40
0.0
 40
0.0
 40
0.0
 40
0.25
 40
0.25
 40
0.375
 40
0.375
 40
0.4375
 40
0.4375
 40
0.46875
 40
0.46875
 40
0.5
 40
0.5
 40
1.0
 40
1.0
 40
1.0
 40
1.0
 10
1246.366889838712
 20
134.5900000000008
 30
0.0
 10
1246.58085877691
 20
134.4587306632619
 30
0.0
 10
1246.768889483257
 20
134.3478574956164
 30
0.0
 10
1247.012028195002
 20
134.2121419977872
 30
0.0
 10
1247.086589874288
 20
134.1720025407846
 30
0.0
 10
1247.188705556272
 20
134.1194419186895
 30
0.0
 10
1247.221122977443
 20
134.1031964718922
 30
0.0
 10
1247.267317399964
 20
134.0807404425495
 30
0.0
 10
1247.282310255931
 20
134.073573789578
 30
0.0
 10
1247.311485398121
 20
134.0598778639178
 30
0.0
 10
1247.316322605914
 20
134.0575612917663
 30
0.0
 10
1247.709397962137
 20
133.8803654793649
 30
0.0
 10
1248.067985816524
 20
133.7946528098038
 30
0.0
 10
1248.415208248852
 20
133.7900000000006
 30
0.0
  0
LINE
  5
94
330
1F
100
AcDbEntity
  8
0
  6
Continuous
 62
     7
370
    25
100
AcDbLine
 10
1234.0668898387
 20
146.89
 30
0.0
 11
1246.3668898387
 21
134.59
 31
0.0
  0
SPLINE
  5
95
330
1F
100
AcDbEntity
  8
0
  6
Continuous
 62
     7
370
    25
100
AcDbSpline
210
0.0
220
0.0
230
1.0
 70
     8
 71
     3
 72
    28
 73
    24
 74
     0
 42
0.000000001
 43
0.00000001
 40
0.0
 40
0.0
 40
0.0
 40
0.0
 40
0.125
 40
0.125
 40
0.1875
 40
0.1875
 40
0.21875
 40
0.21875
 40
0.234375
 40
0.234375
 40
0.25
 40
0.25
 40
0.375
 40
0.375
 40
0.4375
 40
0.4375
 40
0.46875
 40
0.46875
 40
0.484375
 40
0.484375
 40
0.5
 40
0.5
 40
1.0
 40
1.0
 40
1.0
 40
1.0
 10
1232.018571428571
 20
149.49
 30
0.0
 10
1232.140557366922
 20
149.4864714768832
 30
0.0
 10
1232.262560805839
 20
149.4514458900496
 30
0.0
 10
1232.445592215064
 20
149.3516619142235
 30
0.0
 10
1232.506607059947
 20
149.310526323019
 30
0.0
 10
1232.598135889984
 20
149.2370115373179
 30
0.0
 10
1232.628646593781
 20
149.2105380422684
 30
0.0
 10
1232.674414290156
 20
149.1678749499709
 30
0.0
 10
1232.689670462394
 20
149.1531617775846
 30
0.0
 10
1232.720183353762
 20
149.1227511495706
 30
0.0
 10
1232.740788837579
 20
149.101377978654
 30
0.0
 10
1232.829962888596
 20
149.0067530410286
 30
0.0
 10
1232.911869830793
 20
148.9072405390791
 30
0.0
 10
1233.038691922696
 20
148.7348696167298
 30
0.0
 10
1233.081626233098
 20
148.6735622810426
 30
0.0
 10
1233.147018118354
 20
148.5758257351558
 30
0.0
 10
1233.16898048338
 20
148.542284296134
 30
0.0
 10
1233.202171635834
 20
148.4905282520124
 30
0.0
 10
1233.213276620804
 20
148.4730355897076
 30
0.0
 10
1233.235569125715
 20
148.4375689699004
 30
0.0
 10
1233.252298801541
 20
148.4106048893324
 30
0.0
 10
1233.439957642404
 20
148.1061969822275
 30
0.0
 10
1233.70959244428
 20
147.6024035131282
 30
0.0
 10
1234.066889838712
 20
146.8899999999998
 30
0.0
  0
LINE
  5
96
330
1F
100
AcDbEntity
  8
0
  6
Continuous
 62
     7
370
    25
100
AcDbLine
 10
1162.7702530184
 20
149.49
 30
0.0
 11
1232.0185714286
 21
149.49
 31
0.0
  0
LINE
  5
97
330
1F
100
AcDbEntity
  8
0
  6
Continuous
 62
     7
370
    25
100
AcDbLine
 10
1162.7702530184
 20
2238.89
 30
0.0
 11
1162.7702530184
 21
149.49
 31
0.0
  0
LINE
  5
98
330
1F
100
AcDbEntity
  8
0
  6
Continuous
 62
     7
370
    25
100
AcDbLine
 10
1170.1702530184
 20
2246.29
 30
0.0
 11
1162.7702530184
 21
2238.89
 31
0.0
  0
SPLINE
  5
99
330
1F
100
AcDbEntity
  8
0
  6
Continuous
 62
     7
370
    25
100
AcDbSpline
210
0.0
220
0.0
230
1.0
 70
     8
 71
     3
 72
    18
 73
    14
 74
     0
 42
0.000000001
 43
0.00000001
 40
0.0
 40
0.0
 40
0.0
 40
0.0
 40
0.25
 40
0.25
 40
0.375
 40
0.375
 40
0.4375
 40
0.4375
 40
0.46875
 40
0.46875
 40
0.5
 40
0.5
 40
1.0
 40
1.0
 40
1.0
 40
1.0
 10
1172.218571428572
 20
2247.090000000001
 30
0.0
 10
1172.045228928877
 20
2247.08773473966
 30
0.0
 10
1171.868910456798
 20
2247.065173825703
 30
0.0
 10
1171.599968790102
 20
2247.000888974344
 30
0.0
 10
1171.509577574773
 20
2246.974386777154
 30
0.0
 10
1171.372874762136
 20
2246.927022611261
 30
0.0
 10
1171.32712115965
 20
2246.909966077613
 30
0.0
 10
1171.258211758509
 20
2246.882478559614
 30
0.0
 10
1171.23519545856
 20
2246.872998934026
 30
0.0
 10
1171.189069859526
 20
2246.853405443676
 30
0.0
 10
1171.156554215466
 20
2246.839054306052
 30
0.0
 10
1170.922813502892
 20
2246.733761210729
 30
0.0
 10
1170.598629588441
 20
2246.552807679209
 30
0.0
 10
1170.170253018431
 20
2246.29
 30
0.0
  0
LINE
  5
9A
330
1F
100
AcDbEntity
  8
0
  6
Continuous
 62
     7
370
    25
100
AcDbLine
 10
1232.0185714286
 20
2247.09
 30
0.0
 11
1172.2185714286
 21
2247.09
 31
0.0
  0
SPLINE
  5
9B
330
1F
100
AcDbEntity
  8
0
  6
Continuous
 62
     7
370
    25
100
AcDbSpline
210
0.0
220
0.0
230
1.0
 70
     8
 71
     3
 72
    30
 73
    26
 74
     0
 42
0.000000001
 43
0.00000001
 40
0.0
 40
0.0
 40
0.0
 40
0.0
 40
0.25
 40
0.25
 40
0.375
 40
0.375
 40
0.4375
 40
0.4375
 40
0.46875
 40
0.46875
 40
0.484375
 40
0.484375
 40
0.5
 40
0.5
 40
0.625
 40
0.625
 40
0.6875
 40
0.6875
 40
0.71875
 40
0.71875
 40
0.734375
 40
0.734375
 40
0.75
 40
0.75
 40
1.0
 40
1.0
 40
1.0
 40
1.0
 10
1234.066889838712
 20
2249.690000000001
 30
0.0
 10
1233.888359832851
 20
2249.33403509515
 30
0.0
 10
1233.7316854966
 20
2249.030103254122
 30
0.0
 10
1233.529457496641
 20
2248.652255088312
 30
0.0
 10
1233.467512080724
 20
2248.539313965664
 30
0.0
 10
1233.382789832952
 20
2248.389414680626
 30
0.0
 10
1233.355915063046
 20
2248.342700318769
 30
0.0
 10
1233.317651877212
 20
2248.277506875716
 30
0.0
 10
1233.305238976772
 20
2248.256588744654
 30
0.0
 10
1233.287131868368
 20
2248.226431072994
 30
0.0
 10
1233.281181539276
 20
2248.21658176993
 30
0.0
 10
1233.269451628511
 20
2248.197289672113
 30
0.0
 10
1233.269180827798
 20
2248.196785540233
 30
0.0
 10
1233.168353927488
 20
2248.03318170899
 30
0.0
 10
1233.081267658413
 20
2247.903011979008
 30
0.0
 10
1232.954444718264
 20
2247.73064123072
 30
0.0
 10
1232.912804815458
 20
2247.676998289071
 30
0.0
 10
1232.851296577116
 20
2247.602254838268
 30
0.0
 10
1232.830952433647
 20
2247.578293848279
 30
0.0
 10
1232.800674122409
 20
2247.543782603714
 30
0.0
 10
1232.790621002657
 20
2247.532517228928
 30
0.0
 10
1232.770594064476
 20
2247.510463226163
 30
0.0
 10
1232.76592203154
 20
2247.505305184254
 30
0.0
 10
1232.506910826104
 20
2247.230230893249
 30
0.0
 10
1232.262872609534
 20
2247.09718944538
 30
0.0
 10
1232.018571428571
 20
2247.090000000001
 30
0.0
  0
LINE
  5
9C
330
1F
100
AcDbEntity
  8
0
  6
Continuous
 62
     7
370
    25
100
AcDbLine
 10
1246.3668898387
 20
2261.99
 30
0.0
 11
1234.0668898387
 21
2249.69
 31
0.0
  0
SPLINE
  5
9D
330
1F
100
AcDbEntity
  8
0
  6
Continuous
 62
     7
370
    25
100
AcDbSpline
210
0.0
220
0.0
230
1.0
 70
     8
 71
     3
 72
    18
 73
    14
 74
     0
 42
0.000000001
 43
0.00000001
 40
0.0
 40
0.0
 40
0.0
 40
0.0
 40
0.25
 40
0.25
 40
0.375
 40
0.375
 40
0.4375
 40
0.4375
 40
0.46875
 40
0.46875
 40
0.5
 40
0.5
 40
1.0
 40
1.0
 40
1.0
 40
1.0
 10
1248.415208248852
 20
2262.79
 30
0.0
 10
1248.241865749159
 20
2262.78773473966
 30
0.0
 10
1248.06554727708
 20
2262.765173825703
 30
0.0
 10
1247.796605610383
 20
2262.700888974344
 30
0.0
 10
1247.706214395055
 20
2262.674386777153
 30
0.0
 10
1247.569511582418
 20
2262.627022611261
 30
0.0
 10
1247.523757979931
 20
2262.609966077613
 30
0.0
 10
1247.45484857879
 20
2262.582478559614
 30
0.0
 10
1247.431832278842
 20
2262.572998934027
 30
0.0
 10
1247.385706679807
 20
2262.553405443676
 30
0.0
 10
1247.353191035749
 20
2262.539054306053
 30
0.0
 10
1247.119450323147
 20
2262.433761210718
 30
0.0
 10
1246.795266408695
 20
2262.252807679197
 30
0.0
 10
1246.366889838712
 20
2261.990000000001
 30
0.0
  0
LINE
  5
9E
330
1F
100
AcDbEntity
  8
0
  6
Continuous
 62
     7
370
    25
100
AcDbLine
 10
1260.7152082489
 20
2262.79
 30
0.0
 11
1248.4152082489
 21
2262.79
 31
0.0
  0
SPLINE
  5
9F
330
1F
100
AcDbEntity
  8
0
  6
Continuous
 62
     7
370
    25
100
AcDbSpline
210
0.0
220
0.0
230
1.0
 70
     8
 71
     3
 72
    30
 73
    26
 74
     0
 42
0.000000001
 43
0.00000001
 40
0.0
 40
0.0
 40
0.0
 40
0.0
 40
0.25
 40
0.25
 40
0.375
 40
0.375
 40
0.4375
 40
0.4375
 40
0.46875
 40
0.46875
 40
0.484375
 40
0.484375
 40
0.5
 40
0.5
 40
0.625
 40
0.625
 40
0.6875
 40
0.6875
 40
0.71875
 40
0.71875
 40
0.734375
 40
0.734375
 40
0.75
 40
0.75
 40
1.0
 40
1.0
 40
1.0
 40
1.0
 10
1262.763526658993
 20
2265.390000000001
 30
0.0
 10
1262.584996653136
 20
2265.034035095159
 30
0.0
 10
1262.428322316888
 20
2264.730103254134
 30
0.0
 10
1262.226094316929
 20
2264.352255088324
 30
0.0
 10
1262.164148901011
 20
2264.239313965675
 30
0.0
 10
1262.079426653238
 20
2264.089414680634
 30
0.0
 10
1262.05255188333
 20
2264.042700318775
 30
0.0
 10
1262.014288697496
 20
2263.977506875721
 30
0.0
 10
1262.001875797055
 20
2263.956588744658
 30
0.0
 10
1261.98376868865
 20
2263.926431072997
 30
0.0
 10
1261.977818359558
 20
2263.916581769932
 30
0.0
 10
1261.966088448793
 20
2263.897289672114
 30
0.0
 10
1261.965817648084
 20
2263.896785540242
 30
0.0
 10
1261.864990747725
 20
2263.733181708918
 30
0.0
 10
1261.777904478626
 20
2263.603011978899
 30
0.0
 10
1261.651081538478
 20
2263.43064123061
 30
0.0
 10
1261.609441635678
 20
2263.37699828897
 30
0.0
 10
1261.547933397353
 20
2263.302254838195
 30
0.0
 10
1261.52758925389
 20
2263.278293848218
 30
0.0
 10
1261.497310942665
 20
2263.243782603673
 30
0.0
 10
1261.487257822918
 20
2263.232517228894
 30
0.0
 10
1261.467230884747
 20
2263.210463226145
 30
0.0
 10
1261.462558851826
 20
2263.205305184254
 30
0.0
 10
1261.203547646307
 20
2262.930230893244
 30
0.0
 10
1260.959509429738
 20
2262.797189445375
 30
0.0
 10
1260.715208248852
 20
2262.79
 30
0.0
  0
LINE
  5
A0
330
1F
100
AcDbEntity
  8
0
  6
Continuous
 62
     7
370
    25
100
AcDbLine
 10
1275.063526659
 20
2277.69
 30
0.0
 11
1262.763526659
 21
2265.39
 31
0.0
  0
SPLINE
  5
A1
330
1F
100
AcDbEntity
  8
0
  6
Continuous
 62
     7
370
    25
100
AcDbSpline
210
0.0
220
0.0
230
1.0
 70
     8
 71
     3
 72
    18
 73
    14
 74
     0
 42
0.000000001
 43
0.00000001
 40
0.0
 40
0.0
 40
0.0
 40
0.0
 40
0.25
 40
0.25
 40
0.375
 40
0.375
 40
0.4375
 40
0.4375
 40
0.46875
 40
0.46875
 40
0.5
 40
0.5
 40
1.0
 40
1.0
 40
1.0
 40
1.0
 10
1277.111845069134
 20
2278.49
 30
0.0
 10
1276.93850256953
 20
2278.48773473966
 30
0.0
 10
1276.762184097497
 20
2278.465173825703
 30
0.0
 10
1276.4932424308
 20
2278.400888974344
 30
0.0
 10
1276.40285121546
 20
2278.374386777153
 30
0.0
 10
1276.266148402789
 20
2278.327022611261
 30
0.0
 10
1276.220394800288
 20
2278.309966077613
 30
0.0
 10
1276.151485399122
 20
2278.282478559614
 30
0.0
 10
1276.128469099164
 20
2278.272998934026
 30
0.0
 10
1276.08234350011
 20
2278.253405443676
 30
0.0
 10
1276.049827856011
 20
2278.239054306041
 30
0.0
 10
1275.816087143732
 20
2278.133761210903
 30
0.0
 10
1275.491903229281
 20
2277.952807679383
 30
0.0
 10
1275.063526658993
 20
2277.69
 30
0.0
  0
LINE
  5
A2
330
1F
100
AcDbEntity
  8
0
  6
Continuous
 62
     7
370
    25
100
AcDbLine
 10
1287.9118450691
 20
2278.49
 30
0.0
 11
1277.1118450691
 21
2278.49
 31
0.0
  0
SPLINE
  5
A3
330
1F
100
AcDbEntity
  8
0
  6
Continuous
 62
     7
370
    25
100
AcDbSpline
210
0.0
220
0.0
230
1.0
 70
     8
 71
     3
 72
    30
 73
    26
 74
     0
 42
0.000000001
 43
0.00000001
 40
0.0
 40
0.0
 40
0.0
 40
0.0
 40
0.25
 40
0.25
 40
0.375
 40
0.375
 40
0.4375
 40
0.4375
 40
0.46875
 40
0.46875
 40
0.484375
 40
0.484375
 40
0.5
 40
0.5
 40
0.625
 40
0.625
 40
0.6875
 40
0.6875
 40
0.71875
 40
0.71875
 40
0.734375
 40
0.734375
 40
0.75
 40
0.75
 40
1.0
 40
1.0
 40
1.0
 40
1.0
 10
1289.960163479274
 20
2281.090000000001
 30
0.0
 10
1289.781633473316
 20
2280.734035094956
 30
0.0
 10
1289.624959137017
 20
2280.430103253831
 30
0.0
 10
1289.422731137058
 20
2280.052255088021
 30
0.0
 10
1289.360785721153
 20
2279.939313965397
 30
0.0
 10
1289.276063473417
 20
2279.789414680432
 30
0.0
 10
1289.249188703526
 20
2279.742700318605
 30
0.0
 10
1289.210925517719
 20
2279.677506875607
 30
0.0
 10
1289.198512617289
 20
2279.656588744564
 30
0.0
 10
1289.180405508901
 20
2279.626431072937
 30
0.0
 10
1289.174455179815
 20
2279.616581769884
 30
0.0
 10
1289.162725269061
 20
2279.597289672089
 30
0.0
 10
1289.162454468357
 20
2279.596785540224
 30
0.0
 10
1289.061627568074
 20
2279.433181709065
 30
0.0
 10
1288.97454129901
 20
2279.30301197912
 30
0.0
 10
1288.847718358861
 20
2279.130641230831
 30
0.0
 10
1288.806078456053
 20
2279.076998289172
 30
0.0
 10
1288.744570217702
 20
2279.002254838342
 30
0.0
 10
1288.724226074229
 20
2278.978293848341
 30
0.0
 10
1288.693947762984
 20
2278.943782603755
 30
0.0
 10
1288.68389464323
 20
2278.932517228961
 30
0.0
 10
1288.663867705044
 20
2278.910463226181
 30
0.0
 10
1288.659195672093
 20
2278.905305184253
 30
0.0
 10
1288.400184466813
 20
2278.630230893253
 30
0.0
 10
1288.156146250244
 20
2278.497189445385
 30
0.0
 10
1287.911845069134
 20
2278.490000000001
 30
0.0
  0
LINE
  5
A4
330
1F
100
AcDbEntity
  8
0
  6
Continuous
 62
     7
370
    25
100
AcDbLine
 10
1364.7601634793
 20
2355.89
 30
0.0
 11
1289.9601634793
 21
2281.09
 31
0.0
  0
SPLINE
  5
A5
330
1F
100
AcDbEntity
  8
0
  6
Continuous
 62
     7
370
    25
100
AcDbSpline
210
0.0
220
0.0
230
1.0
 70
     8
 71
     3
 72
    18
 73
    14
 74
     0
 42
0.000000001
 43
0.00000001
 40
0.0
 40
0.0
 40
0.0
 40
0.0
 40
0.25
 40
0.25
 40
0.375
 40
0.375
 40
0.4375
 40
0.4375
 40
0.46875
 40
0.46875
 40
0.5
 40
0.5
 40
1.0
 40
1.0
 40
1.0
 40
1.0
 10
1366.808481889415
 20
2356.69
 30
0.0
 10
1366.636047700287
 20
2356.688143300033
 30
0.0
 10
1366.460184169858
 20
2356.665787021134
 30
0.0
 10
1366.191244862267
 20
2356.601503234391
 30
0.0
 10
1366.100741091079
 20
2356.574950410744
 30
0.0
 10
1365.963699431308
 20
2356.527433833174
 30
0.0
 10
1365.91780454422
 20
2356.510313750301
 30
0.0
 10
1365.848640712842
 20
2356.482711790467
 30
0.0
 10
1365.825532518924
 20
2356.473190831268
 30
0.0
 10
1365.779208964174
 20
2356.453508301029
 30
0.0
 10
1365.74647423797
 20
2356.439058575987
 30
0.0
 10
1365.512731396324
 20
2356.333765285664
 30
0.0
 10
1365.188544336399
 20
2356.152810334656
 30
0.0
 10
1364.760163479274
 20
2355.890000000001
 30
0.0
  0
LINE
  5
A6
330
1F
100
AcDbEntity
  8
0
  6
Continuous
 62
     7
370
    25
100
AcDbLine
 10
1374.2084818894
 20
2356.69
 30
0.0
 11
1366.8084818894
 21
2356.69
 31
0.0
  0
LINE
  5
A7
330
1F
100
AcDbEntity
  8
0
  6
Continuous
 62
     7
370
    25
100
AcDbLine
 10
1374.2084818894
 20
2356.69
 30
0.0
 11
1374.2084818894
 21
97.09
 31
0.0
  0
LINE
  5
A8
330
1F
100
AcDbEntity
  8
0
  6
Continuous
 62
     7
370
    25
100
AcDbLine
 10
1374.2084818894
 20
97.09
 30
0.0
 11
1308.3601634793
 21
97.09
 31
0.0
  0
LINE
  5
A9
330
1F
100
AcDbEntity
  8
0
  6
Continuous
 62
     7
370
    25
100
AcDbLine
 10
1308.3601634793
 20
97.09
 30
0.0
 11
1289.9601634793
 21
115.49
 31
0.0
  0
SPLINE
  5
AA
330
1F
100
AcDbEntity
  8
0
  6
Continuous
 62
     7
370
    25
100
AcDbSpline
210
0.0
220
0.0
230
1.0
 70
     8
 71
     3
 72
    28
 73
    24
 74
     0
 42
0.000000001
 43
0.00000001
 40
0.0
 40
0.0
 40
0.0
 40
0.0
 40
0.125
 40
0.125
 40
0.1875
 40
0.1875
 40
0.21875
 40
0.21875
 40
0.234375
 40
0.234375
 40
0.25
 40
0.25
 40
0.375
 40
0.375
 40
0.4375
 40
0.4375
 40
0.46875
 40
0.46875
 40
0.484375
 40
0.484375
 40
0.5
 40
0.5
 40
1.0
 40
1.0
 40
1.0
 40
1.0
 10
1287.911845069134
 20
118.0900000000004
 30
0.0
 10
1288.033831007521
 20
118.0864714768835
 30
0.0
 10
1288.155834446456
 20
118.05144589005
 30
0.0
 10
1288.338865855681
 20
117.9516619142239
 30
0.0
 10
1288.399880700559
 20
117.9105263230194
 30
0.0
 10
1288.491409530582
 20
117.8370115373187
 30
0.0
 10
1288.521920234374
 20
117.8105380422692
 30
0.0
 10
1288.567687930739
 20
117.7678749499717
 30
0.0
 10
1288.582944102973
 20
117.7531617775854
 30
0.0
 10
1288.613456994333
 20
117.7227511495714
 30
0.0
 10
1288.634062478135
 20
117.7013779786641
 30
0.0
 10
1288.723236529207
 20
117.6067530409511
 30
0.0
 10
1288.80514347143
 20
117.5072405389623
 30
0.0
 10
1288.931965563333
 20
117.3348696166133
 30
0.0
 10
1288.974899873729
 20
117.2735622809359
 30
0.0
 10
1289.040291758965
 20
117.1758257350784
 30
0.0
 10
1289.062254123984
 20
117.1422842960691
 30
0.0
 10
1289.095445276424
 20
117.0905282519694
 30
0.0
 10
1289.106550261389
 20
117.0730355896719
 30
0.0
 10
1289.128842766289
 20
117.037568969882
 30
0.0
 10
1289.145572442103
 20
117.0106048893332
 30
0.0
 10
1289.333231282978
 20
116.7061969822031
 30
0.0
 10
1289.602866084855
 20
116.2024035131036
 30
0.0
 10
1289.960163479274
 20
115.4900000000002
 30
0.0
  0
LINE
  5
AB
330
1F
100
AcDbEntity
  8
0
  6
Continuous
 62
     7
370
    25
100
AcDbLine
 10
1277.1118450691
 20
118.09
 30
0.0
 11
1287.9118450691
 21
118.09
 31
0.0
  0
SPLINE
  5
AC
330
1F
100
AcDbEntity
  8
0
  6
Continuous
 62
     7
370
    25
100
AcDbSpline
210
0.0
220
0.0
230
1.0
 70
     8
 71
     3
 72
    18
 73
    14
 74
     0
 42
0.000000001
 43
0.00000001
 40
0.0
 40
0.0
 40
0.0
 40
0.0
 40
0.25
 40
0.25
 40
0.375
 40
0.375
 40
0.4375
 40
0.4375
 40
0.46875
 40
0.46875
 40
0.5
 40
0.5
 40
1.0
 40
1.0
 40
1.0
 40
1.0
 10
1275.063526658993
 20
118.8900000000005
 30
0.0
 10
1275.277495597353
 20
118.7587306631649
 30
0.0
 10
1275.465526303781
 20
118.6478574954714
 30
0.0
 10
1275.708665015526
 20
118.5121419976422
 30
0.0
 10
1275.783226694792
 20
118.4720025406515
 30
0.0
 10
1275.885342376716
 20
118.4194419185927
 30
0.0
 10
1275.917759797861
 20
118.4031964718112
 30
0.0
 10
1275.963954220336
 20
118.3807404424955
 30
0.0
 10
1275.978947076287
 20
118.3735737895339
 30
0.0
 10
1276.008122218441
 20
118.3598778638949
 30
0.0
 10
1276.012959426184
 20
118.357561291767
 30
0.0
 10
1276.406034782601
 20
118.1803654793626
 30
0.0
 10
1276.764622636988
 20
118.0946528098016
 30
0.0
 10
1277.111845069134
 20
118.090000000001
 30
0.0
  0
LINE
  5
AD
330
1F
100
AcDbEntity
  8
0
  6
Continuous
 62
     7
370
    25
100
AcDbLine
 10
1262.763526659
 20
131.19
 30
0.0
 11
1275.063526659
 21
118.89
 31
0.0
  0
ENDSEC
  0
SECTION
  2
OBJECTS
  0
DICTIONARY
  5
C
330
0
100
AcDbDictionary
281
     1
  3
ACAD_GROUP
350
D
  3
ACAD_LAYOUT
350
1A
  3
ACAD_MLINESTYLE
350
17
  3
ACAD_PLOTSETTINGS
350
19
  3
ACAD_PLOTSTYLENAME
350
E
  3
ACAD_SCALELIST
350
47
  0
DICTIONARY
  5
D
102
{ACAD_REACTORS
330
C
102
}
330
C
100
AcDbDictionary
281
     1
  0
DICTIONARY
  5
1A
102
{ACAD_REACTORS
330
C
102
}
330
C
100
AcDbDictionary
281
     1
  3
Layout1
350
1E
  3
Layout2
350
26
  3
Model
350
22
  0
DICTIONARY
  5
17
102
{ACAD_REACTORS
330
C
102
}
330
C
100
AcDbDictionary
281
     1
  3
Standard
350
18
  0
DICTIONARY
  5
19
102
{ACAD_REACTORS
330
C
102
}
330
C
100
AcDbDictionary
281
     1
  0
ACDBDICTIONARYWDFLT
  5
E
102
{ACAD_REACTORS
330
C
102
}
330
C
100
AcDbDictionary
281
     1
  3
Normal
350
F
100
AcDbDictionaryWithDefault
340
F
  0
DICTIONARY
  5
47
102
{ACAD_REACTORS
330
C
102
}
330
C
100
AcDbDictionary
281
     1
  3
A0
350
48
  3
A1
350
49
  3
A2
350
4A
  3
A3
350
4B
  3
A4
350
4C
  3
A5
350
4D
  3
A6
350
4E
  3
A7
350
4F
  3
A8
350
50
  3
A9
350
51
  3
B0
350
52
  3
B1
350
53
  3
B2
350
54
  3
B3
350
55
  3
B4
350
56
  3
B5
350
57
  3
B6
350
58
  3
B7
350
59
  3
B8
350
5A
  3
B9
350
5B
  3
C0
350
5C
  3
C1
350
5D
  3
C2
350
5E
  3
C3
350
5F
  3
C4
350
60
  3
C5
350
61
  3
C6
350
62
  3
C7
350
63
  3
C8
350
64
  3
C9
350
65
  3
D0
350
66
  3
D1
350
67
  3
D2
350
68
  0
LAYOUT
  5
1E
102
{ACAD_REACTORS
330
1A
102
}
330
1A
100
AcDbPlotSettings
  1

  2
none_device
  4

  6

 40
0.0
 41
0.0
 42
0.0
 43
0.0
 44
0.0
 45
0.0
 46
0.0
 47
0.0
 48
0.0
 49
0.0
140
0.0
141
0.0
142
1.0
143
1.0
 70
   688
 72
     1
 73
     0
 74
     5
  7

 75
    16
147
1.0
148
0.0
149
0.0
100
AcDbLayout
  1
Layout1
 70
     1
 71
     1
 10
0.0
 20
0.0
 11
420.0
 21
297.0
 12
0.0
 22
0.0
 32
0.0
 14
1.0000000000E+20
 24
1.0000000000E+20
 34
1.0000000000E+20
 15
-1.0000000000E+20
 25
-1.0000000000E+20
 35
-1.0000000000E+20
146
0.0
 13
0.0
 23
0.0
 33
0.0
 16
1.0
 26
0.0
 36
0.0
 17
0.0
 27
1.0
 37
0.0
 76
     0
330
1B
  0
LAYOUT
  5
26
102
{ACAD_REACTORS
330
1A
102
}
330
1A
100
AcDbPlotSettings
  1

  2
none_device
  4

  6

 40
0.0
 41
0.0
 42
0.0
 43
0.0
 44
0.0
 45
0.0
 46
0.0
 47
0.0
 48
0.0
 49
0.0
140
0.0
141
0.0
142
1.0
143
1.0
 70
   688
 72
     1
 73
     0
 74
     5
  7

 75
    16
147
1.0
148
0.0
149
0.0
100
AcDbLayout
  1
Layout2
 70
     1
 71
     2
 10
0.0
 20
0.0
 11
0.0
 21
0.0
 12
0.0
 22
0.0
 32
0.0
 14
0.0
 24
0.0
 34
0.0
 15
0.0
 25
0.0
 35
0.0
146
0.0
 13
0.0
 23
0.0
 33
0.0
 16
1.0
 26
0.0
 36
0.0
 17
0.0
 27
1.0
 37
0.0
 76
     0
330
23
  0
LAYOUT
  5
22
102
{ACAD_REACTORS
330
1A
102
}
330
1A
100
AcDbPlotSettings
  1

  2
none_device
  4
Letter_(8.50_x_11.00_Inches)
  6

 40
6.35
 41
6.35
 42
6.35000508
 43
6.35000508
 44
215.9
 45
279.4
 46
0.0
 47
0.0
 48
0.0
 49
0.0
140
0.0
141
0.0
142
1.0
143
1.0
 70
  1712
 72
     1
 73
     0
 74
     0
  7

 75
     0
147
1.0
148
0.0
149
0.0
100
AcDbLayout
  1
Model
 70
     1
 71
     0
 10
0.0
 20
0.0
 11
2794.0
 21
2159.0
 12
0.0
 22
0.0
 32
0.0
 14
0.0
 24
0.0
 34
0.0
 15
2794.0
 25
2159.0
 35
0.0
146
0.0
 13
0.0
 23
0.0
 33
0.0
 16
1.0
 26
0.0
 36
0.0
 17
0.0
 27
1.0
 37
0.0
 76
     0
330
1F
331
29
  0
MLINESTYLE
  5
18
102
{ACAD_REACTORS
330
17
102
}
330
17
100
AcDbMlineStyle
  2
Standard
 70
     0
  3

 62
   256
 51
90.0
 52
90.0
 71
     2
 49
0.5
 62
   256
  6
BYLAYER
 49
-0.5
 62
   256
  6
BYLAYER
  0
ACDBPLACEHOLDER
  5
F
102
{ACAD_REACTORS
330
E
102
}
330
E
  0
SCALE
  5
48
102
{ACAD_REACTORS
330
47
102
}
330
47
100
AcDbScale
 70
     0
300
1:1
140
1.0
141
1.0
290
     1
  0
SCALE
  5
49
102
{ACAD_REACTORS
330
47
102
}
330
47
100
AcDbScale
 70
     0
300
1:2
140
1.0
141
2.0
290
     0
  0
SCALE
  5
4A
102
{ACAD_REACTORS
330
47
102
}
330
47
100
AcDbScale
 70
     0
300
1:4
140
1.0
141
4.0
290
     0
  0
SCALE
  5
4B
102
{ACAD_REACTORS
330
47
102
}
330
47
100
AcDbScale
 70
     0
300
1:5
140
1.0
141
5.0
290
     0
  0
SCALE
  5
4C
102
{ACAD_REACTORS
330
47
102
}
330
47
100
AcDbScale
 70
     0
300
1:8
140
1.0
141
8.0
290
     0
  0
SCALE
  5
4D
102
{ACAD_REACTORS
330
47
102
}
330
47
100
AcDbScale
 70
     0
300
1:10
140
1.0
141
10.0
290
     0
  0
SCALE
  5
4E
102
{ACAD_REACTORS
330
47
102
}
330
47
100
AcDbScale
 70
     0
300
1:16
140
1.0
141
16.0
290
     0
  0
SCALE
  5
4F
102
{ACAD_REACTORS
330
47
102
}
330
47
100
AcDbScale
 70
     0
300
1:20
140
1.0
141
20.0
290
     0
  0
SCALE
  5
50
102
{ACAD_REACTORS
330
47
102
}
330
47
100
AcDbScale
 70
     0
300
1:30
140
1.0
141
30.0
290
     0
  0
SCALE
  5
51
102
{ACAD_REACTORS
330
47
102
}
330
47
100
AcDbScale
 70
     0
300
1:40
140
1.0
141
40.0
290
     0
  0
SCALE
  5
52
102
{ACAD_REACTORS
330
47
102
}
330
47
100
AcDbScale
 70
     0
300
1:50
140
1.0
141
50.0
290
     0
  0
SCALE
  5
53
102
{ACAD_REACTORS
330
47
102
}
330
47
100
AcDbScale
 70
     0
300
1:100
140
1.0
141
100.0
290
     0
  0
SCALE
  5
54
102
{ACAD_REACTORS
330
47
102
}
330
47
100
AcDbScale
 70
     0
300
2:1
140
2.0
141
1.0
290
     0
  0
SCALE
  5
55
102
{ACAD_REACTORS
330
47
102
}
330
47
100
AcDbScale
 70
     0
300
4:1
140
4.0
141
1.0
290
     0
  0
SCALE
  5
56
102
{ACAD_REACTORS
330
47
102
}
330
47
100
AcDbScale
 70
     0
300
8:1
140
8.0
141
1.0
290
     0
  0
SCALE
  5
57
102
{ACAD_REACTORS
330
47
102
}
330
47
100
AcDbScale
 70
     0
300
10:1
140
10.0
141
1.0
290
     0
  0
SCALE
  5
58
102
{ACAD_REACTORS
330
47
102
}
330
47
100
AcDbScale
 70
     0
300
100:1
140
100.0
141
1.0
290
     0
  0
SCALE
  5
59
102
{ACAD_REACTORS
330
47
102
}
330
47
100
AcDbScale
 70
     0
300
1/128" = 1'-0"
140
0.0078125
141
12.0
290
     0
  0
SCALE
  5
5A
102
{ACAD_REACTORS
330
47
102
}
330
47
100
AcDbScale
 70
     0
300
1/64" = 1'-0"
140
0.015625
141
12.0
290
     0
  0
SCALE
  5
5B
102
{ACAD_REACTORS
330
47
102
}
330
47
100
AcDbScale
 70
     0
300
1/32" = 1'-0"
140
0.03125
141
12.0
290
     0
  0
SCALE
  5
5C
102
{ACAD_REACTORS
330
47
102
}
330
47
100
AcDbScale
 70
     0
300
1/16" = 1'-0"
140
0.0625
141
12.0
290
     0
  0
SCALE
  5
5D
102
{ACAD_REACTORS
330
47
102
}
330
47
100
AcDbScale
 70
     0
300
3/32" = 1'-0"
140
0.09375
141
12.0
290
     0
  0
SCALE
  5
5E
102
{ACAD_REACTORS
330
47
102
}
330
47
100
AcDbScale
 70
     0
300
1/8" = 1'-0"
140
0.125
141
12.0
290
     0
  0
SCALE
  5
5F
102
{ACAD_REACTORS
330
47
102
}
330
47
100
AcDbScale
 70
     0
300
3/16" = 1'-0"
140
0.1875
141
12.0
290
     0
  0
SCALE
  5
60
102
{ACAD_REACTORS
330
47
102
}
330
47
100
AcDbScale
 70
     0
300
1/4" = 1'-0"
140
0.25
141
12.0
290
     0
  0
SCALE
  5
61
102
{ACAD_REACTORS
330
47
102
}
330
47
100
AcDbScale
 70
     0
300
3/8" = 1'-0"
140
0.375
141
12.0
290
     0
  0
SCALE
  5
62
102
{ACAD_REACTORS
330
47
102
}
330
47
100
AcDbScale
 70
     0
300
1/2" = 1'-0"
140
0.5
141
12.0
290
     0
  0
SCALE
  5
63
102
{ACAD_REACTORS
330
47
102
}
330
47
100
AcDbScale
 70
     0
300
3/4" = 1'-0"
140
0.75
141
12.0
290
     0
  0
SCALE
  5
64
102
{ACAD_REACTORS
330
47
102
}
330
47
100
AcDbScale
 70
     0
300
1" = 1'-0"
140
1.0
141
12.0
290
     0
  0
SCALE
  5
65
102
{ACAD_REACTORS
330
47
102
}
330
47
100
AcDbScale
 70
     0
300
1-1/2" = 1'-0"
140
1.5
141
12.0
290
     0
  0
SCALE
  5
66
102
{ACAD_REACTORS
330
47
102
}
330
47
100
AcDbScale
 70
     0
300
3" = 1'-0"
140
3.0
141
12.0
290
     0
  0
SCALE
  5
67
102
{ACAD_REACTORS
330
47
102
}
330
47
100
AcDbScale
 70
     0
300
6" = 1'-0"
140
6.0
141
12.0
290
     0
  0
SCALE
  5
68
102
{ACAD_REACTORS
330
47
102
}
330
47
100
AcDbScale
 70
     0
300
1'-0" = 1'-0"
140
12.0
141
12.0
290
     0
  0
ENDSEC
  0
EOF
