<?xml version="1.0"?>
<svg xmlns="http://www.w3.org/2000/svg" xmlns:lc="http://www.librecad.org" xmlns:xlink="http://www.w3.org/1999/xlink" width="211.43822887mm" height="2259.6mm" viewBox="0 0 211.43822887 2259.6">
    <g lc:layername="0" lc:is_locked="false" lc:is_construction="false" fill="none" stroke="black" stroke-width="1">
        <circle cx="52.04831841" cy="1158.4" r="12.5"/>
        <circle cx="52.04831841" cy="1999.2" r="12.5"/>
        <circle cx="52.04831841" cy="317.6" r="12.5"/>
        <circle cx="149.58991046" cy="2239.6" r="1.65"/>
        <circle cx="149.58991046" cy="103.31666667" r="1.65"/>
        <circle cx="189.58991046" cy="203.31666667" r="1.65"/>
        <circle cx="149.58991046" cy="288.43333333" r="1.65"/>
        <circle cx="189.58991046" cy="388.43333333" r="1.65"/>
        <circle cx="149.58991046" cy="473.55" r="1.65"/>
        <circle cx="189.58991046" cy="573.55" r="1.65"/>
        <circle cx="149.58991046" cy="658.66666667" r="1.65"/>
        <circle cx="189.58991046" cy="758.66666667" r="1.65"/>
        <circle cx="149.58991046" cy="843.78333333" r="1.65"/>
        <circle cx="189.58991046" cy="943.78333333" r="1.65"/>
        <circle cx="149.58991046" cy="1954.48333333" r="1.65"/>
        <circle cx="189.58991046" cy="25" r="1.65"/>
        <circle cx="149.58991046" cy="65" r="1.65"/>
        <circle cx="149.58991046" cy="1769.36666667" r="1.65"/>
        <circle cx="189.58991046" cy="1869.36666667" r="1.65"/>
        <circle cx="189.58991046" cy="2054.48333333" r="1.65"/>
        <circle cx="149.58991046" cy="2139.6" r="1.65"/>
        <circle cx="189.58991046" cy="2239.6" r="1.65"/>
        <circle cx="189.58991046" cy="1684.25" r="1.65"/>
        <circle cx="149.58991046" cy="1584.25" r="1.65"/>
        <circle cx="189.58991046" cy="1499.13333333" r="1.65"/>
        <circle cx="149.58991046" cy="1399.13333333" r="1.65"/>
        <circle cx="189.58991046" cy="1314.01666667" r="1.65"/>
        <circle cx="149.58991046" cy="1214.01666667" r="1.65"/>
        <circle cx="189.58991046" cy="1128.9" r="1.65"/>
        <circle cx="149.58991046" cy="1028.9" r="1.65"/>
        <path d="M97.94495523,2222.9 C98.06694117,2222.90352852 98.12794289,2222.92104132 98.18894898,2222.94642838 C98.24995508,2222.97181544 98.31096555,2223.00507676 98.35163992,2223.02856336 C98.3923143,2223.05204995 98.41265258,2223.06576181 98.43807653,2223.08487021 C98.46350047,2223.10397861 98.49401008,2223.12848353 98.51435,2223.14514825 C98.53468993,2223.16181296 98.54486016,2223.17063746 98.55757323,2223.18216022 C98.57028629,2223.19368299 98.58554219,2223.20790402 98.59571284,2223.21746673 C98.60588348,2223.22702944 98.61096887,2223.23193383 98.61859705,2223.23945447 C98.62622523,2223.2469751 98.63639619,2223.25711197 98.64491592,2223.26574261 C98.65343565,2223.27437324 98.66030414,2223.28149763 98.67860073,2223.30083065 C98.69689732,2223.32016367 98.72662201,2223.35170531 98.75513551,2223.38406155 C98.783649,2223.41641779 98.81095132,2223.44958863 98.84573949,2223.49490253 C98.88052766,2223.54021644 98.92280169,2223.59767341 98.95109443,2223.63661979 C98.97938716,2223.67556616 98.9936986,2223.69600194 99.01175296,2223.72250925 C99.02980733,2223.74901657 99.05160463,2223.78159542 99.06616367,2223.80347508 C99.08072271,2223.82535474 99.0880435,2223.83653522 99.09723575,2223.85075147 C99.106428,2223.86496772 99.11749172,2223.88221973 99.12487441,2223.89376118 C99.1322571,2223.90530264 99.13595876,2223.91113352 99.14152501,2223.91996007 C99.14709126,2223.92878662 99.15452209,2223.94060882 99.16102579,2223.95101394 C99.16752949,2223.96141906 99.17310604,2223.97040708 99.2071708,2224.02563575 C99.24123555,2224.08086441 99.3037885,2224.18233372 99.40247367,2224.35901673 C99.50115885,2224.53569975 99.63597625,2224.78759649 99.99327364,2225.5 "/>
        <line x1="85.64495523" y1="2222.9" x2="97.94495523" y2="2222.9"/>
        <path d="M83.59663682,2222.1 C83.81060576,2222.23126934 83.90462111,2222.28670592 83.99215191,2222.33704346 C84.0796827,2222.387381 84.16072894,2222.4326195 84.213679,2222.46192866 C84.26662907,2222.49123782 84.29148296,2222.50461764 84.32092919,2222.52006765 C84.35037542,2222.53551767 84.38441398,2222.55303787 84.40683616,2222.56450555 C84.42925834,2222.57597323 84.44006415,2222.58138838 84.45316613,2222.58783863 C84.4662681,2222.59428887 84.48166624,2222.60177421 84.49186412,2222.60671133 C84.502062,2222.61164844 84.50705962,2222.61403733 84.51442095,2222.61751442 C84.52178228,2222.62099152 84.53150733,2222.62555683 84.53717606,2222.62822558 C84.54284478,2222.63089433 84.54445718,2222.63166652 84.61077595,2222.66158525 C84.67709471,2222.69150398 84.80811982,2222.75056925 84.96327935,2222.80153005 C85.11843887,2222.85249086 85.2977328,2222.89534719 85.64495523,2222.9 "/>
        <line x1="71.29663682" y1="2209.8" x2="83.59663682" y2="2222.1"/>
        <path d="M69.24831841,2207.2 C69.37030435,2207.20352852 69.43130607,2207.22104132 69.49231216,2207.24642838 C69.55331826,2207.27181544 69.61432873,2207.30507676 69.6550031,2207.32856336 C69.69567748,2207.35204995 69.71601576,2207.36576181 69.74143971,2207.38487021 C69.76686365,2207.40397861 69.79737326,2207.42848353 69.81771318,2207.44514825 C69.83805311,2207.46181296 69.84822334,2207.47063746 69.86093641,2207.48216022 C69.87364947,2207.49368299 69.88890537,2207.50790402 69.89907602,2207.51746673 C69.90924666,2207.52702944 69.91433205,2207.53193383 69.92196023,2207.53945447 C69.92958841,2207.5469751 69.93975937,2207.55711197 69.9482791,2207.56574261 C69.95679883,2207.57437324 69.96366732,2207.58149763 69.98196391,2207.60083065 C70.0002605,2207.62016367 70.02998519,2207.65170531 70.05849869,2207.68406155 C70.08701218,2207.71641779 70.1143145,2207.74958863 70.14910267,2207.79490253 C70.18389084,2207.84021644 70.22616487,2207.89767341 70.25445761,2207.93661979 C70.28275034,2207.97556616 70.29706178,2207.99600194 70.31511614,2208.02250925 C70.33317051,2208.04901657 70.3549678,2208.08159542 70.36952685,2208.10347508 C70.38408589,2208.12535474 70.39140668,2208.13653522 70.40059893,2208.15075147 C70.40979118,2208.16496772 70.4208549,2208.18221973 70.42823759,2208.19376118 C70.43562028,2208.20530264 70.43932194,2208.21113352 70.44488819,2208.21996007 C70.45045444,2208.22878662 70.45788527,2208.24060882 70.46438897,2208.25101394 C70.47089267,2208.26141906 70.47646922,2208.27040708 70.51053398,2208.32563575 C70.54459873,2208.38086441 70.60715168,2208.48233372 70.70583685,2208.65901673 C70.80452202,2208.83569975 70.93933943,2209.08759649 71.29663682,2209.8 "/>
        <line x1="0" y1="2207.2" x2="69.24831841" y2="2207.2"/>
        <line x1="0" y1="117.8" x2="0" y2="2207.2"/>
        <line x1="7.4" y1="110.4" x2="0" y2="117.8"/>
        <path d="M9.44831841,109.6 C9.27497591,109.60226526 9.18681667,109.61354572 9.09791345,109.62990009 C9.00901022,109.64625446 8.91936299,109.66768274 8.85947418,109.68281392 C8.79958537,109.69794509 8.76945496,109.70677916 8.73160596,109.71909022 C8.69375695,109.73140128 8.64818935,109.74718933 8.61777995,109.75792612 C8.58737054,109.7686629 8.57211934,109.77434841 8.55300884,109.78177242 C8.53389834,109.78919643 8.51092854,109.79835893 8.49560759,109.80452012 C8.48028664,109.81068132 8.47261454,109.81384119 8.46109089,109.81868671 C8.44956724,109.82353223 8.43419204,109.83006339 8.42108517,109.83572083 C8.40797829,109.84137827 8.39713975,109.84616198 8.35276369,109.86610269 C8.30838763,109.88604339 8.23047406,109.92114109 8.11047129,109.98392832 C7.99046853,110.04671556 7.82837657,110.13719232 7.4,110.4 "/>
        <line x1="69.24831841" y1="109.6" x2="9.44831841" y2="109.6"/>
        <path d="M71.29663682,107 C71.11810681,107.3559649 71.03976965,107.50793083 70.9668964,107.64688848 C70.89402314,107.78584613 70.82661381,107.91179552 70.78258491,107.99359374 C70.73855601,108.07539195 70.71790753,108.11303899 70.69346292,108.15684573 C70.66901831,108.20065246 70.64077756,108.25061889 70.62217806,108.28338783 C70.60357856,108.31615677 70.5946203,108.33172823 70.58376398,108.35037953 C70.57290765,108.36903083 70.56015325,108.39076198 70.55170724,108.40511391 C70.54326123,108.41946583 70.53912359,108.42643854 70.53403692,108.43495118 C70.52895026,108.44346381 70.52291455,108.45351637 70.51890498,108.4601842 C70.51489541,108.46685203 70.51291196,108.47013513 70.50996526,108.47499203 C70.50701855,108.47984893 70.50310858,108.48627963 70.50110846,108.489579 C70.49910834,108.49287837 70.49901808,108.49304642 70.48216846,108.52039774 C70.46531884,108.54774907 70.43170988,108.60228368 70.40039101,108.65124594 C70.36907215,108.7002082 70.3400434,108.74359811 70.30439186,108.79402152 C70.26874033,108.84444494 70.22646601,108.90190185 70.19838887,108.9395708 C70.17031173,108.97723975 70.15643176,108.99512073 70.13924041,109.01651846 C70.12204905,109.03791619 70.1015463,109.06283068 70.08790424,109.07928142 C70.07426218,109.09573216 70.0674808,109.10371916 70.05904372,109.11346453 C70.05060664,109.1232099 70.04051387,109.13471365 70.03379197,109.14234308 C70.02707006,109.14997252 70.02371902,109.15372765 70.01870568,109.15928088 C70.01369234,109.16483411 70.00701669,109.17218544 70.0029002,109.17672078 C69.9987837,109.18125612 69.99722636,109.18297547 69.95327915,109.22968086 C69.90933194,109.27638625 69.82299488,109.36807768 69.71881679,109.44718375 C69.6146387,109.52628983 69.49261959,109.59281055 69.24831841,109.6 "/>
        <line x1="83.59663682" y1="94.7" x2="71.29663682" y2="107"/>
        <path d="M85.64495523,93.9 C85.47161273,93.90226526 85.38345349,93.91354572 85.29455027,93.92990009 C85.20564704,93.94625446 85.11599981,93.96768274 85.056111,93.98281392 C84.99622219,93.99794509 84.96609178,94.00677916 84.92824278,94.01909022 C84.89039377,94.03140128 84.84482617,94.04718933 84.81441677,94.05792612 C84.78400736,94.0686629 84.76875616,94.07434841 84.74964566,94.08177242 C84.73053516,94.08919643 84.70756536,94.09835893 84.69224441,94.10452012 C84.67692346,94.11068132 84.66925136,94.11384119 84.65772771,94.11868671 C84.64620406,94.12353223 84.63082886,94.13006339 84.61772199,94.13572083 C84.60461511,94.14137827 84.59377657,94.14616198 84.54940051,94.16610269 C84.50502445,94.18604339 84.42711088,94.22114109 84.30710811,94.28392832 C84.18710535,94.34671556 84.02501339,94.43719232 83.59663682,94.7 "/>
        <line x1="97.94495523" y1="93.9" x2="85.64495523" y2="93.9"/>
        <path d="M99.99327364,91.3 C99.81474363,91.6559649 99.73640647,91.80793083 99.66353322,91.94688848 C99.59065997,92.08584613 99.52325063,92.21179552 99.47922173,92.29359374 C99.43519283,92.37539195 99.41454435,92.41303899 99.39009974,92.45684573 C99.36565513,92.50065246 99.33741438,92.55061889 99.31881488,92.58338783 C99.30021538,92.61615677 99.29125712,92.63172823 99.2804008,92.65037953 C99.26954447,92.66903083 99.25679007,92.69076198 99.24834406,92.70511391 C99.23989805,92.71946583 99.23576041,92.72643854 99.23067374,92.73495118 C99.22558708,92.74346381 99.21955137,92.75351637 99.2155418,92.7601842 C99.21153223,92.76685203 99.20954878,92.77013513 99.20660208,92.77499203 C99.20365537,92.77984893 99.1997454,92.78627963 99.19774528,92.789579 C99.19574516,92.79287837 99.1956549,92.79304642 99.17880528,92.82039774 C99.16195566,92.84774907 99.1283467,92.90228368 99.09702783,92.95124594 C99.06570897,93.0002082 99.03668022,93.04359811 99.00102868,93.09402152 C98.96537715,93.14444494 98.92310283,93.20190185 98.89502569,93.2395708 C98.86694855,93.27723975 98.85306858,93.29512073 98.83587723,93.31651846 C98.81868587,93.33791619 98.79818313,93.36283068 98.78454106,93.37928142 C98.770899,93.39573216 98.76411762,93.40371916 98.75568054,93.41346453 C98.74724347,93.4232099 98.73715069,93.43471365 98.73042879,93.44234308 C98.72370688,93.44997252 98.72035584,93.45372765 98.7153425,93.45928088 C98.71032916,93.46483411 98.70365351,93.47218544 98.69953702,93.47672078 C98.69542052,93.48125612 98.69386318,93.48297547 98.64991597,93.52968086 C98.60596876,93.57638625 98.5196317,93.66807768 98.41545361,93.74718375 C98.31127552,93.82628983 98.18925641,93.89281055 97.94495523,93.9 "/>
        <line x1="112.29327364" y1="79" x2="99.99327364" y2="91.3"/>
        <path d="M114.34159205,78.2 C114.16824955,78.20226526 114.08009032,78.21354572 113.99118709,78.22990009 C113.90228386,78.24625446 113.81263663,78.26768274 113.75274782,78.28281392 C113.69285901,78.29794509 113.6627286,78.30677916 113.6248796,78.31909022 C113.58703059,78.33140128 113.54146299,78.34718933 113.51105359,78.35792612 C113.48064418,78.3686629 113.46539298,78.37434841 113.44628248,78.38177242 C113.42717198,78.38919643 113.40420218,78.39835893 113.38888123,78.40452012 C113.37356028,78.41068132 113.36588818,78.41384119 113.35436453,78.41868671 C113.34284088,78.42353223 113.32746568,78.43006339 113.31435881,78.43572083 C113.30125193,78.44137827 113.29041339,78.44616198 113.24603733,78.46610269 C113.20166127,78.48604339 113.1237477,78.52114109 113.00374493,78.58392832 C112.88374217,78.64671555 112.72165021,78.73719232 112.29327364,79 "/>
        <line x1="125.14159205" y1="78.2" x2="114.34159205" y2="78.2"/>
        <path d="M127.18991046,75.6 C127.01138045,75.95596491 126.93304329,76.10793083 126.86017004,76.24688848 C126.78729679,76.38584613 126.71988745,76.51179552 126.67585855,76.59359374 C126.63182965,76.67539195 126.61118117,76.71303899 126.58673656,76.75684573 C126.56229195,76.80065246 126.5340512,76.85061889 126.5154517,76.88338783 C126.4968522,76.91615677 126.48789394,76.93172823 126.47703762,76.95037953 C126.46618129,76.96903083 126.45342689,76.99076198 126.44498088,77.00511391 C126.43653487,77.01946583 126.43239723,77.02643855 126.42731056,77.03495118 C126.4222239,77.04346381 126.41618819,77.05351637 126.41217862,77.0601842 C126.40816905,77.06685203 126.4061856,77.07013513 126.4032389,77.07499203 C126.40029219,77.07984893 126.39638222,77.08627963 126.3943821,77.089579 C126.39238198,77.09287837 126.39229172,77.09304642 126.3754421,77.12039774 C126.35859248,77.14774907 126.32498352,77.20228368 126.29366465,77.25124594 C126.26234579,77.3002082 126.23331704,77.34359811 126.1976655,77.39402152 C126.16201397,77.44444494 126.11973965,77.50190185 126.09166251,77.5395708 C126.06358537,77.57723975 126.04970541,77.59512073 126.03251405,77.61651846 C126.01532269,77.63791619 125.99481995,77.66283068 125.98117788,77.67928142 C125.96753582,77.69573216 125.96075444,77.70371915 125.95231736,77.71346453 C125.94388029,77.7232099 125.93378751,77.73471365 125.92706561,77.74234308 C125.9203437,77.74997252 125.91699266,77.75372765 125.91197932,77.75928088 C125.90696598,77.76483411 125.90029033,77.77218544 125.89617384,77.77672078 C125.89205734,77.78125612 125.8905,77.78297547 125.84655279,77.82968086 C125.80260559,77.87638625 125.71626852,77.96807768 125.61209043,78.04718375 C125.50791234,78.12628983 125.38589323,78.19281055 125.14159205,78.2 "/>
        <line x1="201.98991046" y1="0.8" x2="127.18991046" y2="75.6"/>
        <path d="M204.03822887,0 C203.86579468,0.0018567 203.77786292,0.01303484 203.68907382,0.02933787 C203.60028472,0.04564091 203.51063828,0.06706884 203.4507311,0.08220827 C203.39082392,0.09734771 203.360656,0.10619865 203.32273176,0.11854355 C203.28480752,0.13088845 203.23912697,0.14672731 203.20863754,0.15750008 C203.17814812,0.16827286 203.16284982,0.17397956 203.14367337,0.18143323 C203.12449692,0.1888869 203.1014423,0.19808756 203.08606363,0.20427471 C203.07068496,0.21046186 203.06298223,0.21363552 203.05141027,0.21850276 C203.03983832,0.22337001 203.02439713,0.22993086 203.01122075,0.23561956 C202.99804437,0.24130827 202.98713279,0.24612485 202.94271987,0.26608202 C202.89830694,0.28603919 202.82039266,0.32113695 202.70038875,0.38392457 C202.58038485,0.44671219 202.41829132,0.53718967 201.98991046,0.8 "/>
        <line x1="211.43822887" y1="0" x2="204.03822887" y2="0"/>
        <line x1="211.43822887" y1="0" x2="211.43822887" y2="2259.6"/>
        <line x1="211.43822887" y1="2259.6" x2="145.58991046" y2="2259.6"/>
        <line x1="145.58991046" y1="2259.6" x2="127.18991046" y2="2241.2"/>
        <path d="M125.14159205,2238.6 C125.26357799,2238.60352852 125.32457971,2238.62104132 125.3855858,2238.64642838 C125.4465919,2238.67181544 125.50760237,2238.70507676 125.54827674,2238.72856336 C125.58895112,2238.75204995 125.6092894,2238.76576181 125.63471335,2238.78487021 C125.66013729,2238.80397861 125.6906469,2238.82848353 125.71098682,2238.84514825 C125.73132675,2238.86181296 125.74149698,2238.87063746 125.75421005,2238.88216022 C125.76692311,2238.89368299 125.78217901,2238.90790402 125.79234966,2238.91746673 C125.8025203,2238.92702944 125.80760569,2238.93193383 125.81523387,2238.93945447 C125.82286205,2238.9469751 125.83303301,2238.95711197 125.84155274,2238.96574261 C125.85007247,2238.97437324 125.85694097,2238.98149763 125.87523755,2239.00083065 C125.89353414,2239.02016367 125.92325883,2239.05170531 125.95177233,2239.08406155 C125.98028582,2239.11641779 126.00758814,2239.14958863 126.04237631,2239.19490253 C126.07716448,2239.24021644 126.11943851,2239.29767341 126.14773125,2239.33661979 C126.17602398,2239.37556616 126.19033542,2239.39600194 126.20838978,2239.42250925 C126.22644415,2239.44901657 126.24824145,2239.48159542 126.26280049,2239.50347508 C126.27735953,2239.52535474 126.28468032,2239.53653522 126.29387257,2239.55075147 C126.30306482,2239.56496772 126.31412854,2239.58221973 126.32151123,2239.59376118 C126.32889392,2239.60530264 126.33259558,2239.61113352 126.33816183,2239.61996007 C126.34372808,2239.62878662 126.35115891,2239.64060882 126.35766261,2239.65101394 C126.36416631,2239.66141906 126.36974287,2239.67040708 126.40380762,2239.72563575 C126.43787237,2239.78086441 126.50042532,2239.88233372 126.59911049,2240.05901673 C126.69779567,2240.23569975 126.83261307,2240.48759649 127.18991046,2241.2 "/>
        <line x1="114.34159205" y1="2238.6" x2="125.14159205" y2="2238.6"/>
        <path d="M112.29327364,2237.8 C112.50724258,2237.93126934 112.60125793,2237.98670592 112.68878873,2238.03704346 C112.77631952,2238.087381 112.85736576,2238.1326195 112.91031583,2238.16192866 C112.96326589,2238.19123782 112.98811978,2238.20461764 113.01756601,2238.22006765 C113.04701224,2238.23551767 113.0810508,2238.25303787 113.10347298,2238.26450555 C113.12589517,2238.27597323 113.13670097,2238.28138838 113.14980295,2238.28783863 C113.16290492,2238.29428887 113.17830306,2238.30177421 113.18850094,2238.30671133 C113.19869882,2238.31164844 113.20369644,2238.31403733 113.21105777,2238.31751442 C113.21841911,2238.32099152 113.22814415,2238.32555683 113.23381288,2238.32822558 C113.2394816,2238.33089433 113.24109401,2238.33166652 113.30741277,2238.36158525 C113.37373153,2238.39150398 113.50475665,2238.45056925 113.65991617,2238.50153005 C113.81507569,2238.55249086 113.99436962,2238.59534719 114.34159205,2238.6 "/>
        <line x1="99.99327364" y1="2225.5" x2="112.29327364" y2="2237.8"/>
    </g>
</svg>
