999
dxfrw 0.6.3
  0
SECTION
  2
HEADER
  9
$ACADVER
  1
AC1021
  9
$DWGCODEPAGE
  3
ANSI_1251
  9
$INSBASE
 10
0
 20
0
 30
0
  9
$EXTMIN
 10
7.177964247840016
 20
2.382933129374717
 30
0
  9
$EXTMAX
 10
118.1426585998063
 20
132.0916124043099
 30
0
  9
$LIMMIN
 10
0
 20
0
  9
$LIMMAX
 10
420
 20
297
  9
$ORTHOMODE
 70
    0
  9
$REGENMODE
 70
    1
  9
$FILLMODE
 70
    1
  9
$QTEXTMODE
 70
    0
  9
$MIRRTEXT
 70
    1
  9
$LTSCALE
 40
1
  9
$ATTMODE
 70
    1
  9
$TEXTSIZE
 40
2.5
  9
$TRACEWID
 40
1
  9
$TEXTSTYLE
  7
Standard
  9
$CLAYER
  8
0
  9
$CELTYPE
  6
ByLayer
  9
$CECOLOR
 62
  256
  9
$CELTSCALE
 40
1
  9
$DISPSILH
 70
    0
  9
$DIMSCALE
 40
1
  9
$DIMASZ
 40
2.5
  9
$DIMEXO
 40
0.625
  9
$DIMDLI
 40
3.75
  9
$DIMRND
 40
0
  9
$DIMDLE
 40
0
  9
$DIMEXE
 40
1.25
  9
$DIMTP
 40
0
  9
$DIMTM
 40
0
  9
$DIMTXT
 40
2.5
  9
$DIMCEN
 40
2.5
  9
$DIMTSZ
 40
0
  9
$DIMTOL
 70
    0
  9
$DIMLIM
 70
    0
  9
$DIMTIH
 70
    0
  9
$DIMTOH
 70
    0
  9
$DIMSE1
 70
    0
  9
$DIMSE2
 70
    0
  9
$DIMTAD
 70
    1
  9
$DIMZIN
 70
    8
  9
$DIMBLK
  1

  9
$DIMASO
 70
    1
  9
$DIMSHO
 70
    1
  9
$DIMPOST
  1

  9
$DIMAPOST
  1

  9
$DIMALT
 70
    0
  9
$DIMALTD
 70
    3
  9
$DIMALTF
 40
0.03937007874016
  9
$DIMLFAC
 40
1
  9
$DIMTOFL
 70
    1
  9
$DIMTVP
 40
0
  9
$DIMTIX
 70
    0
  9
$DIMSOXD
 70
    0
  9
$DIMSAH
 70
    0
  9
$DIMBLK1
  1

  9
$DIMBLK2
  1

  9
$DIMSTYLE
  2
ISO-25
  9
$DIMCLRD
 70
    0
  9
$DIMCLRE
 70
    0
  9
$DIMCLRT
 70
    0
  9
$DIMTFAC
 40
1
  9
$DIMGAP
 40
0.625
  9
$DIMJUST
 70
    0
  9
$DIMSD1
 70
    0
  9
$DIMSD2
 70
    0
  9
$DIMTOLJ
 70
    0
  9
$DIMTZIN
 70
    8
  9
$DIMALTZ
 70
    0
  9
$DIMALTTZ
 70
    0
  9
$DIMUPT
 70
    0
  9
$DIMDEC
 70
    2
  9
$DIMTDEC
 70
    2
  9
$DIMALTU
 70
    2
  9
$DIMALTTD
 70
    3
  9
$DIMTXSTY
  7
Standard
  9
$DIMAUNIT
 70
    0
  9
$DIMADEC
 70
    0
  9
$DIMALTRND
 40
0
  9
$DIMAZIN
 70
    0
  9
$DIMDSEP
 70
   44
  9
$DIMATFIT
 70
    3
  9
$DIMFRAC
 70
    0
  9
$DIMLDRBLK
  1

  9
$DIMLUNIT
 70
    2
  9
$DIMLWD
 70
   -2
  9
$DIMLWE
 70
   -2
  9
$DIMTMOVE
 70
    0
  9
$DIMFXL
 40
1
  9
$DIMFXLON
 70
    0
  9
$DIMJOGANG
 40
0.7854
  9
$DIMTFILL
 70
    0
  9
$DIMTFILLCLR
 70
    0
  9
$DIMARCSYM
 70
    0
  9
$DIMLTYPE
  6

  9
$DIMLTEX1
  6

  9
$DIMLTEX2
  6

  9
$LUNITS
 70
    2
  9
$LUPREC
 70
    4
  9
$SKETCHINC
 40
1
  9
$FILLETRAD
 40
10
  9
$AUNITS
 70
    0
  9
$AUPREC
 70
    0
  9
$MENU
  1
.
  9
$ELEVATION
 40
0
  9
$PELEVATION
 40
0
  9
$THICKNESS
 40
0
  9
$LIMCHECK
 70
    0
  9
$CHAMFERA
 40
0
  9
$CHAMFERB
 40
0
  9
$CHAMFERC
 40
0
  9
$CHAMFERD
 40
0
  9
$SKPOLY
 70
    0
  9
$USRTIMER
 70
    1
  9
$ANGBASE
 50
0
  9
$ANGDIR
 70
    0
  9
$PDMODE
 70
    0
  9
$PDSIZE
 40
0
  9
$PLINEWID
 40
0
  9
$SPLFRAME
 70
    0
  9
$SPLINETYPE
 70
    6
  9
$SPLINESEGS
 70
    8
  9
$HANDSEED
  5
20000
  9
$SURFTAB1
 70
    6
  9
$SURFTAB2
 70
    6
  9
$SURFTYPE
 70
    6
  9
$SURFU
 70
    6
  9
$SURFV
 70
    6
  9
$UCSBASE
  2

  9
$UCSNAME
  2

  9
$UCSORG
 10
0
 20
0
 30
0
  9
$UCSXDIR
 10
1
 20
0
 30
0
  9
$UCSYDIR
 10
0
 20
1
 30
0
  9
$UCSORTHOREF
  2

  9
$UCSORTHOVIEW
 70
    0
  9
$UCSORGTOP
 10
0
 20
0
 30
0
  9
$UCSORGBOTTOM
 10
0
 20
0
 30
0
  9
$UCSORGLEFT
 10
0
 20
0
 30
0
  9
$UCSORGRIGHT
 10
0
 20
0
 30
0
  9
$UCSORGFRONT
 10
0
 20
0
 30
0
  9
$UCSORGBACK
 10
0
 20
0
 30
0
  9
$PUCSBASE
  2

  9
$PUCSNAME
  2

  9
$PUCSORG
 10
0
 20
0
 30
0
  9
$PUCSXDIR
 10
1
 20
0
 30
0
  9
$PUCSYDIR
 10
0
 20
1
 30
0
  9
$PUCSORTHOREF
  2

  9
$PUCSORTHOVIEW
 70
    0
  9
$PUCSORGTOP
 10
0
 20
0
 30
0
  9
$PUCSORGBOTTOM
 10
0
 20
0
 30
0
  9
$PUCSORGLEFT
 10
0
 20
0
 30
0
  9
$PUCSORGRIGHT
 10
0
 20
0
 30
0
  9
$PUCSORGFRONT
 10
0
 20
0
 30
0
  9
$PUCSORGBACK
 10
0
 20
0
 30
0
  9
$USERI1
 70
    0
  9
$USERI2
 70
    0
  9
$USERI3
 70
    0
  9
$USERI4
 70
    0
  9
$USERI5
 70
    0
  9
$USERR1
 40
0
  9
$USERR2
 40
0
  9
$USERR3
 40
0
  9
$USERR4
 40
0
  9
$USERR5
 40
0
  9
$WORLDVIEW
 70
    1
  9
$SHADEDGE
 70
    3
  9
$SHADEDIF
 70
   70
  9
$TILEMODE
 70
    1
  9
$MAXACTVP
 70
   64
  9
$PINSBASE
 10
0
 20
0
 30
0
  9
$PLIMCHECK
 70
    0
  9
$PEXTMIN
 10
1e+20
 20
1e+20
 30
1e+20
  9
$PEXTMAX
 10
-1e+20
 20
-1e+20
 30
-1e+20
  9
$GRIDMODE
 70
    0
  9
$SNAPSTYLE
 70
    0
  9
$PLIMMIN
 10
0
 20
0
  9
$PLIMMAX
 10
420
 20
297
  9
$UNITMODE
 70
    0
  9
$VISRETAIN
 70
    1
  9
$PLINEGEN
 70
    0
  9
$PSLTSCALE
 70
    1
  9
$TREEDEPTH
 70
 3020
  9
$CMLSTYLE
  2
Standard
  9
$CMLJUST
 70
    0
  9
$CMLSCALE
 40
20
  9
$PROXYGRAPHICS
 70
    1
  9
$MEASUREMENT
 70
    1
  9
$CELWEIGHT
370
   -1
  9
$ENDCAPS
280
    0
  9
$JOINSTYLE
280
    0
  9
$LWDISPLAY
290
    0
  9
$INSUNITS
 70
    4
  9
$HYPERLINKBASE
  1

  9
$STYLESHEET
  1

  9
$XEDIT
290
    1
  9
$CEPSNTYPE
380
    0
  9
$PSTYLEMODE
290
    1
  9
$EXTNAMES
290
    1
  9
$PSVPSCALE
 40
0
  9
$OLESTARTUP
290
    0
  9
$SORTENTS
280
  127
  9
$INDEXCTL
280
    0
  9
$HIDETEXT
280
    1
  9
$XCLIPFRAME
290
    0
  9
$HALOGAP
280
    0
  9
$OBSCOLOR
 70
  257
  9
$OBSLTYPE
280
    0
  9
$INTERSECTIONDISPLAY
280
    0
  9
$INTERSECTIONCOLOR
 70
  257
  9
$DIMASSOC
280
    1
  9
$PROJECTNAME
  1

  9
$CAMERADISPLAY
290
    0
  9
$LENSLENGTH
 40
50
  9
$CAMERAHEIGHT
 40
0
  9
$STEPSPERSEC
 40
2
  9
$STEPSIZE
 40
50
  9
$3DDWFPREC
 40
2
  9
$PSOLWIDTH
 40
5
  9
$PSOLHEIGHT
 40
80
  9
$LOFTANG1
 40
1.570796326794897
  9
$LOFTANG2
 40
1.570796326794897
  9
$LOFTMAG1
 40
0
  9
$LOFTMAG2
 40
0
  9
$LOFTPARAM
 70
    7
  9
$LOFTNORMALS
280
    1
  9
$LATITUDE
 40
1
  9
$LONGITUDE
 40
1
  9
$NORTHDIRECTION
 40
0
  9
$TIMEZONE
 70
-8000
  9
$LIGHTGLYPHDISPLAY
280
    1
  9
$TILEMODELIGHTSYNCH
280
    1
  9
$SOLIDHIST
280
    1
  9
$SHOWHIST
280
    1
  9
$DWFFRAME
280
    2
  9
$DGNFRAME
280
    0
  9
$REALWORLDSCALE
290
    1
  9
$INTERFERECOLOR
 62
    1
  9
$CSHADOW
280
    0
  9
$SHADOWPLANELOCATION
 40
0
  0
ENDSEC
  0
SECTION
  2
CLASSES
  0
ENDSEC
  0
SECTION
  2
TABLES
  0
TABLE
  2
VPORT
  5
8
330
0
100
AcDbSymbolTable
 70
    1
  0
VPORT
  5
31
330
2
100
AcDbSymbolTableRecord
100
AcDbViewportTableRecord
  2
*ACTIVE
 70
    0
 10
0
 20
0
 11
1
 21
1
 12
159.5606636202061
 22
79.25496744258591
 13
0
 23
0
 14
10
 24
10
 15
10
 25
10
 16
0
 26
0
 36
1
 17
0
 27
0
 37
0
 40
248.2721896781006
 41
1.917775090689238
 42
50
 43
0
 44
0
 50
0
 51
0
 71
    0
 72
  100
 73
    1
 74
    3
 75
    0
 76
    0
 77
    0
 78
    0
281
    0
 65
    1
110
0
120
0
130
0
111
1
121
0
131
0
112
0
122
1
132
0
 79
    0
146
0
348
10020
 60
    7
 61
    5
292
1
282
    1
141
0
142
0
 63
  250
421
3358443
  0
ENDTAB
  0
TABLE
  2
LTYPE
  5
5
330
0
100
AcDbSymbolTable
 70
    4
  0
LTYPE
  5
14
330
5
100
AcDbSymbolTableRecord
100
AcDbLinetypeTableRecord
  2
ByBlock
 70
    0
  3

 72
   65
 73
    0
 40
0
  0
LTYPE
  5
15
330
5
100
AcDbSymbolTableRecord
100
AcDbLinetypeTableRecord
  2
ByLayer
 70
    0
  3

 72
   65
 73
    0
 40
0
  0
LTYPE
  5
16
330
5
100
AcDbSymbolTableRecord
100
AcDbLinetypeTableRecord
  2
Continuous
 70
    0
  3
Solid line
 72
   65
 73
    0
 40
0
  0
LTYPE
  5
32
330
5
100
AcDbSymbolTableRecord
100
AcDbLinetypeTableRecord
  2
DOT
 70
    0
  3
Dot . . . . . . . . . . . . . . . . . . . . . .
 72
   65
 73
    2
 40
6.35
 49
0
 74
    0
 49
-6.35
 74
    0
  0
LTYPE
  5
33
330
5
100
AcDbSymbolTableRecord
100
AcDbLinetypeTableRecord
  2
DOTTINY
 70
    0
  3
Dot (.15x) .....................................
 72
   65
 73
    2
 40
0.9525
 49
0
 74
    0
 49
-0.9525
 74
    0
  0
LTYPE
  5
34
330
5
100
AcDbSymbolTableRecord
100
AcDbLinetypeTableRecord
  2
DOT2
 70
    0
  3
Dot (.5x) .....................................
 72
   65
 73
    2
 40
3.175
 49
0
 74
    0
 49
-3.175
 74
    0
  0
LTYPE
  5
35
330
5
100
AcDbSymbolTableRecord
100
AcDbLinetypeTableRecord
  2
DOTX2
 70
    0
  3
Dot (2x) .  .  .  .  .  .  .  .  .  .  .  .  .
 72
   65
 73
    2
 40
12.7
 49
0
 74
    0
 49
-12.7
 74
    0
  0
LTYPE
  5
36
330
5
100
AcDbSymbolTableRecord
100
AcDbLinetypeTableRecord
  2
DASHED
 70
    0
  3
Dashed _ _ _ _ _ _ _ _ _ _ _ _ _ _ _ _ _
 72
   65
 73
    2
 40
19.05
 49
12.7
 74
    0
 49
-6.35
 74
    0
  0
LTYPE
  5
37
330
5
100
AcDbSymbolTableRecord
100
AcDbLinetypeTableRecord
  2
DASHEDTINY
 70
    0
  3
Dashed (.15x) _ _ _ _ _ _ _ _ _ _ _ _ _ _ _ _ _
 72
   65
 73
    2
 40
2.8575
 49
1.905
 74
    0
 49
-0.9525
 74
    0
  0
LTYPE
  5
38
330
5
100
AcDbSymbolTableRecord
100
AcDbLinetypeTableRecord
  2
DASHED2
 70
    0
  3
Dashed (.5x) _ _ _ _ _ _ _ _ _ _ _ _ _ _ _ _ _
 72
   65
 73
    2
 40
9.524999999999999
 49
6.35
 74
    0
 49
-3.175
 74
    0
  0
LTYPE
  5
39
330
5
100
AcDbSymbolTableRecord
100
AcDbLinetypeTableRecord
  2
DASHEDX2
 70
    0
  3
Dashed (2x) ____  ____  ____  ____  ____  ___
 72
   65
 73
    2
 40
38.09999999999999
 49
25.4
 74
    0
 49
-12.7
 74
    0
  0
LTYPE
  5
3A
330
5
100
AcDbSymbolTableRecord
100
AcDbLinetypeTableRecord
  2
DASHDOT
 70
    0
  3
Dash dot __ . __ . __ . __ . __ . __ . __ . __
 72
   65
 73
    4
 40
25.4
 49
12.7
 74
    0
 49
-6.35
 74
    0
 49
0
 74
    0
 49
-6.35
 74
    0
  0
LTYPE
  5
3B
330
5
100
AcDbSymbolTableRecord
100
AcDbLinetypeTableRecord
  2
DASHDOTTINY
 70
    0
  3
Dash dot (.15x) _._._._._._._._._._._._._._._.
 72
   65
 73
    4
 40
3.81
 49
1.905
 74
    0
 49
-0.9525
 74
    0
 49
0
 74
    0
 49
-0.9525
 74
    0
  0
LTYPE
  5
3C
330
5
100
AcDbSymbolTableRecord
100
AcDbLinetypeTableRecord
  2
DASHDOT2
 70
    0
  3
Dash dot (.5x) _._._._._._._._._._._._._._._.
 72
   65
 73
    4
 40
12.7
 49
6.35
 74
    0
 49
-3.175
 74
    0
 49
0
 74
    0
 49
-3.175
 74
    0
  0
LTYPE
  5
3D
330
5
100
AcDbSymbolTableRecord
100
AcDbLinetypeTableRecord
  2
DASHDOTX2
 70
    0
  3
Dash dot (2x) ____  .  ____  .  ____  .  ___
 72
   65
 73
    4
 40
50.8
 49
25.4
 74
    0
 49
-12.7
 74
    0
 49
0
 74
    0
 49
-12.7
 74
    0
  0
LTYPE
  5
3E
330
5
100
AcDbSymbolTableRecord
100
AcDbLinetypeTableRecord
  2
DIVIDE
 70
    0
  3
Divide ____ . . ____ . . ____ . . ____ . . ____
 72
   65
 73
    6
 40
31.75
 49
12.7
 74
    0
 49
-6.35
 74
    0
 49
0
 74
    0
 49
-6.35
 74
    0
 49
0
 74
    0
 49
-6.35
 74
    0
  0
LTYPE
  5
3F
330
5
100
AcDbSymbolTableRecord
100
AcDbLinetypeTableRecord
  2
DIVIDETINY
 70
    0
  3
Divide (.15x) __..__..__..__..__..__..__..__.._
 72
   65
 73
    6
 40
4.7625
 49
1.905
 74
    0
 49
-0.9525
 74
    0
 49
0
 74
    0
 49
-0.9525
 74
    0
 49
0
 74
    0
 49
-0.9525
 74
    0
  0
LTYPE
  5
40
330
5
100
AcDbSymbolTableRecord
100
AcDbLinetypeTableRecord
  2
DIVIDE2
 70
    0
  3
Divide (.5x) __..__..__..__..__..__..__..__.._
 72
   65
 73
    6
 40
15.875
 49
6.35
 74
    0
 49
-3.175
 74
    0
 49
0
 74
    0
 49
-3.175
 74
    0
 49
0
 74
    0
 49
-3.175
 74
    0
  0
LTYPE
  5
41
330
5
100
AcDbSymbolTableRecord
100
AcDbLinetypeTableRecord
  2
DIVIDEX2
 70
    0
  3
Divide (2x) ________  .  .  ________  .  .  _
 72
   65
 73
    6
 40
63.5
 49
25.4
 74
    0
 49
-12.7
 74
    0
 49
0
 74
    0
 49
-12.7
 74
    0
 49
0
 74
    0
 49
-12.7
 74
    0
  0
LTYPE
  5
42
330
5
100
AcDbSymbolTableRecord
100
AcDbLinetypeTableRecord
  2
BORDER
 70
    0
  3
Border __ __ . __ __ . __ __ . __ __ . __ __ .
 72
   65
 73
    6
 40
44.45
 49
12.7
 74
    0
 49
-6.35
 74
    0
 49
12.7
 74
    0
 49
-6.35
 74
    0
 49
0
 74
    0
 49
-6.35
 74
    0
  0
LTYPE
  5
43
330
5
100
AcDbSymbolTableRecord
100
AcDbLinetypeTableRecord
  2
BORDERTINY
 70
    0
  3
Border (.15x) __.__.__.__.__.__.__.__.__.__.__.
 72
   65
 73
    6
 40
6.6675
 49
1.905
 74
    0
 49
-0.9525
 74
    0
 49
1.905
 74
    0
 49
-0.9525
 74
    0
 49
0
 74
    0
 49
-0.9525
 74
    0
  0
LTYPE
  5
44
330
5
100
AcDbSymbolTableRecord
100
AcDbLinetypeTableRecord
  2
BORDER2
 70
    0
  3
Border (.5x) __.__.__.__.__.__.__.__.__.__.__.
 72
   65
 73
    6
 40
22.225
 49
6.35
 74
    0
 49
-3.175
 74
    0
 49
6.35
 74
    0
 49
-3.175
 74
    0
 49
0
 74
    0
 49
-3.175
 74
    0
  0
LTYPE
  5
45
330
5
100
AcDbSymbolTableRecord
100
AcDbLinetypeTableRecord
  2
BORDERX2
 70
    0
  3
Border (2x) ____  ____  .  ____  ____  .  ___
 72
   65
 73
    6
 40
88.89999999999999
 49
25.4
 74
    0
 49
-12.7
 74
    0
 49
25.4
 74
    0
 49
-12.7
 74
    0
 49
0
 74
    0
 49
-12.7
 74
    0
  0
LTYPE
  5
46
330
5
100
AcDbSymbolTableRecord
100
AcDbLinetypeTableRecord
  2
CENTER
 70
    0
  3
Center ____ _ ____ _ ____ _ ____ _ ____ _ ____
 72
   65
 73
    4
 40
50.8
 49
31.75
 74
    0
 49
-6.35
 74
    0
 49
6.35
 74
    0
 49
-6.35
 74
    0
  0
LTYPE
  5
47
330
5
100
AcDbSymbolTableRecord
100
AcDbLinetypeTableRecord
  2
CENTERTINY
 70
    0
  3
Center (.15x) ___ _ ___ _ ___ _ ___ _ ___ _ ___
 72
   65
 73
    4
 40
7.619999999999999
 49
4.7625
 74
    0
 49
-0.9525
 74
    0
 49
0.9525
 74
    0
 49
-0.9525
 74
    0
  0
LTYPE
  5
48
330
5
100
AcDbSymbolTableRecord
100
AcDbLinetypeTableRecord
  2
CENTER2
 70
    0
  3
Center (.5x) ___ _ ___ _ ___ _ ___ _ ___ _ ___
 72
   65
 73
    4
 40
28.575
 49
19.05
 74
    0
 49
-3.175
 74
    0
 49
3.175
 74
    0
 49
-3.175
 74
    0
  0
LTYPE
  5
49
330
5
100
AcDbSymbolTableRecord
100
AcDbLinetypeTableRecord
  2
CENTERX2
 70
    0
  3
Center (2x) ________  __  ________  __  _____
 72
   65
 73
    4
 40
101.6
 49
63.5
 74
    0
 49
-12.7
 74
    0
 49
12.7
 74
    0
 49
-12.7
 74
    0
  0
ENDTAB
  0
TABLE
  2
LAYER
  5
2
330
0
100
AcDbSymbolTable
 70
    1
  0
LAYER
  5
10
330
2
100
AcDbSymbolTableRecord
100
AcDbLayerTableRecord
  2
0
 70
    0
 62
    7
  6
CONTINUOUS
370
   -3
390
F
  0
LAYER
  5
4A
330
2
100
AcDbSymbolTableRecord
100
AcDbLayerTableRecord
  2
Системный слой
 70
    0
 62
    7
  6
CONTINUOUS
370
   -3
390
F
  0
ENDTAB
  0
TABLE
  2
STYLE
  5
3
330
0
100
AcDbSymbolTable
 70
    3
  0
STYLE
  5
4B
330
2
100
AcDbSymbolTableRecord
100
AcDbTextStyleTableRecord
  2
Standard
 70
    0
 40
0
 41
1
 50
0
 71
    0
 42
1
  3
txt
  4

  0
ENDTAB
  0
TABLE
  2
VIEW
  5
6
330
0
100
AcDbSymbolTable
 70
    0
  0
ENDTAB
  0
TABLE
  2
UCS
  5
7
330
0
100
AcDbSymbolTable
 70
    0
  0
ENDTAB
  0
TABLE
  2
APPID
  5
9
330
0
100
AcDbSymbolTable
 70
    1
  0
APPID
  5
12
330
9
100
AcDbSymbolTableRecord
100
AcDbRegAppTableRecord
  2
ACAD
 70
    0
  0
APPID
  5
4C
330
9
100
AcDbSymbolTableRecord
100
AcDbRegAppTableRecord
  2
LibreCad
 70
    0
  0
ENDTAB
  0
TABLE
  2
DIMSTYLE
  5
A
330
0
100
AcDbSymbolTable
 70
    1
100
AcDbDimStyleTable
 71
    1
  0
DIMSTYLE
105
4D
330
A
100
AcDbSymbolTableRecord
100
AcDbDimStyleTableRecord
  2
Standard
 70
    0
 40
1
 41
2.5
 42
0.625
 43
0.38
 44
1.25
 45
0
 46
0
 47
0
 48
0
 49
1
140
2.5
141
0.09
142
0
143
25.4
144
1
145
0
146
1
147
0.625
148
0
 71
    0
 72
    0
 73
    0
 74
    1
 75
    0
 76
    0
 77
    0
 78
    8
 79
    0
170
    0
171
    2
172
    0
173
    0
174
    0
175
    0
176
    0
177
    0
178
    0
179
    0
271
    2
272
    4
273
    2
274
    2
275
    0
276
    0
277
    2
278
   44
279
    0
280
    0
281
    0
282
    0
283
    1
284
    0
285
    0
286
    0
288
    0
289
    3
340
Standard
341

371
   -2
372
   -2
  0
ENDTAB
  0
TABLE
  2
BLOCK_RECORD
  5
1
330
0
100
AcDbSymbolTable
 70
    2
  0
BLOCK_RECORD
  5
1F
330
1
100
AcDbSymbolTableRecord
100
AcDbBlockTableRecord
  2
*Model_Space
 70
    0
280
    1
281
    0
  0
BLOCK_RECORD
  5
1E
330
1
100
AcDbSymbolTableRecord
100
AcDbBlockTableRecord
  2
*Paper_Space
 70
    0
280
    1
281
    0
  0
ENDTAB
  0
ENDSEC
  0
SECTION
  2
BLOCKS
  0
BLOCK
  5
20
330
1F
100
AcDbEntity
  8
0
100
AcDbBlockBegin
  2
*Model_Space
 70
    0
 10
0
 20
0
 30
0
  3
*Model_Space
  1

  0
ENDBLK
  5
21
330
1F
100
AcDbEntity
  8
0
100
AcDbBlockEnd
  0
BLOCK
  5
1C
330
1B
100
AcDbEntity
  8
0
100
AcDbBlockBegin
  2
*Paper_Space
 70
    0
 10
0
 20
0
 30
0
  3
*Paper_Space
  1

  0
ENDBLK
  5
1D
330
1F
100
AcDbEntity
  8
0
100
AcDbBlockEnd
  0
ENDSEC
  0
SECTION
  2
ENTITIES
  0
ELLIPSE
  5
4E
100
AcDbEntity
  8
0
  6
CONTINUOUS
 62
    5
370
   -1
100
AcDbEllipse
 10
62.14309947202752
 20
30.32102921098927
 30
0
 11
50
 21
0
 31
0
 40
0.5
 41
0
 42
6.283185307179586
  0
SPLINE
  5
4F
100
AcDbEntity
  8
0
  6
CONTINUOUS
 62
    5
370
   -1
100
AcDbSpline
210
0
220
0
230
0
 70
   11
 71
    2
 72
   20
 73
   17
 74
    0
 42
1e-07
 43
1e-07
 40
0
 40
0
 40
0
 40
0.06666666666666667
 40
0.1333333333333333
 40
0.2
 40
0.2666666666666667
 40
0.3333333333333333
 40
0.4
 40
0.4666666666666667
 40
0.5333333333333333
 40
0.6
 40
0.6666666666666666
 40
0.7333333333333333
 40
0.8
 40
0.8666666666666667
 40
0.9333333333333333
 40
1
 40
1
 40
1
 10
40.36536367451524
 20
21.06590392679432
 30
0
 10
37.29928516993118
 20
21.06590392679432
 30
0
 10
34.23320666534711
 20
21.06590392679432
 30
0
 10
34.23320666534711
 20
29.14899505325982
 30
0
 10
34.23320666534711
 20
37.23208617972533
 30
0
 10
30.87258497884373
 20
35.03381212171561
 30
0
 10
26.31168916204099
 20
33.98051414410823
 30
0
 10
26.31168916204099
 20
35.92685527883904
 30
0
 10
26.31168916204099
 20
37.87319641356984
 30
0
 10
28.71214629309056
 20
38.42271949652806
 30
0
 10
31.52724678061632
 20
39.9569183190402
 30
0
 10
34.34234735696229
 20
41.49111723037257
 30
0
 10
35.38982450123635
 20
43.53668534308587
 30
0
 10
37.87759408787579
 20
43.53668534308587
 30
0
 10
40.36536367451524
 20
43.53668534308587
 30
0
 10
40.36536367451524
 20
32.3012946349401
 30
0
 10
40.36536367451524
 20
21.06590392679432
 30
0
  0
SPLINE
  5
50
100
AcDbEntity
  8
0
  6
CONTINUOUS
 62
    5
370
   -1
100
AcDbSpline
210
0
220
0
230
0
 70
   11
 71
    2
 72
   46
 73
   43
 74
    0
 42
1e-07
 43
1e-07
 40
0
 40
0
 40
0
 40
0.02439024390243903
 40
0.04878048780487805
 40
0.07317073170731707
 40
0.0975609756097561
 40
0.1219512195121951
 40
0.1463414634146341
 40
0.1707317073170732
 40
0.1951219512195122
 40
0.2195121951219512
 40
0.2439024390243902
 40
0.2682926829268293
 40
0.2926829268292683
 40
0.3170731707317073
 40
0.3414634146341464
 40
0.3658536585365854
 40
0.3902439024390244
 40
0.4146341463414634
 40
0.4390243902439024
 40
0.4634146341463415
 40
0.4878048780487805
 40
0.5121951219512195
 40
0.5365853658536586
 40
0.5609756097560976
 40
0.5853658536585366
 40
0.6097560975609756
 40
0.6341463414634146
 40
0.6585365853658537
 40
0.6829268292682927
 40
0.7073170731707317
 40
0.7317073170731707
 40
0.7560975609756098
 40
0.7804878048780488
 40
0.8048780487804879
 40
0.8292682926829268
 40
0.8536585365853658
 40
0.8780487804878049
 40
0.9024390243902439
 40
0.926829268292683
 40
0.9512195121951219
 40
0.975609756097561
 40
1
 40
1
 40
1
 10
48.62767164559065
 20
26.82098009601688
 30
0
 10
51.68283609877724
 20
27.04235366650084
 30
0
 10
54.73800055196384
 20
27.26372723698481
 30
0
 10
54.99984710005519
 20
25.81343021789831
 30
0
 10
56.28738807675975
 20
24.96622606776225
 30
0
 10
57.57492914228453
 20
24.11902200644642
 30
0
 10
59.25524007435646
 20
24.11902200644642
 30
0
 10
61.17556936290456
 20
24.11902200644642
 30
0
 10
62.50676663401923
 20
25.21047368799063
 30
0
 10
63.8379639051339
 20
26.30192545835507
 30
0
 10
63.8379639051339
 20
28.50019951636478
 30
0
 10
63.8379639051339
 20
30.56104737209073
 30
0
 10
62.51768068541671
 20
31.5914712999537
 30
0
 10
61.1973974656995
 20
32.62189522781668
 30
0
 10
59.08061507435646
 20
32.62189522781668
 30
0
 10
56.44013949801048
 20
32.62189522781668
 30
0
 10
54.34518520946238
 20
30.9884239069576
 30
0
 10
51.85741562282293
 20
31.24031135428218
 30
0
 10
49.36964603618347
 20
31.49219880160677
 30
0
 10
50.94086175259454
 20
37.31598802756109
 30
0
 10
52.51207746900563
 20
43.13977725351542
 30
0
 10
60.61913402370921
 20
43.13977725351542
 30
0
 10
68.72619057841281
 20
43.13977725351542
 30
0
 10
68.72619057841281
 20
41.13236284473894
 30
0
 10
68.72619057841281
 20
39.12494843596245
 30
0
 10
62.94323813770047
 20
39.12494843596245
 30
0
 10
57.16028569698813
 20
39.12494843596245
 30
0
 10
56.6802033748511
 20
37.2244008766748
 30
0
 10
56.20012105271407
 20
35.32385331738714
 30
0
 10
58.25141913567229
 20
36.04136199983418
 30
0
 10
60.39002971863051
 20
36.04136199983418
 30
0
 10
64.47079769293177
 20
36.04136199983418
 30
0
 10
67.30772628325246
 20
33.96523440109559
 30
0
 10
70.14465496239339
 20
31.88910689117722
 30
0
 10
70.14465496239339
 20
28.57650701305866
 30
0
 10
70.14465496239339
 20
25.81343021789831
 30
0
 10
67.85324748223012
 20
23.64580642018208
 30
0
 10
64.73264424102312
 20
20.6842755802365
 30
0
 10
59.1897556771514
 20
20.6842755802365
 30
0
 10
54.75982865475878
 20
20.6842755802365
 30
0
 10
51.96655627002798
 20
22.348215346392
 30
0
 10
49.17328388529717
 20
24.01215511254748
 30
0
 10
48.62767164559065
 20
26.82098009601688
 30
0
  0
SPLINE
  5
51
100
AcDbEntity
  8
0
  6
CONTINUOUS
 62
    5
370
   -1
100
AcDbSpline
210
0
220
0
230
0
 70
    8
 71
    2
 72
   20
 73
   17
 74
    0
 42
1e-07
 43
1e-07
 40
0
 40
0
 40
0
 40
0.06666666666666667
 40
0.1333333333333333
 40
0.2
 40
0.2666666666666667
 40
0.3333333333333333
 40
0.4
 40
0.4666666666666667
 40
0.5333333333333333
 40
0.6
 40
0.6666666666666666
 40
0.7333333333333333
 40
0.8
 40
0.8666666666666667
 40
0.9333333333333333
 40
1
 40
1
 40
1
 10
88.36790584810764
 20
43.48448386646375
 30
0
 10
91.81390600248349
 20
43.24467979338387
 30
0
 10
93.88382896443983
 20
41.90325949818112
 30
0
 10
96.40434074968181
 20
40.26983356445614
 30
0
 10
96.40434074968181
 20
37.7663295196709
 30
0
 10
96.40434074968181
 20
36.20925664741435
 30
0
 10
95.24772300261282
 20
34.99565832895856
 30
0
 10
94.09110525554382
 20
33.782060099323
 30
0
 10
91.99615096699571
 20
33.14085891356984
 30
0
 10
94.65854550922506
 20
32.39288187464662
 30
0
 10
96.04426765019299
 20
30.95790998570687
 30
0
 10
97.42998979116092
 20
29.52293818558734
 30
0
 10
97.42998979116092
 20
27.64535558354263
 30
0
 10
97.42998979116092
 20
24.54639854131328
 30
0
 10
94.6039752522377
 20
22.60769723367869
 30
0
 10
92.1750884454483
 20
20.94143337849863
 30
0
 10
88.36790580555579
 20
20.70728040298111
 30
0
  0
SPLINE
  5
52
100
AcDbEntity
  8
0
  6
CONTINUOUS
 62
    5
370
   -1
100
AcDbSpline
210
0
220
0
230
0
 70
    8
 71
    2
 72
   20
 73
   17
 74
    0
 42
1e-07
 43
1e-07
 40
0
 40
0
 40
0
 40
0.06666666666666667
 40
0.1333333333333333
 40
0.2
 40
0.2666666666666667
 40
0.3333333333333333
 40
0.4
 40
0.4666666666666667
 40
0.5333333333333333
 40
0.6
 40
0.6666666666666666
 40
0.7333333333333333
 40
0.8
 40
0.8666666666666667
 40
0.9333333333333333
 40
1
 40
1
 40
1
 10
85.36790584842041
 20
39.97123372286293
 30
0
 10
84.60887889110172
 20
39.78874625532883
 30
0
 10
84.05280527207442
 20
39.39975545339588
 30
0
 10
83.00532812780037
 20
38.66701259271075
 30
0
 10
83.00532812780037
 20
37.46100866980697
 30
0
 10
83.00532812780037
 20
36.1786972502093
 30
0
 10
84.04189122067696
 20
35.46123404371658
 30
0
 10
85.07845431355354
 20
34.74377092604409
 30
0
 10
86.80242145121534
 20
34.74377092604409
 30
0
 10
88.5482166916721
 20
34.74377092604409
 30
0
 10
89.59569383594615
 20
35.4688739152229
 30
0
 10
90.64317098022021
 20
36.19397699322194
 30
0
 10
90.64317098022021
 20
37.47628832399938
 30
0
 10
90.64317098022021
 20
38.68229224690317
 30
0
 10
89.60660788734363
 20
39.40739523608198
 30
0
 10
89.0748399672058
 20
39.77938084730323
 30
0
 10
88.36790583332278
 20
39.96053387326295
 30
0
  0
SPLINE
  5
53
100
AcDbEntity
  8
0
  6
CONTINUOUS
 62
    5
370
   -1
100
AcDbSpline
210
0
220
0
230
0
 70
    8
 71
    2
 72
   20
 73
   17
 74
    0
 42
1e-07
 43
1e-07
 40
0
 40
0
 40
0
 40
0.06666666666666667
 40
0.1333333333333333
 40
0.2
 40
0.2666666666666667
 40
0.3333333333333333
 40
0.4
 40
0.4666666666666667
 40
0.5333333333333333
 40
0.6
 40
0.6666666666666666
 40
0.7333333333333333
 40
0.8
 40
0.8666666666666667
 40
0.9333333333333333
 40
1
 40
1
 40
1
 10
88.36790583424562
 20
24.26631844556138
 30
0
 10
89.36429669943993
 20
24.49389699142961
 30
0
 10
90.11943240808317
 20
25.07309296166119
 30
0
 10
91.36331717919785
 20
26.02716391687596
 30
0
 10
91.36331717919785
 20
27.82852997413544
 30
0
 10
91.36331717919785
 20
29.40088258940463
 30
0
 10
90.09760430528823
 20
30.3549535446194
 30
0
 10
88.83189134255839
 20
31.30902449983417
 30
0
 10
86.88973395121535
 20
31.30902449983417
 30
0
 10
84.64198276546219
 20
31.30902449983417
 30
0
 10
83.5399808401551
 20
30.22516712502173
 30
0
 10
82.43797882602779
 20
29.1413097502093
 30
0
 10
82.43797882602779
 20
27.87427807362426
 30
0
 10
82.43797882602779
 20
26.10347141356984
 30
0
 10
83.73638846699572
 20
25.11124675441824
 30
0
 10
84.45385357042083
 20
24.56297091837787
 30
0
 10
85.36790584848646
 20
24.31765708061483
 30
0
  0
LINE
  5
54
100
AcDbEntity
  8
0
  6
CONTINUOUS
 62
    5
370
   -1
100
AcDbLine
 10
85.36790585030708
 20
43.49394743269182
 11
85.36790584842041
 21
39.97123372286293
  0
LINE
  5
55
100
AcDbEntity
  8
0
  6
CONTINUOUS
 62
    5
370
   -1
100
AcDbLine
 10
88.36790584842041
 20
43.48448386644199
 11
88.36790583342719
 21
39.9605338934124
  0
LINE
  5
56
100
AcDbEntity
  8
0
  6
CONTINUOUS
 62
    5
370
   -1
100
AcDbLine
 10
85.36790584842041
 20
24.31765708063256
 11
85.36790584842041
 21
20.7355694062872
  0
LINE
  5
57
100
AcDbEntity
  8
0
  6
CONTINUOUS
 62
    5
370
   -1
100
AcDbLine
 10
88.3679058470384
 20
24.26631844615342
 11
88.36790584842038
 21
20.70728040561739
  0
SPLINE
  5
58
100
AcDbEntity
  8
0
  6
CONTINUOUS
 62
    5
370
   -1
100
AcDbSpline
210
0
220
0
230
0
 70
    8
 71
    2
 72
   20
 73
   17
 74
    0
 42
1e-07
 43
1e-07
 40
0
 40
0
 40
0
 40
0.06666666666666667
 40
0.1333333333333333
 40
0.2
 40
0.2666666666666667
 40
0.3333333333333333
 40
0.4
 40
0.4666666666666667
 40
0.5333333333333333
 40
0.6
 40
0.6666666666666666
 40
0.7333333333333333
 40
0.8
 40
0.8666666666666667
 40
0.9333333333333333
 40
1
 40
1
 40
1
 10
85.3679058485305
 20
20.73556940627836
 30
0
 10
82.13015312211672
 20
20.99566307356073
 30
0
 10
79.81924048938832
 20
22.27190784969812
 30
0
 10
76.39313431685966
 20
24.16477010593524
 30
0
 10
76.39313431685966
 20
27.46218128177004
 30
0
 10
76.39313431685966
 20
29.27873604131328
 30
0
 10
77.68062990643011
 20
30.79765520963301
 30
0
 10
78.96812549600057
 20
32.31657437795274
 30
0
 10
81.73966072984508
 20
33.14085891356984
 30
0
 10
79.3609407496818
 20
33.84308785300424
 30
0
 10
78.28076692716967
 20
35.07196582565244
 30
0
 10
77.20059310465753
 20
36.30084379830065
 30
0
 10
77.20059310465753
 20
37.7663295196709
 30
0
 10
77.20059310465753
 20
40.26983356445614
 30
0
 10
79.69923122233001
 20
41.90325949818112
 30
0
 10
81.79370292754035
 20
43.27247101740883
 30
0
 10
85.36790585112881
 20
43.49394743116246
 30
0
  0
CIRCLE
  5
59
100
AcDbEntity
  8
0
  6
CONTINUOUS
 62
    5
370
   -1
100
AcDbCircle
 10
19.64309947202752
 20
30.32102921098927
 40
2.5
  0
CIRCLE
  5
5A
100
AcDbEntity
  8
0
  6
CONTINUOUS
 62
    5
370
   -1
100
AcDbCircle
 10
104.6430994720275
 20
30.32102921098927
 40
2.5
  0
ELLIPSE
  5
5B
100
AcDbEntity
  8
0
  6
ByLayer
 62
  256
370
   -1
100
AcDbEllipse
 10
61.0804461349332
 20
30.61461451733877
 30
0
 11
53.90248188709318
 21
0
 31
0
 40
0.5237547585860617
 41
0
 42
6.283185307179586
  0
ELLIPSE
  5
5C
100
AcDbEntity
  8
0
  6
ByLayer
 62
  256
370
   -1
100
AcDbEllipse
 10
61.54268305200792
 20
102.6712078233498
 30
0
 11
45.6316479214888
 21
18.61290902060726
 31
0
 40
0.4307572359464832
 41
0
 42
6.283185307179586
  0
SPLINE
  5
5D
100
AcDbEntity
  8
0
  6
ByLayer
 62
  256
370
   -1
100
AcDbSpline
210
0
220
0
230
0
 70
    8
 71
    2
 72
   10
 73
    7
 74
    0
 42
1e-07
 43
1e-07
 40
0
 40
0
 40
0
 40
0.2
 40
0.4
 40
0.6
 40
0.8
 40
1
 40
1
 40
1
 10
34.22373594111664
 20
90.96308763296793
 30
0
 10
46.52958801422306
 20
103.2145037450388
 30
0
 10
70.64330199919573
 20
89.39351793430187
 30
0
 10
81.65811807051982
 20
110.6734642221327
 30
0
 10
101.7014657460306
 20
88.30104199475092
 30
0
 10
123.6565443771078
 20
116.6493515956654
 30
0
 10
112.5780787536732
 20
132.0916124043099
 30
0
  0
ENDSEC
  0
SECTION
  2
OBJECTS
  0
DICTIONARY
  5
C
330
0
100
AcDbDictionary
281
    1
  3
ACAD_GROUP
350
D
  0
DICTIONARY
  5
D
330
C
100
AcDbDictionary
281
    1
  0
ENDSEC
  0
EOF
